<?xml version="1.0" encoding="UTF-8" standalone="no"?>
<!-- Created with Inkscape (http://www.inkscape.org/) -->

<svg
   xmlns:dc="http://purl.org/dc/elements/1.1/"
   xmlns:cc="http://creativecommons.org/ns#"
   xmlns:rdf="http://www.w3.org/1999/02/22-rdf-syntax-ns#"
   xmlns:svg="http://www.w3.org/2000/svg"
   xmlns="http://www.w3.org/2000/svg"
   xmlns:sodipodi="http://sodipodi.sourceforge.net/DTD/sodipodi-0.dtd"
   xmlns:inkscape="http://www.inkscape.org/namespaces/inkscape"
   width="210mm"
   height="297mm"
   viewBox="0 0 744.09448819 1052.3622047"
   id="svg4978"
   version="1.1"
   inkscape:version="0.91 r13725"
   sodipodi:docname="characters.svg">
  <defs
     id="defs4980" />
  <sodipodi:namedview
     id="base"
     pagecolor="#ffffff"
     bordercolor="#666666"
     borderopacity="1.0"
     inkscape:pageopacity="0.0"
     inkscape:pageshadow="2"
     inkscape:zoom="0.59746094"
     inkscape:cx="-54.912784"
     inkscape:cy="966.42913"
     inkscape:document-units="px"
     inkscape:current-layer="layer1"
     showgrid="false"
     inkscape:window-width="1920"
     inkscape:window-height="1009"
     inkscape:window-x="1280"
     inkscape:window-y="0"
     inkscape:window-maximized="1" />
  <metadata
     id="metadata4983">
    <rdf:RDF>
      <cc:Work
         rdf:about="">
        <dc:format>image/svg+xml</dc:format>
        <dc:type
           rdf:resource="http://purl.org/dc/dcmitype/StillImage" />
        <dc:title></dc:title>
      </cc:Work>
    </rdf:RDF>
  </metadata>
  <g
     inkscape:label="Calque 1"
     inkscape:groupmode="layer"
     id="layer1">
    <path
       style="opacity:1;fill:#000000;fill-opacity:1;fill-rule:nonzero;stroke:none;stroke-width:0.99212599;stroke-linecap:round;stroke-linejoin:round;stroke-miterlimit:4;stroke-dasharray:none;stroke-dashoffset:0;stroke-opacity:1"
       d="m 114.73808,49.523463 a 76.574043,76.574043 0 0 0 -22.519534,4.08398 76.574043,76.574043 0 0 0 -51.10742,82.775387 76.574043,76.574043 0 0 0 71.353514,66.12305 76.574043,76.574043 0 0 0 78.65235,-57.25 l -74.13086,-19.19141 66.31445,-38.287107 a 76.574043,76.574043 0 0 0 -68.5625,-38.2539 z m 23.07617,25.39062 a 6.0673423,6.0673423 0 0 1 6.06446,6.06641 l 0,0.0078 a 6.0673423,6.0673423 0 0 1 -6.07227,6.06055 6.0673423,6.0673423 0 0 1 -6.0625,-6.07227 6.0673423,6.0673423 0 0 1 6.07031,-6.0625 z m 92.32813,35.662107 a 7.634481,7.8408179 0 0 0 -7.64063,7.83399 7.634481,7.8408179 0 0 0 7.62696,7.84765 7.634481,7.8408179 0 0 0 7.64258,-7.83008 l -7.63477,-0.01 7.63477,0.004 a 7.634481,7.8408179 0 0 0 -7.62891,-7.8457 z m 35.60352,0 a 7.634481,7.8408179 0 0 0 -7.64063,7.83399 7.634481,7.8408179 0 0 0 7.62695,7.84765 7.634481,7.8408179 0 0 0 7.64258,-7.83008 l -7.63476,-0.01 7.63476,0.004 a 7.634481,7.8408179 0 0 0 -7.6289,-7.8457 z m 35.60546,0 a 7.634481,7.8408179 0 0 0 -7.64062,7.83399 7.634481,7.8408179 0 0 0 7.625,7.84765 7.634481,7.8408179 0 0 0 7.64258,-7.83008 l -7.63282,-0.01 7.63282,0.004 a 7.634481,7.8408179 0 0 0 -7.62696,-7.8457 z m 35.60352,0 a 7.634481,7.8408179 0 0 0 -7.64063,7.83399 7.634481,7.8408179 0 0 0 7.62696,7.84765 7.634481,7.8408179 0 0 0 7.64258,-7.83008 l -7.63477,-0.01 7.63477,0.004 a 7.634481,7.8408179 0 0 0 -7.62891,-7.8457 z"
       id="path5528"
       inkscape:connector-curvature="0" />
    <path
       style="fill:#000000"
       d="m 321.07125,291.2567 c -4.49289,0.0602 -8.16711,-0.54011 -7.58688,-6.24436 0.15791,-1.55235 -0.81532,-1.76674 -8.01979,-1.76674 l -8.19952,0 0.24588,11.86241 0.24588,11.86241 -8.2629,0.29322 -8.26289,0.29322 0,-8.62214 0,-8.62216 4.03827,0 c 3.94211,0 4.03827,-0.0841 4.03827,-3.53349 0,-3.44935 -0.0961,-3.53347 -4.03827,-3.53347 -4.03827,0 -4.03827,0 -4.03827,-4.03827 0,-4.03827 0,-4.03827 -4.03826,-4.03827 -4.03827,0 -4.03827,0 -4.03827,-4.03826 l 0,-4.03827 -7.57175,0 -7.57176,0 0,4.03827 c 0,4.02794 -0.0107,4.03826 -3.97733,4.03826 -3.86726,0 -3.98599,0.10475 -4.29064,3.78587 -0.30416,3.67487 -0.43916,3.79498 -4.60401,4.09632 l -4.29065,0.31044 0,-4.09631 0,-4.09632 -4.03827,0 c -4.03827,0 -4.03827,0 -4.03827,-4.03826 l 0,-4.03827 -7.57175,0 -7.57176,0 0,4.03827 c 0,4.03826 0,4.03826 -4.03826,4.03826 -4.03827,0 -4.03827,0 -4.03827,4.03827 0,4.03827 0,4.03827 -4.03827,4.03827 -3.94211,0 -4.03826,0.0841 -4.03826,3.53347 0,3.44937 0.0961,3.53349 4.03826,3.53349 l 4.03827,0 0,8.58131 0,8.58133 -12.61959,0 -12.61958,0 0,-12.1148 0,-12.1148 -7.57175,0 -7.57176,0 0,4.03826 c 0,4.03827 0,4.03827 -4.03826,4.03827 l -4.03827,0 0,7.57174 0,7.57176 8.07653,0 8.07655,0 0,4.54305 0,4.54305 -4.03828,0 -4.03827,0 0,11.61002 0,11.61002 4.03827,0 c 4.03828,0 4.03828,0 4.03828,4.03827 0,4.03826 0,4.03826 4.03827,4.03826 4.03826,0 4.03826,0 4.03826,4.03827 l 0,4.03828 12.1148,0 12.1148,0 0,4.03827 0,4.03826 35.83962,0 35.83963,0 0,-4.03826 0,-4.03827 8.07654,0 8.07653,0 0,-3.97733 c 0,-3.86728 0.10474,-3.986 3.78588,-4.29065 3.45633,-0.28607 3.81341,-0.59896 4.10223,-3.59444 0.31001,-3.21533 0.23412,-3.2811 -3.78587,-3.2811 l -4.10224,0 0,-4.54305 0,-4.54304 4.03827,0 c 4.20227,0 4.66808,0.72785 4.07998,6.37518 -0.15945,1.53123 0.44324,1.77993 3.66963,1.51434 l 3.86041,-0.31777 0.28546,-11.35763 0.28544,-11.35763 -4.07132,0 -4.07134,0 0,-4.54305 0,-4.54305 15.4999,-0.15367 m 16.39622,0.41671 c 0.22387,0.22383 0.53373,1.95987 0.68861,3.85784 l 0.28162,3.45087 7.34583,0.1383 c 4.04018,0.0761 7.58661,0.37911 7.88099,0.67346 0.2943,0.29433 0.61068,2.04931 0.70296,3.89995 0.15625,3.13203 0.44728,3.39975 4.20616,3.86962 3.84591,0.48073 4.03828,0.67304 4.03828,4.03826 l 0,3.53349 7.82412,0.29484 7.82412,0.29487 0,3.52356 c 0,2.71047 0.52415,3.73423 2.27153,4.43658 l 2.27152,0.91305 -2.27152,0.0641 c -1.91079,0.0538 -2.27153,0.62513 -2.27153,3.59749 0,2.86043 0.38459,3.53347 2.01918,3.53347 1.95346,0 2.0191,0.67306 2.0191,20.69613 0,18.38683 -0.18209,20.69612 -1.63204,20.69612 -1.20607,0 -1.50325,0.67362 -1.13867,2.5809 0.62767,3.28348 -1.53707,5.49563 -5.37795,5.49563 -2.91762,0 -3.04283,0.18487 -3.4192,5.04905 -0.2159,2.79005 -1.59002,4.08682 -3.38452,3.19413 -0.938,-0.46659 -5.79425,-0.5814 -10.79159,-0.25512 -8.85234,0.57799 -9.08666,0.65819 -9.10962,3.11717 -0.0224,2.42647 0.26972,2.54341 7.57176,3.0287 l 7.59531,0.50479 -0.13184,3.78588 -0.13176,3.78586 7.83226,0 c 6.13801,0 8.13206,0.36953 9.21794,1.70816 0.94144,1.16065 0.98107,1.46514 0.12361,0.94998 -0.89724,-0.53903 -1.26197,0.11411 -1.26197,2.25991 0,2.32717 0.52001,3.11823 2.27153,3.45558 l 2.27152,0.43752 -2.27152,0.13749 c -2.25207,0.13629 -2.27153,0.27169 -2.27153,15.78575 0,14.97525 0.0868,15.64829 2.01918,15.64829 1.86071,0 2.0191,0.67306 2.0191,8.58133 l 0,8.58132 -10.09565,0 -10.09573,0 0,3.53347 c 0,3.44937 0.0962,3.53349 4.03828,3.53349 4.03828,0 4.03828,0 4.03828,4.03827 l 0,4.03827 6.22566,0 c 3.42414,0 5.94993,0.27572 5.61297,0.61269 -0.76511,0.76511 -51.07072,0.60319 -52.31919,-0.16841 -0.50142,-0.30992 -0.91167,-3.71679 -0.91167,-7.57086 0,-4.8798 -0.38315,-7.03759 -1.26195,-7.10687 -0.69408,-0.0547 -2.39772,-0.16829 -3.78588,-0.25239 -2.01507,-0.12208 -2.59046,-0.76353 -2.854,-3.1816 -0.18154,-1.66579 -0.73487,-3.44575 -1.22964,-3.95547 -0.49475,-0.50972 -7.15752,-0.88637 -14.80613,-0.83697 -8.3097,0.0536 -14.41739,-0.33416 -15.17582,-0.96358 -0.69809,-0.57938 -1.26925,-2.56668 -1.26925,-4.41627 l 0,-3.36285 -38.61593,0.20538 -38.61594,0.20539 -0.34173,3.02869 c -0.46275,4.10147 -2.00565,5.71264 -5.12407,5.35078 -2.29192,-0.26595 -2.67237,0.12856 -3.11551,3.23054 -0.40446,2.83114 -1.00647,3.60289 -3.0287,3.88262 -3.45467,0.47786 -4.87185,1.83682 -5.24031,5.02498 -0.2628,2.27404 -0.99244,2.85318 -4.60298,3.6535 l -4.29065,0.95107 0,7.37785 c 0,7.88998 0.002,7.88733 -5.79962,7.41806 -2.15876,-0.17461 -1.80433,5.24802 -1.80433,5.24802 l -1.48216,1.77875 0,-4.03827 c 0,-4.03826 0,-4.03826 4.03826,-4.03826 l 4.03828,0 0,-7.57176 0,-7.57175 -3.53349,0 c -3.44935,0 -3.53347,0.0961 -3.53347,4.03827 0,4.03826 0,4.03826 -4.03828,4.03826 l -4.03827,0 0,4.09632 0,4.09632 -4.29065,-0.31045 c -4.28099,-0.30975 -4.29066,-0.31955 -4.29066,-4.3487 0,-3.9377 0.0943,-4.04608 3.78588,-4.35162 3.58028,-0.29631 3.78586,-0.5019 3.78586,-3.78586 l 0,-3.47254 -7.57174,0 -7.57175,0 0,4.03827 0,4.03826 -12.1148,0 -12.11481,0 0,4.03827 c 0,4.03826 0,4.03826 -4.03827,4.03826 l -4.03827,0 0,-4.54304 0,-4.54305 4.03827,0 c 3.94213,0 4.03827,-0.0841 4.03827,-3.53348 l 0,-3.53349 -8.13611,0 c -4.54615,0 -7.88909,0.3997 -7.57626,0.90588 0.30793,0.49824 0.28282,2.29113 -0.0558,3.98419 -0.53281,2.66408 -1.10335,3.11958 -4.23963,3.3848 -3.3998,0.28748 -3.62683,0.52501 -3.67048,3.83993 -0.0441,3.34462 -0.24889,3.55023 -3.83241,3.84683 -3.580293,0.29631 -3.785883,0.50191 -3.785883,3.78587 0,3.44255 -0.0392,3.47254 -4.54306,3.47254 -4.519,0 -4.54304,-0.0186 -4.54304,-3.53349 0,-3.36521 -0.16827,-3.53349 -3.53349,-3.53349 -3.36522,0 -3.53349,0.16828 -3.53349,3.53349 l 0,3.53349 -1.51426,-1.5144 0.31013,-3.73203 c 0.231,-2.77992 0.68501,-3.58818 1.77959,-3.16815 0.80821,0.31014 2.12524,0.0197 2.92674,-0.64553 0.8015,-0.6652 1.93148,-0.91635 2.51107,-0.55814 0.6616,0.40887 1.05354,-0.77991 1.05313,-3.19419 -6.5e-4,-3.75768 0.0841,-3.84546 3.71434,-3.84546 3.53719,0 3.72394,-0.16914 3.90138,-3.53348 0.10249,-1.94341 0.24995,-3.76064 0.32767,-4.03827 0.0777,-0.27764 3.15807,-0.63203 6.845273,-0.78755 3.68719,-0.15551 7.09279,-0.52304 7.56801,-0.81675 0.98676,-0.60985 1.17454,-9.53616 0.25123,-11.94228 -0.36339,-0.94698 -1.80151,-1.59693 -3.53349,-1.59693 l -2.92068,0 0,-12.61957 0,-12.61959 3.53349,0 c 3.5697,0 3.74729,-0.22762 3.93826,-5.04784 0.075,-1.89456 0.72935,-2.60816 2.62391,-2.8618 1.38816,-0.18583 2.95552,-0.7537 3.48301,-1.26196 1.29799,-1.25059 3.86095,-1.17944 3.07918,0.0856 -0.37682,0.6097 0.99909,1.00957 3.47391,1.00957 4.03203,-2e-5 4.09784,-0.0584 4.09784,-3.63516 l 0,-3.63515 -4.44668,0.35405 c -2.44568,0.19474 -4.2361,0.0133 -3.97869,-0.40311 0.2574,-0.41645 2.00108,-0.75718 3.87485,-0.75718 2.94156,0 3.46427,-0.37919 3.82741,-2.77631 l 0.42059,-2.77631 0.15126,2.77631 c 0.13842,2.54076 0.49386,2.77631 4.18952,2.77631 3.96364,0 4.03827,-0.0673 4.03827,-3.63514 l 0,-3.63515 -4.57499,0.36387 c -3.53612,0.28123 -4.22744,0.10972 -3.0444,-0.75534 0.84184,-0.61557 1.20452,-1.52859 0.80595,-2.02896 -0.39855,-0.50035 -0.0735,-0.34185 0.7224,0.35222 0.79586,0.69408 2.24219,1.26196 3.21404,1.26196 1.60267,0 1.77071,-1.40847 1.80681,-15.14351 l 0.0398,-15.14349 -3.54806,0 c -2.85236,0 -3.73555,-0.49317 -4.50432,-2.51515 -0.52594,-1.38334 -0.70462,-3.17092 -0.39706,-3.9724 0.415,-1.08145 -0.41681,-1.53933 -3.22547,-1.77551 -3.31872,-0.27908 -3.92976,-0.75329 -4.96321,-3.85175 -1.16951,-3.50631 -1.23225,-3.53737 -8.16049,-4.03827 -6.51872,-0.4713 -7.00507,-0.67223 -7.33104,-3.0287 -0.58695,-4.24321 -1.99934,-5.04783 -8.860603,-5.04783 -6.19477,0 -6.43857,-0.0956 -6.43857,-2.52392 0,-1.38815 -0.4543,-2.52391 -1.00957,-2.52391 -0.55525,0 -1.00956,-0.48113 -1.00956,-1.06916 0,-0.58804 0.5245,-0.74498 1.16555,-0.34879 0.64105,0.3962 0.90275,0.29511 0.58153,-0.22461 -0.3212,-0.51973 -2.04427,-1.05623 -3.82903,-1.19223 -4.47578,-0.34104 -4.98502,-0.82669 -4.98502,-4.75408 l 0,-3.43144 -7.824144,-0.29487 c -7.485624,-0.28208 -7.839253,-0.40405 -8.173269,-2.81876 -0.477873,-3.45467 -1.836825,-4.87183 -5.024982,-5.2403 -2.250254,-0.26007 -2.708538,-0.81909 -2.738941,-3.34102 -0.03198,-2.65582 -0.394544,-3.0287 -2.944591,-3.0287 l -2.90808,0 c -2.695355,0.0698 -1.802536,-13.37186 -1.464277,-18.25634 0.338261,-4.88447 -2.559618,-8.76976 4.849535,-9.67366 2.179487,-0.32412 2.278001,-0.76955 2.419248,-10.93833 0.08099,-5.83025 0.500706,-11.16832 0.93272,-11.86241 0.432005,-0.69407 2.348728,-1.26195 4.259374,-1.26195 l 3.473898,0 0,-7.52928 0,-7.52929 7.824148,-0.29487 7.824151,-0.29485 0.31086,-3.74447 0.31087,-3.74445 7.76567,-0.29382 c 6.04473,-0.22869 7.78751,-0.62939 7.86428,-1.80815 0.43634,-6.70011 -1.32404,-6.0574 16.590933,-6.0574 12.0674,0 16.28366,0.32104 16.57353,1.26197 0.21382,0.69407 0.65532,2.48261 0.98112,3.97453 0.4738,2.16975 1.24829,2.77586 3.8702,3.02871 2.98155,0.28754 3.30586,0.65313 3.58774,4.04448 0.29119,3.50302 0.53525,3.74708 4.03828,4.03826 3.59778,0.29905 3.73912,0.45792 4.03566,4.53635 l 0.30731,4.22645 -3.8408,0.3166 -3.84078,0.31661 -0.58292,6.56218 c -0.32061,3.6092 -0.66134,5.31285 -0.75718,3.78588 l -0.17425,-2.77631 -12.17438,0 c -8.05249,0 -11.95799,0.35016 -11.53521,1.03421 0.35154,0.5688 0.34225,2.38602 -0.0206,4.03826 -0.59507,2.70935 -1.04809,3.00407 -4.61785,3.00407 -3.94468,0 -3.95805,-0.0136 -3.95805,-4.03827 0,-4.03827 0,-4.03827 -4.03826,-4.03827 -4.038273,0 -4.038273,0 -4.038273,-4.03826 0,-4.03827 0,-4.03827 -4.03827,-4.03827 l -4.03826,0 0,-4.6011 0,-4.6011 4.29065,0.31044 c 4.15186,0.30039 4.30068,0.43104 4.60056,4.0388 0.29118,3.50302 0.53524,3.7471 4.038273,4.03827 2.90898,0.24179 3.75098,0.75364 3.83128,2.32904 0.27976,5.48858 0.32514,5.55261 3.93536,5.55261 3.44935,0 3.53348,-0.0962 3.53348,-4.03826 0,-4.03827 0,-4.03827 4.03826,-4.03827 3.94213,0 4.03827,-0.0841 4.03827,-3.53349 0,-3.44935 -0.0962,-3.53347 -4.03827,-3.53347 l -4.03826,0 0,-4.60111 0,-4.60109 4.29065,0.31044 c 4.27697,0.30944 4.28994,0.32252 4.06133,4.09631 -0.2289,3.77863 -0.22166,3.78586 3.78587,3.78586 4.01137,0 4.01521,0.004 4.01521,4.03828 l 0,4.03827 7.8999,0 7.89988,0 -0.0757,-3.53051 c -0.0729,-3.39265 -0.22358,-3.53064 -3.86162,-3.53349 -3.91282,-0.004 -4.39915,-0.80285 -3.83867,-6.31277 0.14468,-1.42219 -0.62018,-1.76673 -3.92202,-1.76673 l -4.10172,0 0,-4.03828 0,-4.03826 -15.64828,0 -15.648293,0 0,4.03826 0,4.03828 -8.07654,0 -8.07653,0 0,4.03827 0,4.03827 -8.07654,0 -8.076531,0 0,11.61001 0,11.61002 3.533485,0 c 3.4577,0 3.533484,-0.0878 3.533484,-4.09632 l 0,-4.09631 4.290652,0.31044 c 4.15187,0.3004 4.30069,0.43104 4.60057,4.0388 0.29117,3.50303 0.53524,3.74709 4.03827,4.03826 3.51445,0.29213 3.74633,0.5271 4.0417,4.09579 l 0.31333,3.78587 19.625613,0 19.62561,0 0,-3.93661 c 0,-3.92634 0.0118,-3.93754 4.44669,-4.29065 2.44568,-0.19474 4.23609,-0.0133 3.97869,0.40313 -0.2574,0.41643 -2.03126,0.75717 -3.94191,0.75717 -3.37984,0 -3.47389,0.10936 -3.47389,4.03826 l 0,4.03827 -11.542,0 c -10.83969,0 -11.58295,0.12904 -12.21509,2.12075 -0.37021,1.16643 -0.28177,2.5121 0.19653,2.9904 0.88929,0.8893 42.23861,1.99444 44.49057,1.18909 0.90431,-0.32338 0.95999,-0.97438 0.20411,-2.38672 -1.41404,-2.64215 1.43564,-5.42787 5.5525,-5.42787 2.84838,0 3.12062,-0.30234 3.40893,-3.78588 0.27438,-3.3153 0.63699,-3.78587 2.91739,-3.78587 2.98427,0 5.27172,-2.49672 5.31849,-5.80501 0.031,-2.19289 0.36187,-2.27153 9.55726,-2.27153 11.76585,0 14.99643,-1.00902 14.14115,-4.41677 -0.72582,-2.89189 0.82464,-4.15521 5.10634,-4.16068 2.78969,-0.004 3.00466,-0.25555 2.72404,-3.19307 -0.31989,-3.34848 0.68954,-4.5191 4.22783,-4.90292 1.17384,-0.12732 2.47497,-0.28948 2.89141,-0.36035 0.41645,-0.0709 0.75718,-1.46494 0.75718,-3.09796 0,-3.47804 1.37496,-4.57642 5.34973,-4.27355 2.59176,0.19748 2.85388,-0.0636 2.59,-2.57921 -0.56467,-5.38333 -0.9116,-5.32163 29.91766,-5.32163 l 28.65214,0 0.31333,3.78589 c 0.26946,3.25572 0.66676,3.79704 2.83726,3.86558 4.59102,0.14499 5.04782,0.4044 5.04782,2.86642 0,4.36259 1.03659,5.63517 4.59012,5.63517 3.15916,0 3.38366,0.23111 3.67787,3.78589 0.29746,3.59399 0.49244,3.78587 3.84682,3.78587 3.42974,0 3.54254,0.12477 3.84189,4.24921 l 0.30842,4.2492 7.76812,0.29384 7.76813,0.29385 0.3099,3.72837 c 0.2897,3.48523 0.56995,3.61866 4.03827,4.12094 l 3.54347,0.51318 c 0.33019,4.47831 0.0556,15.09981 0.0556,15.09981 0,0 15.01055,0.16855 15.36755,0.52556 z M 96.480337,495.75942 c 0,-3.36522 -0.16826,-3.53348 -3.53349,-3.53348 -3.36522,0 -3.53348,0.16826 -3.53348,3.53348 0,3.36522 0.16826,3.53348 3.53348,3.53348 3.36523,0 3.53349,-0.16826 3.53349,-3.53348 z m 8.076533,-8.07653 c 0,-3.36522 -0.16826,-3.53349 -3.53347,-3.53349 -3.365233,0 -3.533493,0.16827 -3.533493,3.53349 0,3.36521 0.16826,3.53348 3.533493,3.53348 3.36521,0 3.53347,-0.16827 3.53347,-3.53348 z m 256.43001,0 0,-3.53349 -15.64832,0 -15.64827,0 0,3.53349 0,3.53348 15.64827,0 15.64832,0 z m -248.35347,-32.30614 0,-11.61002 -3.53348,0 -3.53349,0 0,11.61002 0,11.61002 3.53349,0 3.53348,0 z m 87.83232,0 c 0,-3.36523 -0.16827,-3.53349 -3.53349,-3.53349 -3.36523,0 -3.53348,0.16826 -3.53348,3.53349 0,3.36521 0.16825,3.53348 3.53348,3.53348 3.36522,0 3.53349,-0.16827 3.53349,-3.53348 z m 24.22961,0 c 0,-3.36523 -0.16828,-3.53349 -3.53349,-3.53349 -3.36522,0 -3.53349,0.16826 -3.53349,3.53349 0,3.36521 0.16827,3.53348 3.53349,3.53348 3.36521,0 3.53349,-0.16827 3.53349,-3.53348 z m 16.15306,0 c 0,-3.36523 -0.16826,-3.53349 -3.53348,-3.53349 -3.36522,0 -3.53349,0.16826 -3.53349,3.53349 0,3.36521 0.16827,3.53348 3.53349,3.53348 3.36522,0 3.53348,-0.16827 3.53348,-3.53348 z m 24.22961,0 c 0,-3.36523 -0.16827,-3.53349 -3.53348,-3.53349 -3.36523,0 -3.53349,0.16826 -3.53349,3.53349 0,3.36521 0.16826,3.53348 3.53349,3.53348 3.36521,0 3.53348,-0.16827 3.53348,-3.53348 z m 24.2296,0 c 0,-3.41022 -0.13207,-3.53348 -3.78587,-3.53284 -3.64745,6.1e-4 -3.78703,0.12982 -3.81722,3.53348 -0.0303,3.42003 0.0905,3.53284 3.78588,3.53284 3.68948,0 3.81721,-0.11825 3.81721,-3.53348 z m -72.68882,-8.07654 c 0,-3.4577 -0.0878,-3.53348 -4.09631,-3.53348 l -4.09631,0 0.31043,-4.29066 0.31044,-4.29067 12.11481,0 12.1148,0 0.31334,3.78588 c 0.29632,3.58029 0.50191,3.78588 3.78588,3.78588 3.38404,0 3.47253,-0.10392 3.47253,-4.0791 l 0,-4.0791 8.32893,0.29323 8.32893,0.29321 0.31334,3.78588 c 0.29631,3.58029 0.5019,3.78588 3.78588,3.78588 3.37824,0 3.47253,-0.1096 3.47253,-4.03827 0,-4.03827 0,-4.03827 4.03827,-4.03827 4.03827,0 4.03827,0 4.03827,-4.03826 l 0,-4.03827 12.1148,0 12.1148,0 0,-4.03827 0,-4.03826 4.10223,0 c 4.02,0 4.09589,-0.0658 3.78588,-3.2811 l -0.31636,-3.28109 -7.82414,-0.29486 -7.82415,-0.29486 0,-4.05674 0,-4.05675 -3.78587,0.31334 c -3.67188,0.3039 -3.78214,0.42734 -3.66159,4.0992 l 0.12432,3.78588 -4.41497,0 -4.41495,0 0,-4.54304 0,-4.54306 4.03826,0 c 3.94212,0 4.03827,-0.0841 4.03827,-3.53348 0,-3.44936 -0.0961,-3.53348 -4.03827,-3.53348 -4.03826,0 -4.03826,0 -4.03826,-4.03827 0,-2.87166 0.43746,-4.06744 1.51433,-4.13923 7.19405,-0.4796 7.06628,-0.5452 7.07821,3.63457 0.0118,4.08579 0.32088,4.25734 6.55095,3.63431 0.55526,-0.0555 1.00927,-1.8046 1.00891,-3.88682 -6.5e-4,-3.70199 0.0833,-3.78589 3.78587,-3.78589 3.65443,0 3.78655,-0.12327 3.78655,-3.53347 l 0,-3.53349 -19.43417,-0.27419 -19.43416,-0.27419 0,4.06006 0,4.06007 -4.03827,0 -4.03826,0 0,11.54907 0,11.54909 3.78587,0.31332 c 3.56868,0.29536 3.80365,0.52724 4.09578,4.04171 0.29117,3.50302 0.53525,3.74708 4.03827,4.03826 3.60776,0.29988 3.7384,0.4487 4.0388,4.60057 l 0.31045,4.29065 -4.60111,0 -4.60109,0 0,-4.03827 c 0,-4.03827 0,-4.03827 -4.03828,-4.03827 -4.03826,0 -4.03826,0 -4.03826,-4.03826 l 0,-4.03827 -7.57176,0 -7.57175,0 0,4.03827 c 0,4.03826 0,4.03826 -4.03827,4.03826 -4.03827,0 -4.03827,0 -4.03827,4.03827 l 0,4.03827 -12.1148,0 -12.11479,0 0,4.03826 c 0,4.03828 0,4.03828 -4.03827,4.03828 -3.94212,0 -4.03827,0.0841 -4.03827,3.53348 0,3.44936 0.0961,3.53349 4.03827,3.53349 4.03827,0 4.03827,0 4.03827,4.03826 l 0,4.03828 7.57174,0 7.57175,0 z m 16.15308,0 c 0,-3.36522 -0.16828,-3.53348 -3.53349,-3.53348 -3.36522,0 -3.53349,0.16826 -3.53349,3.53348 0,3.36522 0.16827,3.53349 3.53349,3.53349 3.36521,0 3.53349,-0.16827 3.53349,-3.53349 z m 16.15307,0 c 0,-3.36522 -0.16827,-3.53348 -3.53349,-3.53348 -3.36521,0 -3.53349,0.16826 -3.53349,3.53348 0,3.36522 0.16828,3.53349 3.53349,3.53349 3.36522,0 3.53349,-0.16827 3.53349,-3.53349 z m 24.22961,0 c 0,-3.36522 -0.16827,-3.53348 -3.53349,-3.53348 -3.36521,0 -3.53349,0.16826 -3.53349,3.53348 0,3.36522 0.16828,3.53349 3.53349,3.53349 3.36522,0 3.53349,-0.16827 3.53349,-3.53349 z m -152.44461,-8.07654 c 0,-3.41822 -0.12511,-3.53348 -3.83553,-3.53348 -3.78902,0 -3.83055,0.0429 -3.42304,3.53348 0.38087,3.2624 0.67513,3.53349 3.83555,3.53349 3.23899,0 3.42302,-0.18999 3.42302,-3.53349 z m 168.59767,0 0,-3.53348 -7.57175,0 -7.57175,0 0,3.53348 0,3.53349 7.57175,0 7.57175,0 z M 176.23611,423.0706 c 0,-3.36521 -0.16825,-3.53349 -3.53347,-3.53349 -3.36523,0 -3.53349,0.16828 -3.53349,3.53349 0,3.36523 0.16826,3.53349 3.53349,3.53349 3.36522,0 3.53347,-0.16826 3.53347,-3.53349 z m 200.90387,0 0,-3.53349 -7.57178,0 -7.57178,0 0,3.53349 0,3.53349 7.57178,0 7.57178,0 z m -232.54065,-7.82414 c -0.15187,-3.02789 -0.45672,-3.30527 -3.95045,-3.59443 -3.72456,-0.30825 -3.78587,-0.25512 -3.78587,3.28109 0,3.50714 0.096,3.59444 3.95044,3.59444 3.81761,0 3.9449,-0.11031 3.78588,-3.2811 z m 23.56025,-0.25239 c 0,-3.36522 -0.16825,-3.53349 -3.53347,-3.53349 -3.36523,0 -3.53349,0.16827 -3.53349,3.53349 0,3.36521 0.16826,3.53349 3.53349,3.53349 3.36522,0 3.53347,-0.16828 3.53347,-3.53349 z m 56.7272,-0.25239 c 0.29632,-3.58029 0.51892,-3.80289 4.09921,-4.09922 l 3.78588,-0.31332 0,-11.54909 0,-11.54907 -4.03827,0 c -4.03826,0 -4.03826,0 -4.03826,-4.03826 0,-3.94212 -0.0841,-4.03827 -3.53349,-4.03827 -3.44936,0 -3.53349,0.0961 -3.53349,4.03827 l 0,4.03826 -4.54306,0 -4.54304,0 0,-4.03826 c 0,-3.94212 -0.0841,-4.03827 -3.53349,-4.03827 -3.44935,0 -3.53347,0.0961 -3.53347,4.03827 0,4.03826 0,4.03826 -4.03827,4.03826 -4.03827,0 -4.03827,0 -4.03827,4.03827 0,4.03827 0,4.03827 -4.03826,4.03827 l -4.03827,0 0,11.61002 0,11.61002 19.62559,0 19.62563,0 z m -24.22671,-7.57175 c 0.30894,-4.26981 0.3313,-4.29216 4.6011,-4.6011 l 4.29066,-0.31044 0,4.60109 0,4.6011 -4.60109,0 -4.60111,0 z m 160.32681,7.82414 0,-3.53349 -7.57178,0 -7.57178,0 0,3.53349 0,3.53349 7.57178,0 7.57178,0 z m -184.75077,-12.1148 0,-7.57175 -3.53347,0 -3.53349,0 0,7.57175 0,7.57175 3.53349,0 3.53347,0 z m -8.07853,-11.86241 c 0.002,-3.65406 -0.12104,-3.78588 -3.53147,-3.78588 -3.33158,0 -3.53349,0.19231 -3.53349,3.36523 0,4.14955 0.48518,4.66443 4.15459,4.40899 2.65133,-0.18458 2.90854,-0.53705 2.91037,-3.98834 z m 24.23161,-7.91235 c 0,-3.79635 -0.0838,-3.88543 -3.53349,-3.75574 -3.36434,0.12647 -3.53347,0.3081 -3.53347,3.79442 0,3.4937 0.16202,3.66591 3.53347,3.75576 3.44299,0.0917 3.53349,-0.005 3.53349,-3.79444 z m 136.74601,-7.98833 -0.0502,-3.53348 -11.45654,0 c -11.39565,0 -11.45856,0.0133 -11.83831,2.48472 -0.75885,4.93899 -0.17834,5.17411 12.01891,4.86788 l 11.37653,-0.28564 -0.0504,-3.53348 z m 7.62205,-7.51216 c 0,-4.05008 -0.95891,-4.90721 -4.49662,-4.01931 -2.12203,0.53261 -2.57034,1.24232 -2.57034,4.06917 0,3.24014 0.18977,3.42404 3.53349,3.42404 3.35367,0 3.53347,-0.17679 3.53347,-3.4739 z m 8.07653,-8.13612 c 0,-3.36523 -0.16829,-3.53349 -3.5335,-3.53349 -3.36522,0 -3.53342,0.16826 -3.53342,3.53349 0,3.36521 0.1682,3.53348 3.53342,3.53348 3.36521,0 3.5335,-0.16827 3.5335,-3.53348 z m 32.3062,-24.22962 0,-3.53348 -7.57178,0 -7.57178,0 0,3.53348 0,3.53349 7.57178,0 7.57178,0 z m -16.1531,-8.07653 c 0,-3.36522 -0.16829,-3.53349 -3.5335,-3.53349 -3.36521,0 -3.5335,0.16827 -3.5335,3.53349 0,3.36523 0.16829,3.53349 3.5335,3.53349 3.36521,0 3.5335,-0.16826 3.5335,-3.53349 z M 96.480337,319.08522 c 0,-3.36523 -0.16826,-3.53349 -3.53349,-3.53349 -3.36522,0 -3.53348,0.16826 -3.53348,3.53349 0,3.36522 0.16826,3.53349 3.53348,3.53349 3.36523,0 3.53349,-0.16827 3.53349,-3.53349 z m 256.429983,0 0,-3.53349 -7.57176,0 -7.5717,0 0,3.53349 0,3.53349 7.5717,0 7.57176,0 z m -248.35345,-8.07654 c 0,-3.36522 -0.16826,-3.53348 -3.53347,-3.53348 -3.365233,0 -3.533493,0.16826 -3.533493,3.53348 0,3.36523 0.16826,3.53349 3.533493,3.53349 3.36521,0 3.53347,-0.16826 3.53347,-3.53349 z m 232.20038,0 c 0,-3.36522 -0.16826,-3.53348 -3.53347,-3.53348 -3.36523,0 -3.53349,0.16826 -3.53349,3.53348 0,3.36523 0.16826,3.53349 3.53349,3.53349 3.36521,0 3.53347,-0.16826 3.53347,-3.53349 z m -127.6749,35.64866 c -0.2493,-0.72787 -0.58638,-2.68629 -0.74907,-4.35208 -0.25676,-2.62884 -0.77034,-3.09535 -3.89005,-3.53349 -3.35355,-0.47098 -3.59016,-0.7414 -3.53347,-4.03826 0.0572,-3.33152 0.27386,-3.55121 3.78911,-3.8434 3.50302,-0.29118 3.74709,-0.53524 4.03826,-4.03826 0.29988,-3.60776 0.44872,-3.7384 4.60058,-4.0388 l 4.29065,-0.31045 0,4.09633 0,4.09631 4.09631,0 4.09633,0 -0.31044,4.29065 c -0.30996,4.28404 -0.3162,4.29016 -4.03476,3.96623 l -3.72429,-0.32444 -0.31397,4.36271 c -0.30579,4.24925 -0.41261,4.37086 -4.10795,4.67651 -2.4588,0.20339 -3.9535,-0.1519 -4.24724,-1.00956 z m 64.74524,0.52748 c -0.37018,-0.37017 -0.67304,-2.41454 -0.67304,-4.54305 0,-3.84195 -0.0293,-3.87 -4.03827,-3.87 -4.03827,0 -4.03827,0 -4.03827,-4.03826 0,-4.03827 0,-4.03827 4.03827,-4.03827 4.03827,0 4.03827,0 4.03827,-4.03827 0,-4.03826 0,-4.03826 4.03826,-4.03826 4.03827,0 4.03827,0 4.03827,4.03826 0,4.03827 0,4.03827 4.03827,4.03827 l 4.03826,0 6.7e-4,4.29065 c 6.5e-4,4.2853 -0.004,4.29066 -3.78588,4.29066 -3.73301,0 -3.79092,0.0607 -4.09699,4.29067 -0.29746,4.11145 -0.44854,4.29065 -3.6176,4.29065 -1.81894,0 -3.61005,-0.30286 -3.98022,-0.67305 z m -32.97919,-4.45213 0,-4.11563 -3.78587,0.32975 -3.78588,0.32974 -0.31044,-4.29066 -0.31045,-4.29065 4.09632,0 4.09632,0 0,-4.09631 0,-4.09633 4.29066,0.31045 c 4.17143,0.30181 4.29066,0.40862 4.29066,3.84392 0,3.35438 0.19189,3.54937 3.78587,3.84682 3.58029,0.29632 3.78589,0.50191 3.78589,3.78589 0,1.90988 0.11363,3.81164 0.25238,4.22614 0.13882,0.41448 -1.45124,0.60682 -3.53348,0.42743 -3.95084,-0.34038 -4.42118,0.41172 -3.83868,6.13832 0.14758,1.45073 -0.64421,1.76673 -4.42679,1.76673 l -4.60651,0 z m -55.81465,-3.57634 c -0.39659,-0.39662 -0.72109,-2.46261 -0.72109,-4.59111 l 0,-3.87 4.60109,0 4.60111,0 -0.31044,4.29065 c -0.29765,4.11387 -0.45753,4.30304 -3.88,4.59111 -1.96328,0.16524 -3.89407,-0.024 -4.29067,-0.42065 z m 47.73812,-28.14767 0,-4.6052 12.36719,0.28347 12.3672,0.28347 0,4.03826 0,4.03827 -12.3672,0.28346 -12.36719,0.28347 z m 0,-16.15307 0,-4.54305 4.54305,0 4.54304,0 0,4.54305 0,4.54305 -4.54304,0 -4.54305,0 z m 16.15307,0 0,-4.65914 4.29065,0.31043 c 4.28099,0.30974 4.29067,0.31955 4.29067,4.34871 0,4.02916 -0.0107,4.03897 -4.29067,4.34871 l -4.29065,0.31044 z m 32.95062,-39.3731 c -0.31961,-0.83289 -0.14106,-1.51436 0.39676,-1.51436 0.53784,0 0.97789,0.68147 0.97789,1.51436 0,0.83289 -0.17855,1.51435 -0.39677,1.51435 -0.21823,0 -0.65827,-0.68146 -0.97788,-1.51435 z"
       id="path5687"
       inkscape:connector-curvature="0"
       sodipodi:nodetypes="csscccccccsssssscccsssscccsscccsssssscccccccccsscccccccccccsssscccccccccccsssscccssscccccccccscsccsscccssccsssscsscscscccsccsscsssscccssscsccsssssscscccsssssscssccsscccssscccsssscccccccsscccsscsscssssssssccsscsssscsssscccsssscsscscsscssscssscsscsssssssssssscsscssscsczcssscccccccssssssssscccsscsscssssscccssssssssscccsssscccscsscccccccccccccccsscsssscccssssscsssssssscsscsscsssscssssssscccsscccssssssssssccccccccccccccccccsssssssssssssssssssssscsssscccccssscccssssscccccsscccccsscccccsssssscssscccccccccsssscccssscccssscccssssscccssssssssssssssssssssscccccccccssssscccccccccsssssssssssscccsssscccsssssscccccssscccccscccccccccccccccccccssscsssssccssscccsssssssssscccccccccsssssssssscccccccccssssssssssscssssscccccsscssscsssssssscsssscccccccccccsssssssscccscccsscccccccccccccccccccccsssccsssss" />
    <path
       style="fill:#000000"
       d="m 455.69327,373.97483 c -8.94322,-0.99608 -15.24788,-4.48813 -18.04038,-9.99227 -4.93025,-9.71775 -1.07076,-18.92023 9.25,-22.05548 3.5018,-1.06377 12.25706,-1.40294 17.8668,-0.69213 1.46136,0.18517 2.15762,-0.84937 3.20587,-4.76346 1.74705,-6.52341 1.74892,-6.5 -0.51691,-6.5 -1.06933,0 -3.14361,-1.03166 -4.60952,-2.29258 l -2.66528,-2.29258 3.07389,-4.84701 c 2.99902,-4.72897 6.9387,-15.52195 8.96781,-24.56783 1.67622,-7.47268 3.59601,-22.91466 2.93144,-23.57924 -0.34229,-0.34228 -3.61849,-0.76979 -7.28044,-0.95002 -7.21873,-0.35528 -9.46354,-1.61787 -11.46428,-6.44809 -1.55535,-3.75495 -0.96942,-7.06488 1.49062,-8.42052 2.75631,-1.51891 3.46688,-2.67948 3.48469,-5.69161 0.0108,-1.82892 -0.75109,-2.93868 -2.59402,-3.77838 -2.22959,-1.01587 -2.53229,-1.65775 -2.07988,-4.41052 0.40661,-2.47416 -0.49549,-5.30973 -3.88815,-12.22162 -4.85438,-9.88984 -6.53736,-15.95758 -5.33078,-19.21928 0.43304,-1.17062 3.17702,-3.93059 6.09774,-6.13327 18.52251,-13.9689 27.52114,-21.6436 29.94691,-25.54094 1.48196,-2.38098 3.6325,-4.57435 4.77898,-4.87416 1.71941,-0.44963 2.08451,-1.32587 2.08451,-5.00281 l 0,-4.45769 -4.5984,-0.63028 c -2.52911,-0.34666 -5.67492,-0.36009 -6.99068,-0.0299 -3.35266,0.84147 -3.85756,-1.31276 -1.42567,-6.08278 3.24747,-6.36973 2.77739,-7.66443 -3.91293,-10.77704 -8.18551,-3.80822 -10.5273,-7.71211 -10.70698,-17.84904 -0.11486,-6.48048 -0.53825,-8.20701 -2.88046,-11.74634 -2.24091,-3.38624 -2.65682,-4.93874 -2.26183,-8.44302 0.75566,-6.70422 3.52041,-11.478841 8.25274,-14.252171 3.04191,-1.78268 5.41674,-4.48764 8.53012,-9.7159 6.01826,-10.10637 11.335,-16.14992 19.59649,-22.27536 9.12282,-6.764082 11.65233,-8.031172 19.10612,-9.570732 10.64784,-2.19927 17.77802,1.76639 20.35008,11.318302 1.12582,4.18099 0.90008,11.95224 -0.43244,14.88701 -0.59834,1.3178 0.13933,1.70744 4.12663,2.17967 7.00917,0.83018 13.24722,3.53896 13.24722,5.75246 0,1.80515 -7.5016,5.31359 -14.24496,6.66226 -1.53817,0.30763 -3.05049,0.97003 -3.36072,1.47199 -0.31023,0.50196 -0.75351,6.068841 -0.98506,12.370841 l -0.421,11.45818 2.57161,0 c 5.77448,0 9.3621,3.65144 9.40833,9.57569 0.063,8.07918 -5.87836,10.4533 -25.00917,9.99337 -12.45965,-0.29955 -14.21047,-0.71658 -20.28559,-4.83178 -1.58109,-1.07101 -2.22969,-0.76694 -4.82648,2.26272 -2.65852,3.10168 -2.94894,4.06226 -2.55193,8.44061 0.96783,10.67329 10.79984,13.72093 23.70496,7.34784 3.575,-1.76548 6.8375,-3.37763 7.25,-3.58254 2.07655,-1.03156 0.2878,5.8771 -3.31429,12.80079 l -4.0643,7.81208 4.33874,4.34061 c 2.3863,2.38734 6.54621,7.94061 9.24424,12.34061 2.69803,4.4 6.32957,9.8 8.0701,12 6.10976,7.72266 6.78726,10.96159 3.61661,17.28984 -1.43986,2.87379 -1.74877,5.14872 -1.3703,10.09166 0.54911,7.17159 -0.90688,14.98873 -4.08635,21.93935 -1.87733,4.10405 -2.12447,6.33839 -2.0108,18.17915 0.11117,11.57925 0.49836,14.63822 2.72132,21.5 1.42544,4.4 3.67125,9.87312 4.9907,12.1625 2.35653,4.08884 2.36694,4.21518 0.58866,7.13933 -0.99568,1.63726 -2.38367,3.16795 -3.08444,3.40154 -0.98177,0.32726 -0.82337,1.67196 0.69037,5.86067 2.21727,6.13547 1.81047,6.0191 15.51139,4.43733 8.23332,-0.95054 12.74889,0.41404 16.85838,5.09448 6.338,7.21859 1.92534,18.21719 -9.1679,22.8511 -6.08781,2.54303 -20.34992,2.08329 -29.37687,-0.94695 -4.09605,-1.375 -8.35235,-2.5 -9.45843,-2.5 -4.43691,0 -8.99535,-2.87189 -10.58061,-6.66594 -2.16303,-5.17686 -0.57505,-10.1435 4.68189,-14.64324 3.60587,-3.0865 3.90366,-3.68746 3.00216,-6.05859 -0.56995,-1.49909 -1.77661,-2.63223 -2.80301,-2.63223 -0.99124,0 -2.80238,-0.70052 -4.02475,-1.5567 -2.08162,-1.45803 -2.22758,-2.32966 -2.30253,-13.75 -0.0809,-12.32874 -2.17522,-23.62519 -4.52342,-24.39875 -0.60689,-0.19993 -2.0273,2.23951 -3.15647,5.42097 -4.1281,11.63106 -5.48374,19.49498 -5.62542,32.63251 -0.13153,12.19513 -0.25793,12.94468 -2.4874,14.75 -1.29186,1.04608 -3.43512,1.90197 -4.76281,1.90197 -5.36971,0 -5.17884,8.73194 0.26103,11.94154 1.8729,1.10504 3.84835,3.17454 4.38989,4.59891 1.24077,3.26348 1.27461,8.16229 0.0616,8.912 -0.50769,0.31377 -1.21118,1.88224 -1.56331,3.48549 -0.63943,2.91115 -4.19657,6.06206 -6.84363,6.06206 -0.77018,0 -2.47351,0.84007 -3.78518,1.86682 -4.18566,3.27645 -12.25616,6.90964 -16.38486,7.37616 -2.2,0.24859 -6.79433,0.14075 -10.20962,-0.23964 z m 23.23598,-151.0214 c 0.63144,-2.48493 1.40351,-6.42243 1.7157,-8.75 0.47919,-3.57256 0.2964,-4.23194 -1.17311,-4.23194 -2.49756,0 -11.06895,6.94816 -11.06895,8.97275 0,0.93785 1.2375,3.34801 2.75,5.3559 3.76489,4.998 6.27455,4.56338 7.77636,-1.34671 z m 27.07394,-0.74725 c 4.26863,-2.85024 3.39616,-12.96871 -1.60042,-18.56085 -2.58825,-2.89676 -2.97398,-3.02566 -5.31118,-1.77483 -1.38613,0.74184 -2.777,2.30554 -3.09081,3.47489 -1.02363,3.81425 -0.62734,12.20693 0.65211,13.81065 2.53608,3.17883 6.98438,4.6299 9.3503,3.05014 z m 25.38171,-9.20107 c 2.27271,-4.2466 -2.07051,-16.04182 -6.19971,-16.83703 -2.48257,-0.4781 -3.84565,3.06206 -3.14558,8.16961 1.18186,8.62262 6.65339,13.69727 9.34529,8.66742 z M 516.90289,85.490589 c 3.3,-1.35939 7.2375,-2.48231 8.75,-2.49537 4.23432,-0.0365 6.75,-3.22525 6.75,-8.55585 0,-9.46456 -4.76528,-15.165092 -11.87939,-14.210882 -9.31108,1.24887 -15.12196,6.701642 -15.9128,14.932132 -0.38546,4.01148 -0.0179,5.49951 2.17843,8.81833 1.45318,2.1959 2.97325,3.99046 3.37795,3.98791 0.40469,-0.002 3.43581,-1.11687 6.73581,-2.47627 z m -0.89362,-11.68697 c -0.51485,-6.17352 -0.36683,-8.36731 0.60622,-8.98469 2.24639,-1.42527 2.7874,-0.93469 2.7874,2.52756 0,1.85625 0.2899,4.82452 0.64423,6.59615 0.58711,2.93553 0.90378,3.16925 3.57125,2.63575 4.93999,-0.988 3.04594,2.44792 -2.21548,4.01901 -2.475,0.73905 -4.5478,1.35056 -4.60622,1.35891 -0.0584,0.008 -0.41276,-3.66036 -0.7874,-8.15269 z M 684.42346,364.92205 c -1.36369,-0.58072 -3.16369,-1.67282 -4,-2.42688 -0.83631,-0.75407 -4.1099,-2.33839 -7.27465,-3.52073 -3.16474,-1.18234 -6.20224,-2.9871 -6.75,-4.01059 -0.54775,-1.02348 -1.0028,-4.47796 -1.01122,-7.67662 -0.008,-3.19866 -0.42244,-6.45907 -0.92003,-7.24536 -0.5795,-0.91572 -0.34349,-2.8323 0.65656,-5.33166 1.42781,-3.56846 1.41654,-4.42263 -0.13191,-9.99209 -0.93125,-3.34953 -2.83683,-8.50752 -4.23461,-11.46219 -2.97065,-6.27942 -12.76114,-17.28444 -15.37692,-17.28444 -2.09133,0 -5.94193,6.36527 -8.48829,14.03165 -1.28262,3.86161 -1.55792,7.0053 -1.12036,12.79396 0.31904,4.22092 0.55338,8.34939 0.52073,9.17439 -0.0326,0.825 -0.0206,3.70312 0.0268,6.39582 0.10834,6.15401 -1.09765,7.60418 -6.32376,7.60418 -2.28922,0 -6.84662,0.99345 -10.12756,2.20767 -4.89183,1.81039 -8.12805,2.21529 -17.98321,2.25 l -12.01787,0.0423 -4.21616,-3.5 c -5.58125,-4.63322 -6.70762,-8.08962 -4.76642,-14.62634 1.73958,-5.8578 3.55674,-7.78265 9.04459,-9.58054 2.18555,-0.71601 4.02998,-1.86238 4.09873,-2.54748 0.0687,-0.6851 0.18125,-1.68408 0.25,-2.21996 0.18144,-1.41427 5.62853,-4.02568 8.39708,-4.02568 2.10322,0 2.68502,-0.98951 5.14466,-8.75 1.52529,-4.8125 3.38011,-10.325 4.12182,-12.25 1.92113,-4.98604 1.75945,-9.71329 -0.53906,-15.76073 -1.30682,-3.43827 -1.9995,-7.68199 -1.9995,-12.25 0,-3.8441 -0.12985,-6.98927 -0.28856,-6.98927 -0.15871,0 -2.03373,0.88974 -4.16673,1.97721 -4.3222,2.20358 -7.12634,1.9198 -12.40497,-1.25537 -1.84814,-1.11169 -5.4311,-2.40812 -7.96212,-2.88097 -4.95263,-0.92525 -10.15803,-5.06701 -12.86294,-10.23459 -4.62792,-8.8414 2.4446,-24.78045 12.19701,-27.4879 7.55472,-2.09733 11.87413,-1.47342 16.48831,2.38162 2.98146,2.49094 5.16857,3.5 7.58614,3.5 2.31391,0 3.79513,0.63764 4.64593,2 0.68696,1.1 1.67245,2 2.18997,2 1.71596,0 19.57796,-9.11042 19.57796,-9.98564 0,-0.47259 -1.53521,-1.36592 -3.41157,-1.98518 -3.87102,-1.27755 -5.6576,-4.02918 -2.61606,-4.02918 1.05028,0 2.20583,-0.47931 2.56789,-1.06514 0.42864,-0.69356 1.34924,-0.43985 2.63889,0.72727 2.59752,2.35072 8.68749,2.3105 12.33813,-0.0815 1.75939,-1.15279 4.80766,-1.91368 7.92134,-1.97727 4.69156,-0.0958 5.16412,-0.33669 6.46751,-3.29671 0.77952,-1.77032 2.65859,-3.71214 4.21674,-4.35754 3.4081,-1.41169 4.28728,-3.74015 2.84476,-7.53426 -2.06942,-5.44296 -2.97658,-5.79851 -6.37944,-2.50033 -3.31212,3.21024 -8.42169,5.37471 -15.51807,6.57363 -2.4219,0.40918 -5.79096,1.59006 -7.48679,2.62417 -3.75045,2.28701 -14.03103,2.56311 -18.94755,0.50886 -10.45554,-4.3686 -9.82886,-18.62118 0.81877,-18.62118 2.15913,0 3.5532,-0.48877 3.56526,-1.25 0.0331,-2.09139 1.9902,-15.14068 2.53162,-16.88035 0.4206,-1.35148 -0.63929,-1.75316 -6.19628,-2.34826 -8.36056,-0.89534 -9.35515,-1.27864 -9.35515,-3.60533 0,-2.29806 3.07093,-4.34475 9,-5.99825 5.93951,-1.65642 6.473,-2.24855 6.14306,-6.81826 -0.73964,-10.24393 5.47571,-18.93242 16.51272,-23.08327 4.65267,-1.7498 7.00955,-2.06814 11.55983,-1.56134 7.71847,0.85966 16.43446,3.19047 21.28439,5.69181 9.30183,4.7974 19.26712,15.89637 23.22244,25.86428 0.89982,2.26766 2.81886,4.33153 5.41899,5.82798 6.95082,4.00038 8.86959,14.04481 4.01085,20.99614 -1.4813,2.11929 -1.76766,3.91191 -1.39874,8.75623 0.43805,5.75204 0.28206,6.29848 -2.80014,9.80892 -1.79522,2.04464 -4.95487,4.58012 -7.02143,5.63441 -2.92664,1.49306 -3.64036,2.36442 -3.22805,3.94108 0.42864,1.63913 0.0471,2.02421 -2.0055,2.02421 -3.71654,0 -5.6997,0.99597 -5.68878,2.85699 0.007,1.11353 4.233,3.69145 13.11486,7.99938 7.20787,3.49601 14.85353,7.93587 16.99036,9.86636 3.65434,3.30148 3.88253,3.84467 3.84125,9.14363 -0.0241,3.0985 -0.63666,7.29363 -1.36115,9.3225 -0.72448,2.02887 -0.98031,4.05387 -0.5685,4.5 1.80008,1.95008 1.98083,5.16099 0.38061,6.76121 -1.54775,1.54776 -1.54056,1.9275 0.1057,5.57825 2.11377,4.68751 1.48292,12.09957 -1.35938,15.97168 -3.34025,4.55047 -10.65776,7.26788 -19.90144,7.39055 -4.53642,0.0602 -8.24892,0.13754 -8.25,0.17186 -10e-4,0.0343 1.28349,3.85933 2.85458,8.5 3.60037,10.63473 9.75874,22.93759 11.48173,22.93759 1.99868,0 5.66174,4.35921 5.66174,6.73773 0,1.15985 1.06596,3.38085 2.3688,4.93554 5.58773,6.66791 7.63116,10.61705 7.61475,14.71628 -0.0417,10.41435 -9.16999,17.43703 -23.66121,18.20327 -4.30229,0.22748 -8.93809,-0.0615 -10.30178,-0.64226 z M 665.18611,256.41079 c 3.30102,-2.31213 5.21679,-6.74127 5.21679,-12.0609 0,-6.03311 -1.99717,-8.3784 -7.13476,-8.3784 -3.56503,0 -4.02926,0.35655 -6.83563,5.25 -1.73209,3.02024 -3.01483,6.70914 -3.02023,8.68555 -0.018,6.58207 6.51209,10.18921 11.77383,6.50375 z m -40.4781,-8.23588 c 2.63205,-2.74727 4.68341,-9.79495 3.91567,-13.45274 -0.60745,-2.89411 -4.97161,-3.33339 -7.69532,-0.77459 -3.24406,3.04762 -6.8297,11.67557 -6.08511,14.64225 0.88706,3.53433 6.29923,3.30669 9.86476,-0.41492 z m 68.49489,0.59658 c 0.66,-0.66 1.2,-2.85112 1.2,-4.86916 0,-3.4558 -0.21501,-3.70405 -3.69749,-4.26918 -2.03362,-0.33001 -3.86036,-0.43715 -4.05942,-0.23808 -0.19906,0.19906 0.56481,2.09103 1.69749,4.20437 1.13268,2.11334 2.05942,4.4116 2.05942,5.10724 0,1.59452 1.24155,1.62326 2.8,0.0648 z m -35.17505,-98.4448 c 1.84553,-4.41697 1.10857,-11.61989 -1.65358,-16.16189 -3.32354,-5.46511 -13.59574,-6.63642 -19.24307,-2.19423 -4.81168,3.78487 -7.51489,13.81433 -4.5283,16.80092 0.66,0.66 3.0225,1.23601 5.25,1.28002 2.2275,0.044 6.75,0.89082 10.05,1.88179 8.31811,2.49788 8.41651,2.48227 10.12495,-1.60661 z m -8.52063,-5.8552 c -1.12928,-4.48475 -2.6643,-5.54002 -4.86194,-3.34238 -0.87682,0.87682 -1.5376,0.84226 -2.72416,-0.1425 -0.86161,-0.71507 -1.69735,-1.1235 -1.85722,-0.90762 -0.15987,0.21587 -1.21638,1.90525 -2.3478,3.75417 -3.09097,5.05111 -3.79251,2.01771 -0.86806,-3.75341 2.976,-5.87285 4.08518,-6.76804 5.42613,-4.37929 0.94954,1.69148 1.13271,1.68945 4.07804,-0.0453 l 3.08384,-1.81632 2.85283,6.31632 c 1.97995,4.38374 2.54935,6.69879 1.86098,7.56633 -1.88416,2.37456 -3.51358,1.23391 -4.64264,-3.25 z"
       id="path5792"
       inkscape:connector-curvature="0" />
    <path
       style="fill:#000000"
       d="m 556.66469,649.84805 c -19.36971,-2.29009 -40.41224,-11.2865 -47.80089,-30.78147 -1.39623,-12.77566 -14.43533,-15.69165 -22.85714,-22.75838 -15.19016,-12.16383 -26.08858,-30.99745 -24.71268,-50.89967 -2.05602,-31.43609 11.9676,-61.76419 31.07407,-85.96025 17.86682,-21.6409 43.16998,-38.33081 71.16068,-42.63858 17.66697,-0.31447 36.17066,-2.07131 52.6275,5.83528 40.60361,16.64217 72.02821,54.89665 79.76638,98.148 1.58921,19.0953 3.48845,40.19177 -7.59032,57.02257 -7.79654,13.1882 -19.87466,23.10834 -32.82292,30.94263 -4.94854,8.32216 -6.07642,19.36826 -14.28115,25.93791 -14.90408,14.17345 -36.52653,16.37452 -56.1479,15.79657 -9.46892,0.0152 -18.9753,0.19654 -28.41563,-0.64461 z m 56.51992,-8.2466 c 16.00432,-2.85148 31.59243,-14.60593 33.51741,-31.63553 5.80285,-13.67537 -4.54802,-24.80955 -16.81879,-28.96702 -26.73678,-12.87888 -58.22355,-13.21161 -86.69621,-6.49876 -12.23586,3.53251 -27.15378,8.69436 -31.57853,21.92404 -1.41462,17.67699 9.02676,36.33361 26.37972,41.97246 21.40158,7.48652 44.70877,6.76525 66.99677,4.94756 2.76657,-0.40907 5.49569,-1.03517 8.19963,-1.74275 z m -61.05327,-24.86812 c -5.31066,-11.28807 -4.86258,-26.24663 -0.5068,-37.87408 13.68872,-5.60268 9.11208,18.44433 9.68057,26.50764 0.31562,4.60355 -2.72745,18.21139 -9.17377,11.36644 z m 5.93329,-27.01578 c -0.41759,-13.98549 -6.27652,6.73543 -0.78461,5.87734 0.66042,-1.89014 0.75809,-3.89924 0.78461,-5.87734 z m 44.39051,28.15135 c -7.51281,-8.52392 -3.38428,-22.29629 -3.97467,-32.94735 -0.3352,-13.90742 15.30903,-6.2593 11.93245,3.98811 -1.07582,8.42485 4.08977,28.79724 -7.95778,28.95924 z m 4.60949,-27.12858 c 0.10734,-14.31289 -6.53616,4.30923 -0.81712,4.96141 0.67191,-1.56863 0.79153,-3.28268 0.81712,-4.96141 z m -134.46515,-36.9851 c 15.78254,-20.38469 16.5748,-47.90316 14.00037,-72.51718 -4.27988,-2.51714 -8.70386,13.77125 -11.71029,19.0205 -7.1567,17.94562 -10.91235,37.90196 -7.33464,57.07782 1.27317,2.00554 3.89985,-3.27284 5.04456,-3.58114 z M 691.99233,538.269 c 0.22792,-22.13886 -9.13359,-42.75194 -19.41239,-61.86047 -0.82112,17.05253 -1.76461,34.52636 2.077,51.2619 2.8456,10.70891 7.8717,20.82037 15.923,28.54829 0.90778,-5.94219 1.36757,-11.93749 1.41239,-17.94972 z m -101.79711,-4.79742 c 18.44803,-4.28125 35.45763,-16.95299 41.40733,-35.41428 7.77102,-20.24635 1.80517,-44.69369 -14.93204,-58.66 -20.69268,-20.10939 -57.30381,-19.2295 -77.18394,1.65266 -18.23843,17.40956 -21.5129,47.6122 -7.13527,68.36645 12.084,18.80414 35.93484,29.00955 57.84392,24.05517 z"
       id="path5882"
       inkscape:connector-curvature="0" />
  </g>
</svg>
