<?xml version="1.0" encoding="UTF-8" standalone="no"?>
<!-- Created with Inkscape (http://www.inkscape.org/) -->

<svg
   xmlns:dc="http://purl.org/dc/elements/1.1/"
   xmlns:cc="http://creativecommons.org/ns#"
   xmlns:rdf="http://www.w3.org/1999/02/22-rdf-syntax-ns#"
   xmlns:svg="http://www.w3.org/2000/svg"
   xmlns="http://www.w3.org/2000/svg"
   xmlns:sodipodi="http://sodipodi.sourceforge.net/DTD/sodipodi-0.dtd"
   xmlns:inkscape="http://www.inkscape.org/namespaces/inkscape"
   width="210mm"
   height="297mm"
   viewBox="0 0 744.09448819 1052.3622047"
   id="svg2"
   version="1.1"
   inkscape:version="0.91 r13725"
   sodipodi:docname="gamepads.svg">
  <defs
     id="defs4" />
  <sodipodi:namedview
     id="base"
     pagecolor="#ffffff"
     bordercolor="#666666"
     borderopacity="1.0"
     inkscape:pageopacity="0.0"
     inkscape:pageshadow="2"
     inkscape:zoom="0.84493736"
     inkscape:cx="210.6055"
     inkscape:cy="547.55666"
     inkscape:document-units="px"
     inkscape:current-layer="layer2"
     showgrid="false"
     inkscape:snap-nodes="false"
     inkscape:window-width="1920"
     inkscape:window-height="1009"
     inkscape:window-x="1280"
     inkscape:window-y="0"
     inkscape:window-maximized="1" />
  <metadata
     id="metadata7">
    <rdf:RDF>
      <cc:Work
         rdf:about="">
        <dc:format>image/svg+xml</dc:format>
        <dc:type
           rdf:resource="http://purl.org/dc/dcmitype/StillImage" />
        <dc:title />
      </cc:Work>
    </rdf:RDF>
  </metadata>
  <g
     inkscape:groupmode="layer"
     id="layer2"
     inkscape:label="wk"
     style="opacity:1">
    <g
       id="g5205"
       transform="translate(-256.43724,-461.95489)"
       style="">
      <path
         id="rect5127"
         d="m 318.99219,521.10938 c -5.09997,0 -9.20508,3.919 -9.20508,8.7871 l 0,67.93555 c 0,4.8681 4.10511,8.78711 9.20508,8.78711 l 164.14648,0 c 5.09997,0 9.20508,-3.91901 9.20508,-8.78711 l 0,-67.93555 c 0,-4.8681 -4.10511,-8.7871 -9.20508,-8.7871 l -164.14648,0 z m 9.54101,10.13476 145.0625,0 c 5.09997,0 9.20703,3.59575 9.20703,8.0625 l 0,49.11524 c 0,4.46675 -4.10706,8.0625 -9.20703,8.0625 l -145.0625,0 c -5.09996,0 -9.20508,-3.59575 -9.20508,-8.0625 l 0,-49.11524 c 0,-4.46675 4.10512,-8.0625 9.20508,-8.0625 z"
         style="opacity:1;fill:#000000;fill-opacity:1;fill-rule:nonzero;stroke:none;stroke-width:1;stroke-linecap:round;stroke-linejoin:round;stroke-miterlimit:4;stroke-dasharray:none;stroke-dashoffset:0;stroke-opacity:1"
         inkscape:connector-curvature="0" />
      <path
         inkscape:connector-curvature="0"
         id="rect5137"
         d="m 338.33935,552.91697 c -1.06547,0 -1.92383,0.85837 -1.92383,1.92383 l 0,6.95313 -6.95313,0 c -1.06546,0 -1.92383,0.8564 -1.92383,1.92187 l 0,11.24414 c 10e-6,1.06547 0.85837,1.92383 1.92383,1.92383 l 6.95313,0 0,6.95313 c 0,1.06547 0.85836,1.92187 1.92383,1.92187 l 11.24218,0 c 1.06547,0 1.92383,-0.8564 1.92383,-1.92187 l 0,-6.95313 6.95313,0 c 1.06547,0 1.92383,-0.85836 1.92383,-1.92383 l 0,-11.24414 c 0,-1.06547 -0.85836,-1.92187 -1.92383,-1.92187 l -6.95313,0 0,-6.95313 c 0,-1.06546 -0.85836,-1.92383 -1.92383,-1.92383 l -11.24218,0 z m 0.85937,2.51563 9.52149,0 c 0.90229,0 1.6289,0.72662 1.6289,1.6289 l 0,5.88672 5.88867,0 c 0.90229,0 1.62891,0.72662 1.62891,1.62891 l 0,9.52148 c 0,0.90229 -0.72662,1.62891 -1.62891,1.62891 l -5.88867,0 0,5.88867 c 0,0.90229 -0.72661,1.62891 -1.6289,1.62891 l -9.52149,0 c -0.90229,0 -1.62695,-0.72662 -1.62695,-1.62891 l 0,-5.88867 -5.88867,0 c -0.90228,0 -1.62891,-0.72662 -1.62891,-1.62891 l 0,-9.52148 c 0,-0.90229 0.72663,-1.62891 1.62891,-1.62891 l 5.88867,0 0,-5.88672 c 0,-0.90228 0.72466,-1.6289 1.62695,-1.6289 z"
         style="opacity:1;fill:#000000;fill-opacity:1;fill-rule:nonzero;stroke:none;stroke-width:1;stroke-linecap:round;stroke-linejoin:round;stroke-miterlimit:4;stroke-dasharray:none;stroke-dashoffset:0;stroke-opacity:1" />
      <g
         transform="translate(-9.2011931e-7,-0.2962115)"
         id="g5163"
         style="">
        <path
           sodipodi:type="star"
           style="opacity:1;fill:#000000;fill-opacity:1;fill-rule:nonzero;stroke:none;stroke-width:1;stroke-linecap:round;stroke-linejoin:round;stroke-miterlimit:4;stroke-dasharray:none;stroke-dashoffset:0;stroke-opacity:1"
           id="path5151"
           sodipodi:sides="3"
           sodipodi:cx="343.5166"
           sodipodi:cy="562.23712"
           sodipodi:r1="4.0622921"
           sodipodi:r2="2.0729187"
           sodipodi:arg1="2.1486983"
           sodipodi:arg2="3.1958958"
           inkscape:flatsided="false"
           inkscape:rounded="0"
           inkscape:randomized="0"
           d="m 341.2975,565.63974 0.14924,-3.51513 0.23266,-3.51059 2.96957,1.8868 2.92394,1.95679 -3.11881,1.62832 z"
           inkscape:transform-center-x="-0.020529478"
           inkscape:transform-center-y="-0.99463724"
           transform="matrix(0.89641347,0.44321878,-0.44321878,0.89641347,285.20105,-95.936037)" />
        <path
           transform="matrix(0.89641347,-0.44321878,-0.44321878,-0.89641347,285.20105,1235.2042)"
           inkscape:transform-center-y="0.9945982"
           inkscape:transform-center-x="-0.020529478"
           d="m 341.2975,565.63974 0.14924,-3.51513 0.23266,-3.51059 2.96957,1.8868 2.92394,1.95679 -3.11881,1.62832 z"
           inkscape:randomized="0"
           inkscape:rounded="0"
           inkscape:flatsided="false"
           sodipodi:arg2="3.1958958"
           sodipodi:arg1="2.1486983"
           sodipodi:r2="2.0729187"
           sodipodi:r1="4.0622921"
           sodipodi:cy="562.23712"
           sodipodi:cx="343.5166"
           sodipodi:sides="3"
           id="path5153"
           style="opacity:1;fill:#000000;fill-opacity:1;fill-rule:nonzero;stroke:none;stroke-width:1;stroke-linecap:round;stroke-linejoin:round;stroke-miterlimit:4;stroke-dasharray:none;stroke-dashoffset:0;stroke-opacity:1"
           sodipodi:type="star" />
      </g>
      <g
         transform="translate(-9.299665,-9.6369609)"
         id="g5159"
         style="">
        <path
           transform="matrix(-0.44321878,0.89641347,-0.89641347,-0.44321878,1018.8302,520.21544)"
           inkscape:transform-center-y="0.020531401"
           inkscape:transform-center-x="-0.99458928"
           d="m 341.2975,565.63974 0.14924,-3.51513 0.23266,-3.51059 2.96957,1.8868 2.92394,1.95679 -3.11881,1.62832 z"
           inkscape:randomized="0"
           inkscape:rounded="0"
           inkscape:flatsided="false"
           sodipodi:arg2="3.1958958"
           sodipodi:arg1="2.1486983"
           sodipodi:r2="2.0729187"
           sodipodi:r1="4.0622921"
           sodipodi:cy="562.23712"
           sodipodi:cx="343.5166"
           sodipodi:sides="3"
           id="path5155"
           style="opacity:1;fill:#000000;fill-opacity:1;fill-rule:nonzero;stroke:none;stroke-width:1;stroke-linecap:round;stroke-linejoin:round;stroke-miterlimit:4;stroke-dasharray:none;stroke-dashoffset:0;stroke-opacity:1"
           sodipodi:type="star" />
        <path
           sodipodi:type="star"
           style="opacity:1;fill:#000000;fill-opacity:1;fill-rule:nonzero;stroke:none;stroke-width:1;stroke-linecap:round;stroke-linejoin:round;stroke-miterlimit:4;stroke-dasharray:none;stroke-dashoffset:0;stroke-opacity:1"
           id="path5157"
           sodipodi:sides="3"
           sodipodi:cx="343.5166"
           sodipodi:cy="562.23712"
           sodipodi:r1="4.0622921"
           sodipodi:r2="2.0729187"
           sodipodi:arg1="2.1486983"
           sodipodi:arg2="3.1958958"
           inkscape:flatsided="false"
           inkscape:rounded="0"
           inkscape:randomized="0"
           d="m 341.2975,565.63974 0.14924,-3.51513 0.23266,-3.51059 2.96957,1.8868 2.92394,1.95679 -3.11881,1.62832 z"
           inkscape:transform-center-x="0.99459916"
           inkscape:transform-center-y="0.020531401"
           transform="matrix(0.44321878,0.89641347,0.89641347,-0.44321878,-312.30999,520.21544)" />
      </g>
      <rect
         ry="1.92322"
         y="527.17535"
         x="373.84448"
         height="15.533696"
         width="54.441906"
         id="rect5167"
         style="opacity:1;fill:#000000;fill-opacity:1;fill-rule:nonzero;stroke:none;stroke-width:1;stroke-linecap:round;stroke-linejoin:round;stroke-miterlimit:4;stroke-dasharray:none;stroke-dashoffset:0;stroke-opacity:1" />
      <rect
         style="opacity:1;fill:#000000;fill-opacity:1;fill-rule:nonzero;stroke:none;stroke-width:1;stroke-linecap:round;stroke-linejoin:round;stroke-miterlimit:4;stroke-dasharray:none;stroke-dashoffset:0;stroke-opacity:1"
         id="rect5171"
         width="54.441906"
         height="5.0299587"
         x="373.84448"
         y="547.73901"
         ry="0.62275696" />
      <rect
         ry="0.62275696"
         y="558.09479"
         x="373.84448"
         height="5.0299587"
         width="54.441906"
         id="rect5175"
         style="opacity:1;fill:#000000;fill-opacity:1;fill-rule:nonzero;stroke:none;stroke-width:1;stroke-linecap:round;stroke-linejoin:round;stroke-miterlimit:4;stroke-dasharray:none;stroke-dashoffset:0;stroke-opacity:1" />
      <path
         id="rect5177"
         d="m 376.15234,568.45117 c -1.27855,0 -2.30859,1.02809 -2.30859,2.30664 l 0,14.02539 c 0,1.27856 1.03004,2.3086 2.30859,2.3086 l 49.82618,0 c 1.27855,0 2.30859,-1.03004 2.30859,-2.3086 l 0,-14.02539 c 0,-1.27855 -1.03004,-2.30664 -2.30859,-2.30664 l -49.82618,0 z m 4.12696,7.17383 15.23828,0 c 1.1884,0 2.14453,0.95808 2.14453,2.14648 0,1.1884 -0.95613,2.14454 -2.14453,2.14454 l -15.23828,0 c -1.1884,0 -2.14453,-0.95614 -2.14453,-2.14454 0,-1.1884 0.95613,-2.14648 2.14453,-2.14648 z m 26.33398,0 15.23828,0 c 1.1884,0 2.14453,0.95808 2.14453,2.14648 0,1.1884 -0.95613,2.14454 -2.14453,2.14454 l -15.23828,0 c -1.1884,0 -2.14453,-0.95614 -2.14453,-2.14454 0,-1.1884 0.95613,-2.14648 2.14453,-2.14648 z"
         style="opacity:1;fill:#000000;fill-opacity:1;fill-rule:nonzero;stroke:none;stroke-width:1;stroke-linecap:round;stroke-linejoin:round;stroke-miterlimit:4;stroke-dasharray:none;stroke-dashoffset:0;stroke-opacity:1"
         inkscape:connector-curvature="0" />
      <rect
         style="opacity:1;fill:#000000;fill-opacity:1;fill-rule:nonzero;stroke:none;stroke-width:1;stroke-linecap:round;stroke-linejoin:round;stroke-miterlimit:4;stroke-dasharray:none;stroke-dashoffset:0;stroke-opacity:1"
         id="rect5193"
         width="54.441906"
         height="14.202236"
         x="373.84448"
         y="592.12103"
         ry="1.7583727" />
      <path
         id="rect5195"
         d="m 435.37109,568.59766 c -0.97413,0 -1.75976,0.78562 -1.75976,1.75976 l 0,14.82813 c 0,0.97413 0.78563,1.75781 1.75976,1.75781 l 38.05274,0 c 0.97414,0 1.75976,-0.78368 1.75976,-1.75781 l 0,-14.82813 c 0,-0.97414 -0.78562,-1.75976 -1.75976,-1.75976 l -38.05274,0 z m 9.92774,3.10742 a 5.9175982,5.9175982 0 0 1 5.91797,5.91797 5.9175982,5.9175982 0 0 1 -5.91797,5.91797 5.9175982,5.9175982 0 0 1 -5.91797,-5.91797 5.9175982,5.9175982 0 0 1 5.91797,-5.91797 z m 18.04883,0.14844 a 5.9175982,5.9175982 0 0 1 5.91796,5.91601 5.9175982,5.9175982 0 0 1 -5.91796,5.91797 5.9175982,5.9175982 0 0 1 -5.91797,-5.91797 5.9175982,5.9175982 0 0 1 5.91797,-5.91601 z"
         style="opacity:1;fill:#000000;fill-opacity:1;fill-rule:nonzero;stroke:none;stroke-width:1;stroke-linecap:round;stroke-linejoin:round;stroke-miterlimit:4;stroke-dasharray:none;stroke-dashoffset:0;stroke-opacity:1"
         inkscape:connector-curvature="0" />
    </g>
    <path
       style="opacity:1;fill:#000000;fill-opacity:1;fill-rule:nonzero;stroke:none;stroke-width:1;stroke-linecap:round;stroke-linejoin:round;stroke-miterlimit:4;stroke-dasharray:none;stroke-dashoffset:0;stroke-opacity:1"
       d="m 81.365494,181.35798 c -0.0947,0 -0.18319,0.024 -0.26172,0.0644 -25.54416,0.41444 -46.03346,20.74448 -46.04492,45.6875 8e-5,25.24695 20.96328,45.71272 46.82226,45.71289 11.23109,-0.0202 22.081176,-3.98077 30.570306,-11.16015 l 64.3086,0 c 8.50104,7.18943 19.36837,11.15062 30.61523,11.16015 25.85896,-1.7e-4 46.82221,-20.46594 46.82227,-45.71289 -9e-5,-25.24695 -20.96331,-45.71465 -46.82227,-45.71484 -0.88787,0.006 -1.77411,0.0384 -2.66015,0.0937 -0.0986,-0.0807 -0.22341,-0.13086 -0.36133,-0.13086 l -122.988276,0 z m 125.601556,3.81055 c 22.47657,-9e-5 40.69732,18.2207 40.69727,40.69726 9e-5,22.47656 -18.2207,40.69736 -40.69727,40.69727 -22.47656,9e-5 -40.69737,-18.22071 -40.69727,-40.69727 -1e-4,-22.47656 18.22071,-40.69735 40.69727,-40.69726 z m -0.0273,13.94922 c -1.94595,-0.0435 -3.94219,0.5602 -5.64258,1.85351 l -22.75977,17.31055 c -3.88656,2.95622 -4.7149,8.35897 -1.85937,12.11328 l 1.32226,1.74023 c 2.85537,3.7544 8.28333,4.39559 12.16992,1.43946 l 22.75977,-17.31055 c 3.88656,-2.95621 4.71491,-8.35702 1.85938,-12.11133 l -1.32227,-1.74023 c -1.60616,-2.11186 -4.02542,-3.23901 -6.52734,-3.29492 z M 81.744434,199.4615 c 13.83182,-3e-4 25.044886,11.21114 25.044926,25.04296 -5e-5,13.83183 -11.213106,25.04526 -25.044926,25.04493 -13.83158,-3e-5 -25.04292,-11.21334 -25.04297,-25.04493 5e-5,-13.83158 11.21139,-25.04291 25.04297,-25.04296 z m 122.513666,4.55078 a 6.5446594,6.5446594 0 0 1 5.53711,2.57617 6.5446594,6.5446594 0 0 1 -1.25195,9.16992 6.5446594,6.5446594 0 0 1 -9.16992,-1.25 6.5446594,6.5446594 0 0 1 1.25195,-9.17187 6.5446594,6.5446594 0 0 1 3.63281,-1.32422 z M 76.431934,206.6822 c -0.31687,0 -0.57031,0.25539 -0.57031,0.57226 l 0,11.67774 -11.67773,0 c -0.31688,0 -0.57422,0.25539 -0.57422,0.57226 l 0,10.83399 c 0,0.31687 0.25734,0.57226 0.57422,0.57227 l 11.67773,0 0,11.67773 c 0,0.31687 0.25344,0.57226 0.57031,0.57227 l 10.83399,0 c 0.31685,0 0.57226,-0.2554 0.57226,-0.57227 l 0,-11.67773 11.677738,0 c 0.31686,0 0.572258,-0.2554 0.572258,-0.57227 l 0,-10.83399 c 0,-0.31686 -0.255398,-0.57226 -0.572258,-0.57226 l -11.677738,0 0,-11.67774 c 0,-0.31686 -0.25541,-0.57225 -0.57226,-0.57226 l -10.83399,0 z m 151.488276,8.79687 c -1.94595,-0.0435 -3.94024,0.56021 -5.64062,1.85352 l -22.75977,17.31055 c -3.88652,2.95622 -4.71683,8.35895 -1.86132,12.11328 l 1.32226,1.74023 c 2.85541,3.75443 8.28529,4.39561 12.17188,1.43946 l 22.75781,-17.31055 c 3.88653,-2.95621 4.71683,-8.35702 1.86133,-12.11133 l -1.32227,-1.74023 c -1.60615,-2.11186 -4.02738,-3.23902 -6.5293,-3.29493 z m -41.36328,1.98438 a 6.5446594,6.5446594 0 0 1 5.53711,2.57617 6.5446594,6.5446594 0 0 1 -1.25,9.16992 6.5446594,6.5446594 0 0 1 -9.17187,-1.24804 6.5446594,6.5446594 0 0 1 1.25195,-9.17188 6.5446594,6.5446594 0 0 1 3.63281,-1.32617 z m 38.68164,2.91016 a 6.5446594,6.5446594 0 0 1 5.53711,2.57617 6.5446594,6.5446594 0 0 1 -1.25,9.16992 6.5446594,6.5446594 0 0 1 -9.16992,-1.25 6.5446594,6.5446594 0 0 1 1.25,-9.16992 6.5446594,6.5446594 0 0 1 3.63281,-1.32617 z m -96.1875,4.02539 c 0.8368,-0.0107 1.61302,0.29421 2.13477,0.91601 1.04351,1.2436 0.658,3.27232 -0.86328,4.54883 l -8.33399,6.99219 c -1.52128,1.27651 -3.5854,1.30415 -4.6289,0.0605 -1.04351,-1.2436 -0.65801,-3.27427 0.86328,-4.55078 l 8.33398,-6.99218 c 0.76065,-0.63826 1.65735,-0.96388 2.49414,-0.97461 z m 20.71094,0 c 0.8368,-0.0107 1.61301,0.29421 2.13477,0.91601 1.0435,1.2436 0.65995,3.27232 -0.86133,4.54883 l -8.33399,6.99219 c -1.52128,1.27651 -3.58735,1.30219 -4.63086,0.0586 -1.0435,-1.2436 -0.658,-3.27232 0.86329,-4.54883 l 8.33398,-6.99218 c 0.76064,-0.63826 1.65734,-0.96388 2.49414,-0.97461 z m 57.77539,9.42578 a 6.5446594,6.5446594 0 0 1 0.002,0 6.5446594,6.5446594 0 0 1 5.53515,2.57812 6.5446594,6.5446594 0 0 1 -1.25,9.16992 6.5446594,6.5446594 0 0 1 -9.16992,-1.25 6.5446594,6.5446594 0 0 1 1.25,-9.17187 6.5446594,6.5446594 0 0 1 3.63281,-1.32617 z"
       id="path5345"
       inkscape:connector-curvature="0" />
    <path
       style="opacity:1;fill:#000000;fill-opacity:1;fill-rule:nonzero;stroke:none;stroke-width:2;stroke-linecap:round;stroke-linejoin:round;stroke-miterlimit:4;stroke-dasharray:none;stroke-dashoffset:0;stroke-opacity:1"
       d="m 142.71024,307.50948 c -23.47789,0 -42.37928,7.48416 -42.37928,16.78141 0,0.2087 0.0213,0.41533 0.0403,0.62215 l -5.371128,0 c -29.48183,0 -53.216634,17.85557 -53.216634,40.03501 l 0,6.23386 c 0,2.18807 0.234501,4.33317 0.679221,6.42408 -1.84551,9.48243 -2.83017,20.52546 -2.836623,31.81271 -2.2e-5,32.50454 7.942663,58.85458 17.740369,58.85408 9.797265,-0.002 17.739421,-26.35072 20.806387,-42.21814 3.066965,-15.86742 9.797437,-14.33625 16.82728,-14.83773 16.077848,-1.14689 20.419018,9.94038 24.336788,38.71572 0,33.00353 11.27971,59.57359 25.29127,59.57359 14.01156,0 25.29127,-26.57006 25.29127,-59.57359 3.00762,-26.71091 2.76959,-37.54347 20.50091,-38.71572 8.53595,-0.56431 16.61837,-1.51253 20.17414,14.59603 3.55579,16.10855 11.49813,42.45829 21.2954,42.45984 9.79769,5e-4 17.74038,-26.34954 17.74037,-58.85408 -0.006,-16.84659 -2.18803,-32.87685 -5.99329,-44.03202 l 0,-0.43863 c 0,-22.17944 -23.73481,-40.03501 -53.21662,-40.03501 l -5.37001,0 c 0.019,-0.20682 0.0392,-0.41346 0.0392,-0.62215 0,-9.29725 -18.90139,-16.78141 -42.37929,-16.78141 z m 70.05174,38.30954 a 5.5940094,5.5940094 0 0 1 5.5938,5.59492 5.5940094,5.5940094 0 0 1 -5.5938,5.59379 5.5940094,5.5940094 0 0 1 -5.5938,-5.59379 5.5940094,5.5940094 0 0 1 5.5938,-5.59492 z M 80.345907,347.37665 A 21.816595,21.816595 0 0 1 102.16274,369.19348 21.816595,21.816595 0 0 1 80.345907,391.0103 21.816595,21.816595 0 0 1 58.52907,369.19348 21.816595,21.816595 0 0 1 80.345907,347.37665 Z m -3.776576,6.13651 c -0.842525,0 -1.521822,0.67816 -1.521822,1.52069 l 0,8.86235 -8.861232,0 c -0.842536,0 -1.52069,0.67816 -1.52069,1.5207 l 0,7.55314 c 0,0.84254 0.678154,1.5207 1.52069,1.5207 l 8.861232,0 0,8.86236 c 0,0.84252 0.679297,1.5207 1.521822,1.5207 l 7.552021,0 c 0.842536,0 1.521822,-0.67818 1.521822,-1.5207 l 0,-8.86236 8.861228,0 c 0.84254,0 1.52074,-0.67816 1.5207,-1.5207 l 0,-7.55314 c 0,-0.84254 -0.67816,-1.5207 -1.5207,-1.5207 l -8.861228,0 0,-8.86235 c 0,-0.84253 -0.679286,-1.52075 -1.521822,-1.52069 l -7.552021,0 z m 123.986779,4.51174 a 5.5940094,5.5940094 0 0 1 5.59492,5.5938 5.5940094,5.5940094 0 0 1 -5.59492,5.59379 5.5940094,5.5940094 0 0 1 -5.5938,-5.59379 5.5940094,5.5940094 0 0 1 5.5938,-5.5938 z m 24.41062,0 a 5.5940094,5.5940094 0 0 1 5.5938,5.5938 5.5940094,5.5940094 0 0 1 -5.5938,5.59379 5.5940094,5.5940094 0 0 1 -5.59379,-5.59379 5.5940094,5.5940094 0 0 1 5.59379,-5.5938 z m -41.36211,11.01863 a 8.1367411,8.1367411 0 0 1 8.13725,8.13613 8.1367411,8.1367411 0 0 1 -8.13725,8.13725 8.1367411,8.1367411 0 0 1 -8.13613,-8.13725 8.1367411,8.1367411 0 0 1 8.13613,-8.13613 z m -38.97645,0.93882 a 8.6902498,8.6902498 0 0 1 8.69004,8.69116 8.6902498,8.6902498 0 0 1 -8.69004,8.69003 8.6902498,8.6902498 0 0 1 -8.69002,-8.69003 8.6902498,8.6902498 0 0 1 8.69002,-8.69116 z m 68.13381,0.2473 a 5.5940094,5.5940094 0 0 1 5.5938,5.5938 5.5940094,5.5940094 0 0 1 -5.5938,5.5938 5.5940094,5.5940094 0 0 1 -5.5938,-5.5938 5.5940094,5.5940094 0 0 1 5.5938,-5.5938 z m -15.25622,13.05295 a 8.1367411,8.1367411 0 0 1 8.13613,8.13613 8.1367411,8.1367411 0 0 1 -8.13613,8.13725 8.1367411,8.1367411 0 0 1 -8.13725,-8.13725 8.1367411,8.1367411 0 0 1 8.13725,-8.13613 z m -52.87759,16.18722 a 20.8566,20.8566 0 0 1 20.85675,20.85674 20.8566,20.8566 0 0 1 -20.85675,20.85674 20.8566,20.8566 0 0 1 -20.85674,-20.85674 20.8566,20.8566 0 0 1 20.85674,-20.85674 z m -0.7195,9.34911 a 11.267358,11.267358 0 0 0 -11.26705,11.26704 11.267358,11.267358 0 0 0 11.26705,11.26817 11.267358,11.267358 0 0 0 11.26817,-11.26817 11.267358,11.267358 0 0 0 -11.26817,-11.26704 z"
       id="rect4223"
       inkscape:connector-curvature="0" />
    <path
       style="opacity:1;fill:#000000;fill-opacity:1;fill-rule:evenodd;stroke:none;stroke-width:1px;stroke-linecap:butt;stroke-linejoin:miter;stroke-opacity:1"
       d="m 443.80874,169.05045 c -31.99223,0.91887 -66.80538,8.12381 -96.46662,33.01782 -26.12882,31.65148 7.30127,91.49521 34.42264,90.6226 19.78397,-2.67314 9.31906,-17.30281 29.73946,-28.33402 18.68935,-7.36077 42.65767,-9.3661 64.60906,0 20.4204,11.03121 9.95486,25.66088 29.73884,28.33402 27.12133,0.87261 60.55142,-58.97112 34.42263,-90.6226 -29.66123,-24.89401 -64.47377,-32.09895 -96.46601,-33.01782 z m 53.23409,23.40176 c 0.88821,-0.0218 1.74176,0.48052 2.13093,1.344 0.51887,1.15132 0.01,2.49566 -1.14169,3.01454 l -15.211,6.85507 c -1.15133,0.51888 -2.49567,0.01 -3.01454,-1.14165 -0.51886,-1.15132 -0.01,-2.49567 1.14166,-3.01454 l 15.21038,-6.85508 c 0.28784,-0.12972 0.5882,-0.19509 0.88426,-0.20234 z m -109.83871,6.33835 a 28.032914,28.032914 0 0 1 28.03242,28.03306 28.032914,28.032914 0 0 1 -28.03242,28.03308 28.032914,28.032914 0 0 1 -28.03307,-28.03308 28.032914,28.032914 0 0 1 28.03307,-28.03306 z m 139.68573,6.05277 c 2.57951,-0.0463 5.07357,1.35793 6.31404,3.82517 l 3.92375,7.80401 c 1.72585,3.43268 0.35157,7.58544 -3.08112,9.31126 l -54.31618,27.30826 c -3.43269,1.72583 -7.58543,0.35219 -9.31129,-3.0805 l -3.92376,-7.80464 c -1.72585,-3.43269 -0.35156,-7.58545 3.08113,-9.31128 l 54.3162,-27.30824 c 0.96545,-0.4854 1.98789,-0.72589 2.99723,-0.74404 z m -143.10556,4.01151 c -0.58125,0 -1.04946,0.46821 -1.04946,1.04945 l 0,6.14242 c -0.87178,1.18318 -1.7532,2.28307 -2.53817,3.07473 -0.83529,0.8424 -2.01035,1.79416 -3.26812,2.73152 l -6.14241,0 c -0.58122,0 -1.0488,0.46822 -1.0488,1.04946 l 0,7.40765 c 0,0.58124 0.46758,1.04881 1.0488,1.04881 l 6.14241,0 c 1.18322,0.87178 2.28311,1.75384 3.07476,2.53881 0.84245,0.83532 1.79411,2.01027 2.73153,3.26809 l 0,6.14179 c 0,0.58124 0.46821,1.04945 1.04946,1.04945 l 7.40765,0 c 0.58122,0 1.04881,-0.46821 1.04881,-1.04945 l 0,-6.14179 c 0.87184,-1.1833 1.75374,-2.283 2.53878,-3.07472 0.83529,-0.84241 2.01035,-1.79482 3.26812,-2.73218 l 6.1424,0 c 0.58126,0 1.04882,-0.46757 1.04882,-1.04881 l 0,-7.40765 c 0,-0.58124 -0.46756,-1.04944 -1.04882,-1.04946 l -6.1424,0 c -1.18332,-0.87184 -2.283,-1.75312 -3.07473,-2.53816 -0.84241,-0.83528 -1.79482,-2.01033 -2.73217,-3.26809 l 0,-6.14242 c 0,-0.58124 -0.46759,-1.04945 -1.04881,-1.04945 l -7.40765,0 z m 142.22706,0.17159 a 8.293474,8.293474 0 0 0 -4.00827,0.87913 8.293474,8.293474 0 0 0 -3.6843,11.13486 8.293474,8.293474 0 0 0 11.13484,3.6843 8.293474,8.293474 0 0 0 3.6843,-11.13485 8.293474,8.293474 0 0 0 -7.12657,-4.56344 z m -22.92216,11.5248 a 8.293474,8.293474 0 0 0 -4.00893,0.87914 8.293474,8.293474 0 0 0 -3.68431,11.13485 8.293474,8.293474 0 0 0 11.13551,3.68429 8.293474,8.293474 0 0 0 3.6843,-11.13485 8.293474,8.293474 0 0 0 -7.12657,-4.56343 z m -22.92283,11.5248 a 8.293474,8.293474 0 0 0 -4.00826,0.87849 8.293474,8.293474 0 0 0 -3.68432,11.13549 8.293474,8.293474 0 0 0 11.13484,3.6843 8.293474,8.293474 0 0 0 3.68432,-11.13549 8.293474,8.293474 0 0 0 -7.12658,-4.56279 z"
       id="path4207"
       inkscape:connector-curvature="0" />
    <path
       style="opacity:1;fill:#000000;fill-opacity:1;fill-rule:nonzero;stroke:none;stroke-width:2;stroke-linecap:round;stroke-linejoin:round;stroke-miterlimit:4;stroke-dasharray:none;stroke-dashoffset:0;stroke-opacity:1"
       d="m 347.36917,61.190754 c -2.15372,0 -3.88691,1.73318 -3.88691,3.886908 l 0,77.373928 c 0,2.15372 1.73319,3.88689 3.88691,3.88691 l 196.65638,0 c 2.15372,0 3.88816,-1.73319 3.88816,-3.88691 l 0,-77.373928 c 0,-2.153728 -1.73444,-3.886908 -3.88816,-3.886908 l -196.65638,0 z m 18.58456,10.050886 59.35769,0 c 1.20819,0 2.18068,0.972489 2.18068,2.180674 l 0,59.356436 c 0,1.20819 -0.97249,2.18193 -2.18068,2.18193 l -59.35769,0 c -1.20819,0 -2.18067,-0.97374 -2.18067,-2.18193 l 0,-59.356436 c 0,-1.208185 0.97248,-2.180674 2.18067,-2.180674 z m 19.73499,8.059231 c -7.6758,0 -13.85518,6.179373 -13.85518,13.855178 l 0,19.888961 c 0,7.67581 6.17938,13.85518 13.85518,13.85518 l 19.88896,0 c 7.67581,0 13.85518,-6.17937 13.85518,-13.85518 l 0,-19.888961 c 0,-7.675805 -6.17937,-13.855178 -13.85518,-13.855178 l -19.88896,0 z m 9.94449,2.976841 c 0.76168,0 1.3745,0.612815 1.3745,1.3745 l 0,4.835791 c 0,0.761692 -0.61283,1.375751 -1.3745,1.375751 -0.7617,0 -1.37451,-0.614059 -1.37451,-1.375751 l 0,-4.835791 c 0,-0.761685 0.61281,-1.3745 1.37451,-1.3745 z m 0,13.427053 a 7.3959332,7.3959332 0 0 1 7.39576,7.395765 7.3959332,7.3959332 0 0 1 -7.39576,7.39577 7.3959332,7.3959332 0 0 1 -7.39703,-7.39577 7.3959332,7.3959332 0 0 1 7.39703,-7.395765 z m 75.08308,2.580007 31.64609,0 0,31.646088 -31.64609,0 0,-31.646088 z m 34.98845,0 31.64609,0 0,31.646088 -31.64609,0 0,-31.646088 z m -129.51986,3.441258 4.8358,0 c 0.76168,0 1.37575,0.61281 1.37575,1.3745 0,0.76169 -0.61407,1.3745 -1.37575,1.3745 l -4.8358,0 c -0.76169,0 -1.3745,-0.61281 -1.3745,-1.3745 0,-0.76169 0.61281,-1.3745 1.3745,-1.3745 z m 34.06085,0 4.83579,0 c 0.76169,0 1.37451,0.61281 1.37451,1.3745 0,0.76169 -0.61282,1.3745 -1.37451,1.3745 l -4.83579,0 c -0.76168,0 -1.37575,-0.61281 -1.37575,-1.3745 0,-0.76169 0.61407,-1.3745 1.37575,-1.3745 z m 76.29361,1.47715 a 10.904261,10.904261 0 0 0 -10.90338,10.90463 10.904261,10.904261 0 0 0 10.90338,10.90463 10.904261,10.904261 0 0 0 10.90462,-10.90463 10.904261,10.904261 0 0 0 -10.90462,-10.90463 z m 34.98844,0 a 10.904261,10.904261 0 0 0 -10.90337,10.90463 10.904261,10.904261 0 0 0 10.90337,10.90463 10.904261,10.904261 0 0 0 10.90464,-10.90463 10.904261,10.904261 0 0 0 -10.90464,-10.90463 z m -125.89457,13.13413 c 0.76168,0 1.3745,0.61407 1.3745,1.37575 l 0,4.83579 c 0,0.7617 -0.61283,1.37451 -1.3745,1.37451 -0.7617,0 -1.37451,-0.61281 -1.37451,-1.37451 l 0,-4.83579 c 0,-0.76168 0.61281,-1.37575 1.37451,-1.37575 z"
       id="rect4786"
       inkscape:connector-curvature="0" />
    <path
       style="opacity:1;fill:#000000;fill-opacity:1;fill-rule:nonzero;stroke:none;stroke-width:2;stroke-linecap:round;stroke-linejoin:round;stroke-miterlimit:4;stroke-dasharray:none;stroke-dashoffset:0;stroke-opacity:1"
       d="m 82.835928,842.53371 c -7.94044,-0.0807 -14.16377,3.35362 -20.48431,6.58984 l -5.25684,18.95315 c -11.9856,4.29594 -20.5156,15.72804 -20.5156,29.22762 l 0,4.70406 0,10.06727 c 0,3.67563 0.63456,7.19729 1.79679,10.46431 l 4.45996,50.9747 c 0.97733,16.30864 25.43496,18.96845 34.67015,14.46118 5.73924,-2.80105 11.80293,-20.27214 15.58279,-33.12368 a 27.410789,27.410789 0 0 0 23.637022,13.59756 27.410789,27.410789 0 0 0 27.30706,-25.32463 l 25.21825,0 a 27.410789,27.410789 0 0 0 27.32375,25.32463 27.410789,27.410789 0 0 0 23.71212,-13.7102 c 3.77743,12.86168 9.86016,30.42709 15.61617,33.23632 9.23516,4.50727 33.69283,1.84746 34.67014,-14.46118 l 4.76107,-54.41459 c 0.51786,-2.25587 0.79128,-4.60697 0.79128,-7.02442 l 0,-2.01722 0.70439,-8.05005 -0.70439,0.45335 0,-5.15741 c 0,-11.9583 -6.69354,-22.29364 -16.55278,-27.48439 l -6.09056,-20.994 c -18.76003,-11.16575 -29.13029,-5.15287 -39.77541,0.29762 l -4.75203,17.13202 -101.77135,0 -5.05658,-17.42964 c -7.621272,-4.53608 -13.858152,-6.237 -19.291092,-6.29222 z m 154.369022,28.02956 a 9.217153,9.217153 0 0 1 9.21684,9.21685 9.217153,9.217153 0 0 1 -9.21684,9.21756 9.217153,9.217153 0 0 1 -9.21758,-9.21756 9.217153,9.217153 0 0 1 9.21758,-9.21685 z m -164.627522,7.70516 7.99305,0 c 1.25742,0 2.26962,1.01292 2.26962,2.27033 l 0,7.99234 c 0,0.0868 -0.006,0.17237 -0.0153,0.25659 l 0.001,0 c -0.001,0.005 -0.002,0.009 -0.003,0.0132 -0.0257,0.21913 -0.0815,0.42855 -0.1648,0.62373 -0.46316,1.82907 -0.86415,3.66945 -4.46205,4.94533 l -3.33143,0 c -3.50417,-1.14695 -3.92752,-3.08836 -4.40156,-5.01626 -0.0663,-0.17127 -0.1124,-0.3522 -0.13559,-0.54098 -0.001,-0.005 -0.002,-0.008 -0.003,-0.0125 l 9.9e-4,0 c -0.0104,-0.0883 -0.0173,-0.17791 -0.0173,-0.2691 l 0,-7.99235 c 0,-1.25741 1.01221,-2.27031 2.26963,-2.27031 z m 143.506952,13.41538 a 9.217153,9.217153 0 0 1 9.21757,9.21755 9.217153,9.217153 0 0 1 -9.21757,9.21687 9.217153,9.217153 0 0 1 -9.21756,-9.21687 9.217153,9.217153 0 0 1 9.21756,-9.21755 z m 42.24112,0 a 9.217153,9.217153 0 0 1 9.21615,9.21755 9.217153,9.217153 0 0 1 -9.21615,9.21687 9.217153,9.217153 0 0 1 -9.21758,-9.21687 9.217153,9.217153 0 0 1 9.21758,-9.21755 z m -201.088172,1.92543 7.99235,0 c 0.0911,0 0.18079,0.007 0.26909,0.0174 l 0,-9.1e-4 c 0.004,9.1e-4 0.007,0.002 0.0118,0.003 0.18878,0.0231 0.36971,0.0693 0.54099,0.1356 1.9279,0.47406 3.8693,0.89809 5.01625,4.40226 l 7.1e-4,-7.2e-4 0,3.33143 c -1.27588,3.5979 -3.11626,3.99889 -4.94533,4.46206 -0.19517,0.0832 -0.4046,0.13906 -0.62373,0.1648 -0.004,9.1e-4 -0.009,0.002 -0.0133,0.003 l 0,-9.1e-4 c -0.0842,0.009 -0.16977,0.0153 -0.25658,0.0153 l -7.99235,0 c -1.25742,0 -2.27032,-1.0122 -2.27032,-2.26962 l 0,-7.99304 c 0,-1.2574 1.0129,-2.26962 2.27032,-2.26962 z m 30.68161,7.1e-4 7.99167,0 c 1.25739,0 2.27029,1.01222 2.27029,2.26963 l 0,7.99305 c 0,1.25741 -1.0129,2.26961 -2.27029,2.26961 l -7.99239,0 c -0.0868,0 -0.17234,-0.006 -0.25657,-0.0153 l 0,9.1e-4 c -0.004,-9.1e-4 -0.009,-0.002 -0.0131,-0.003 -0.21913,-0.0258 -0.42854,-0.0815 -0.62371,-0.16481 -1.82909,-0.46316 -3.66945,-0.86415 -4.94533,-4.46205 l 0,-3.33142 c 1.14694,-3.50417 3.08833,-3.92751 5.01625,-4.40156 0.17128,-0.0664 0.35221,-0.11238 0.54096,-0.13559 0.004,-9.1e-4 0.009,-0.003 0.0131,-0.005 l 0,9.1e-4 c 0.0883,-0.0104 0.17794,-0.0168 0.26912,-0.0168 z m 87.865082,3.10753 6.55434,2.07491 6.53768,2.09162 -6.57521,2.05615 -6.59123,2.04015 0.0203,-4.13176 0.0542,-4.13107 z m -47.73786,0.52428 9.83642,0 c 0.74158,0 1.33856,0.59697 1.33856,1.33856 l 0,4.47318 c 0,0.74159 -0.59698,1.33855 -1.33856,1.33855 l -9.83642,0 c -0.74158,0 -1.33851,-0.59696 -1.33851,-1.33855 l 0,-4.47318 c 0,-0.74159 0.59693,-1.33856 1.33851,-1.33856 z m -53.181722,8.13978 3.33142,0 c 3.5979,1.27587 3.9989,3.11625 4.46206,4.94532 0.0833,0.19517 0.13904,0.40459 0.1648,0.62372 9.9e-4,0.005 0.002,0.009 0.003,0.0132 l -10e-4,0 c 0.009,0.0842 0.0153,0.16978 0.0153,0.25659 l 0,7.99236 c 0,1.2574 -1.01221,2.27031 -2.26962,2.27031 l -7.99305,0 c -1.25741,0 -2.26962,-1.01291 -2.26962,-2.27031 l 0,-7.99236 c 0,-0.0912 0.007,-0.1808 0.0173,-0.2691 l -0.001,0 c 0.001,-0.005 0.002,-0.008 0.003,-0.0125 0.0231,-0.18877 0.0693,-0.36971 0.13559,-0.54098 0.47405,-1.92791 0.8974,-3.86931 4.40157,-5.01626 z m 162.340512,7.42215 a 9.217153,9.217153 0 0 1 9.21684,9.21756 9.217153,9.217153 0 0 1 -9.21684,9.21685 9.217153,9.217153 0 0 1 -9.21758,-9.21685 9.217153,9.217153 0 0 1 9.21758,-9.21756 z m -85.6212,8.57158 9.83571,0 c 0.74159,0 1.33924,0.59695 1.33924,1.33855 l 0,4.47318 c 0,0.74159 -0.59765,1.33855 -1.33924,1.33855 l -9.83571,0 c -0.74157,0 -1.33923,-0.59696 -1.33923,-1.33855 l 0,-4.47318 c 0,-0.7416 0.59766,-1.33855 1.33923,-1.33855 z m -35.50456,0.1488 a 20.059855,20.059855 0 0 1 20.05947,20.05945 20.059855,20.059855 0 0 1 -20.05947,20.06014 20.059855,20.059855 0 0 1 -20.060152,-20.06014 20.059855,20.059855 0 0 1 20.060152,-20.05945 z m 82.38085,0 a 20.059855,20.059855 0 0 1 20.06015,20.05945 20.059855,20.059855 0 0 1 -20.06015,20.06014 20.059855,20.059855 0 0 1 -20.05943,-20.06014 20.059855,20.059855 0 0 1 20.05943,-20.05945 z"
       id="rect4921"
       inkscape:connector-curvature="0" />
    <path
       style="opacity:1;fill:#000000;fill-opacity:1;fill-rule:nonzero;stroke:none;stroke-width:1.39764428;stroke-linecap:round;stroke-linejoin:round;stroke-miterlimit:4;stroke-dasharray:none;stroke-dashoffset:0;stroke-opacity:1"
       d="m 144.62852,527.93564 c -55.848522,0.3064 -104.582418,19.9067 -105.176615,50.8149 l -0.04399,-0.0832 -2.593431,31.22704 0.02337,-0.006 c -2.666389,9.44577 -4.116476,21.00492 -4.127629,32.90283 -6.3e-5,30.01048 8.96632,54.33906 20.027089,54.33971 8.948562,-0.008 16.809346,-16.12128 19.257243,-39.47473 l 0.0055,0.013 c 1.850445,-8.91086 1.48505,-18.81853 5.551161,-26.73235 2.17555,1.76734 2.314576,4.14082 3.050532,6.73137 0.0016,0.0263 0.0047,0.0505 0.0063,0.077 l 0.01169,-0.007 c 2.819596,13.46174 14.533831,23.09018 28.09952,23.09619 15.45693,-0.0181 28.13135,-12.43562 28.6879,-28.1064 -1.58292,-11.02156 -4.65387,-19.86385 -11.87906,-24.8414 -3.83018,-2.63868 -4.505,-5.8194 -6.28595,-9.04093 8.08231,-2.54574 16.54774,-3.75099 25.3865,-3.64922 8.83872,-0.10177 17.30417,1.10348 25.38646,3.64922 -1.78095,3.22153 -2.45574,6.40225 -6.28596,9.04093 -7.22518,4.97755 -10.2961,13.81984 -11.87905,24.8414 0.55655,15.67078 13.231,28.08831 28.68789,28.1064 13.56569,-0.006 25.27994,-9.63445 28.09954,-23.09619 l 0.0116,0.007 c 0,-0.0265 0.005,-0.0507 0.006,-0.077 0.73595,-2.59055 0.875,-4.96403 3.05054,-6.73137 4.06611,7.91382 3.70073,17.82148 5.55115,26.73235 l 0.005,-0.013 c 2.44789,23.35345 10.30867,39.46699 19.25723,39.47473 11.06077,-7e-4 20.02717,-24.32923 20.0271,-54.33971 -0.0113,-11.89791 -1.46125,-23.45706 -4.12762,-32.90283 l 0.0232,0.006 -2.59346,-31.22704 -0.044,0.0832 c -0.59417,-30.9082 -49.32807,-50.5085 -105.17659,-50.8149 z m 62.94965,22.6762 c 1.82384,-0.0198 3.39589,0.31042 4.71946,1.13622 6.35708,3.96631 2.87698,10.01211 0.28524,10.47408 -2.00171,0.35681 -3.48594,-0.54409 -6.6592,0.1684 -3.17323,0.7125 -4.36286,2.47235 -6.28937,3.12271 -2.49428,0.84202 -8.45406,-2.78426 -4.78958,-9.32 1.35635,-2.41911 4.15501,-3.8418 6.95132,-4.59091 2.79634,-0.74911 4.36514,-0.97512 5.78213,-0.9905 z m -128.892113,10.48234 13.120442,6.34232 4.793006,13.76244 -6.343011,13.12044 -13.762442,4.79231 -13.119761,-6.34232 -4.792998,-13.76244 6.343011,-13.12044 13.761753,-4.79231 z m 154.219483,3.65266 c 1.13508,0.002 2.42973,0.32458 3.87057,1.10597 2.43797,1.32215 3.90011,4.10054 4.68851,6.88603 0.78842,2.78549 1.03626,4.35106 1.07159,5.76769 0.0455,1.82338 -0.26248,3.4002 -1.06952,4.73526 -3.87639,6.41234 -9.97014,3.0173 -10.46858,0.43236 -0.38498,-1.99651 0.49523,-3.49288 -0.26187,-6.65577 -0.75716,-3.16289 -2.53398,-4.32755 -3.21138,-6.24472 -0.68525,-1.9392 1.32689,-6.03242 5.38068,-6.02682 z m -155.627894,1.29843 a 13.536824,13.536824 0 0 0 -13.536301,13.53698 13.536824,13.536824 0 0 0 13.536301,13.53699 13.536824,13.536824 0 0 0 13.536982,-13.53699 13.536824,13.536824 0 0 0 -13.536982,-13.53698 z m 133.518754,1.72598 a 13.327142,13.327142 0 0 1 13.32736,13.32733 13.327142,13.327142 0 0 1 -13.32736,13.32665 13.327142,13.327142 0 0 1 -13.32733,-13.32665 13.327142,13.327142 0 0 1 13.32733,-13.32733 z m -66.78309,10.01354 a 5.5959269,5.5959269 0 0 1 5.59585,5.59584 5.5959269,5.5959269 0 0 1 -5.59585,5.59585 5.5959269,5.5959269 0 0 1 -5.59585,-5.59585 5.5959269,5.5959269 0 0 1 5.59585,-5.59584 z m 42.55828,7.21597 a 7.8048452,7.8048452 0 0 1 7.80503,7.80503 7.8048452,7.8048452 0 0 1 -7.80503,7.80436 7.8048452,7.8048452 0 0 1 -7.80436,-7.80436 7.8048452,7.8048452 0 0 1 7.80436,-7.80503 z m -6.2138,25.97006 12.17805,5.69139 4.58679,12.63516 -5.69136,12.17806 -12.63518,4.58679 -12.17805,-5.69139 -4.58679,-12.63516 5.69139,-12.17806 12.63515,-4.58679 z m -73.69387,0.0632 a 17.781795,17.781795 0 0 1 17.78148,17.78147 17.781795,17.781795 0 0 1 -17.78148,17.78216 17.781795,17.781795 0 0 1 -17.782161,-17.78216 17.781795,17.781795 0 0 1 17.782161,-17.78147 z m -3.25332,3.00104 c -0.82897,0 -1.49637,0.66743 -1.49637,1.4964 l 0,8.53502 -8.535037,0 c -0.828964,0 -1.496395,0.66743 -1.496395,1.4964 l 0,6.50592 c 0,0.82896 0.667431,1.4957 1.496395,1.4957 l 8.535037,0 0,8.53572 c 0,0.82896 0.6674,1.49639 1.49637,1.49639 l 6.50595,0 c 0.82894,0 1.49638,-0.66743 1.49638,-1.49639 l 0,-8.53572 8.53503,0 c 0.82898,0 1.49638,-0.66674 1.49638,-1.4957 l 0,-6.50592 c 0,-0.82897 -0.66744,-1.4964 -1.49638,-1.4964 l -8.53503,0 0,-8.53502 c 0,-0.82897 -0.66744,-1.4964 -1.49638,-1.4964 l -6.50595,0 z m 76.16636,4.24655 a 10.234656,10.234656 0 0 0 -10.2349,10.23487 10.234656,10.234656 0 0 0 10.2349,10.23489 10.234656,10.234656 0 0 0 10.23487,-10.23489 10.234656,10.234656 0 0 0 -10.23487,-10.23487 z"
       id="path4895"
       inkscape:connector-curvature="0" />
  </g>
</svg>
