<?xml version="1.0" encoding="UTF-8" standalone="no"?>
<!-- Created with Inkscape (http://www.inkscape.org/) -->

<svg
   xmlns:dc="http://purl.org/dc/elements/1.1/"
   xmlns:cc="http://creativecommons.org/ns#"
   xmlns:rdf="http://www.w3.org/1999/02/22-rdf-syntax-ns#"
   xmlns:svg="http://www.w3.org/2000/svg"
   xmlns="http://www.w3.org/2000/svg"
   xmlns:sodipodi="http://sodipodi.sourceforge.net/DTD/sodipodi-0.dtd"
   xmlns:inkscape="http://www.inkscape.org/namespaces/inkscape"
   width="210mm"
   height="297mm"
   viewBox="0 0 744.09448819 1052.3622047"
   id="svg2"
   version="1.1"
   inkscape:version="0.91 r13725"
   sodipodi:docname="porte_clefs.svg">
  <defs
     id="defs4" />
  <sodipodi:namedview
     id="base"
     pagecolor="#ffffff"
     bordercolor="#666666"
     borderopacity="1.0"
     inkscape:pageopacity="0.0"
     inkscape:pageshadow="2"
     inkscape:zoom="1.1949219"
     inkscape:cx="242.96185"
     inkscape:cy="889.18202"
     inkscape:document-units="px"
     inkscape:current-layer="layer1"
     showgrid="false"
     inkscape:snap-intersection-paths="true"
     inkscape:object-nodes="true"
     inkscape:snap-smooth-nodes="true"
     inkscape:snap-nodes="false"
     inkscape:window-width="1920"
     inkscape:window-height="1009"
     inkscape:window-x="1280"
     inkscape:window-y="0"
     inkscape:window-maximized="1" />
  <metadata
     id="metadata7">
    <rdf:RDF>
      <cc:Work
         rdf:about="">
        <dc:format>image/svg+xml</dc:format>
        <dc:type
           rdf:resource="http://purl.org/dc/dcmitype/StillImage" />
        <dc:title></dc:title>
      </cc:Work>
    </rdf:RDF>
  </metadata>
  <g
     inkscape:label="Calque 1"
     inkscape:groupmode="layer"
     id="layer1">
    <path
       id="path4138"
       style="opacity:1;fill:none;fill-opacity:1;fill-rule:nonzero;stroke:#000000;stroke-width:0.7144165;stroke-linecap:round;stroke-linejoin:round;stroke-miterlimit:4;stroke-dasharray:none;stroke-dashoffset:0;stroke-opacity:1"
       d="m 101.15181,127.18095 a 8.5010595,8.5010595 0 0 1 -8.501061,8.50106 8.5010595,8.5010595 0 0 1 -8.501059,-8.50106 8.5010595,8.5010595 0 0 1 8.501059,-8.50106 8.5010595,8.5010595 0 0 1 8.501061,8.50106 z m -18.960233,-18.42875 161.197013,0 c 4.27541,0 7.71735,3.44194 7.71735,7.71735 l 0,90.33085 c 0,4.27542 -3.44194,7.71735 -7.71735,7.71735 l -161.197013,0 c -4.275411,0 -7.717349,-3.44193 -7.717349,-7.71735 l 0,-90.33085 c 0,-4.27541 3.441938,-7.71735 7.717349,-7.71735 z" />
    <path
       style="opacity:1;fill:#f30000;fill-opacity:1;fill-rule:nonzero;stroke:none;stroke-width:1;stroke-linecap:round;stroke-linejoin:round;stroke-miterlimit:4;stroke-dasharray:none;stroke-dashoffset:0;stroke-opacity:1"
       d="m 114.10906,134.44368 c -0.0729,0 -0.14096,0.0185 -0.2014,0.0496 -19.656368,0.3189 -35.423002,15.96299 -35.43182,35.15679 6.1e-5,19.42767 16.13136,35.17622 36.03,35.17634 8.64239,-0.0155 16.99159,-3.06322 23.52403,-8.5878 l 49.48584,0 c 6.54161,5.53231 14.90408,8.58047 23.55861,8.5878 19.89862,-1.2e-4 36.02997,-15.74867 36.03001,-35.17634 -7e-5,-19.42768 -16.13139,-35.17768 -36.03001,-35.17783 -0.68323,0.004 -1.36519,0.0295 -2.047,0.0721 -0.0759,-0.0621 -0.17193,-0.1008 -0.27805,-0.1008 l -94.64021,0 z m 96.65114,2.93224 c 17.29586,-6e-5 31.31684,14.02094 31.31679,31.31678 7e-5,17.29585 -14.02093,31.31687 -31.31679,31.31679 -17.29584,8e-5 -31.31686,-14.02094 -31.31679,-31.31679 -7e-5,-17.29584 14.02095,-31.31684 31.31679,-31.31678 z m -0.0211,10.73401 c -1.49742,-0.0335 -3.03354,0.43108 -4.34201,1.42629 l -17.51377,13.32057 c -2.99073,2.27482 -3.62814,6.43228 -1.43079,9.32125 l 1.01749,1.33911 c 2.19722,2.88902 6.37406,3.38243 9.36482,1.10767 l 17.51377,-13.32057 c 2.99073,-2.27482 3.62816,-6.43078 1.43081,-9.31974 l -1.01749,-1.33911 c -1.23595,-1.62509 -3.09759,-2.49244 -5.02283,-2.53547 z m -96.33854,0.26453 c 10.64366,-2.4e-4 19.27219,8.62703 19.27223,19.2707 -4e-5,10.64368 -8.62857,19.27247 -19.27223,19.27221 -10.64349,-2e-5 -19.270666,-8.62872 -19.270712,-19.27221 4.6e-5,-10.64348 8.627222,-19.27067 19.270712,-19.2707 z m 94.27498,3.50185 a 5.0361539,5.0361539 0 0 1 4.26086,1.98237 5.0361539,5.0361539 0 0 1 -0.96339,7.0563 5.0361539,5.0361539 0 0 1 -7.05631,-0.96188 5.0361539,5.0361539 0 0 1 0.96338,-7.05781 5.0361539,5.0361539 0 0 1 2.79546,-1.01898 z m -98.36298,2.05452 c -0.24384,0 -0.43886,0.19652 -0.43886,0.44036 l 0,8.98608 -8.98608,0 c -0.24383,0 -0.44185,0.19651 -0.44185,0.44036 l 0,8.33682 c 0,0.24383 0.19802,0.44036 0.44185,0.44036 l 8.98608,0 0,8.98608 c 0,0.24383 0.19502,0.44037 0.43886,0.44038 l 8.33682,0 c 0.24382,0 0.44036,-0.19655 0.44036,-0.44038 l 0,-8.98608 8.98609,0 c 0.24382,0 0.44036,-0.19653 0.44036,-0.44036 l 0,-8.33682 c 0,-0.24383 -0.19654,-0.44036 -0.44036,-0.44036 l -8.98609,0 0,-8.98608 c 0,-0.24383 -0.19654,-0.44036 -0.44036,-0.44036 l -8.33682,0 z m 116.57114,6.76924 c -1.49744,-0.0335 -3.03206,0.43108 -4.34051,1.42629 l -17.51377,13.32057 c -2.99071,2.27483 -3.62963,6.43225 -1.4323,9.32124 l 1.01748,1.33911 c 2.19726,2.88907 6.37558,3.38246 9.36634,1.10768 l 17.51228,-13.32058 c 2.9907,-2.27481 3.62963,-6.43076 1.4323,-9.31973 l -1.01749,-1.33913 c -1.23595,-1.62508 -3.0991,-2.49244 -5.02433,-2.53545 z m -31.8293,1.52699 a 5.0361539,5.0361539 0 0 1 4.26084,1.98238 5.0361539,5.0361539 0 0 1 -0.96189,7.05631 5.0361539,5.0361539 0 0 1 -7.0578,-0.96037 5.0361539,5.0361539 0 0 1 0.96338,-7.05783 5.0361539,5.0361539 0 0 1 2.79547,-1.02049 z m 29.76574,2.23937 a 5.0361539,5.0361539 0 0 1 4.26084,1.98239 5.0361539,5.0361539 0 0 1 -0.96187,7.05631 5.0361539,5.0361539 0 0 1 -7.05631,-0.96188 5.0361539,5.0361539 0 0 1 0.96189,-7.05631 5.0361539,5.0361539 0 0 1 2.79545,-1.02051 z m -74.01684,3.09758 c 0.64392,-0.008 1.24123,0.22638 1.64272,0.70487 0.80298,0.95696 0.50634,2.51807 -0.66431,3.50035 l -6.41304,5.38053 c -1.17064,0.98228 -2.75899,1.00354 -3.56198,0.0466 -0.80298,-0.95696 -0.50633,-2.51957 0.6643,-3.50185 l 6.41305,-5.38053 c 0.58533,-0.49114 1.27535,-0.7417 1.91926,-0.74996 z m 15.93719,0 c 0.64393,-0.008 1.24123,0.22638 1.64272,0.70487 0.80298,0.95696 0.50783,2.51807 -0.6628,3.50035 l -6.41305,5.38053 c -1.17064,0.98228 -2.76049,1.00204 -3.56347,0.0451 -0.80298,-0.95695 -0.50635,-2.51807 0.6643,-3.50035 l 6.41305,-5.38052 c 0.58532,-0.49115 1.27533,-0.74171 1.91925,-0.74998 z m 44.45851,7.25319 a 5.0361539,5.0361539 0 0 1 10e-4,0 5.0361539,5.0361539 0 0 1 4.25932,1.98387 5.0361539,5.0361539 0 0 1 -0.96187,7.05632 5.0361539,5.0361539 0 0 1 -7.0563,-0.96189 5.0361539,5.0361539 0 0 1 0.96188,-7.0578 5.0361539,5.0361539 0 0 1 2.79546,-1.0205 z"
       id="path5345"
       inkscape:connector-curvature="0" />
    <path
       id="circle4154"
       style="opacity:1;fill:none;fill-opacity:1;fill-rule:nonzero;stroke:#000000;stroke-width:0.7144165;stroke-linecap:round;stroke-linejoin:round;stroke-miterlimit:4;stroke-dasharray:none;stroke-dashoffset:0;stroke-opacity:1"
       d="m 101.15181,245.59872 a 8.5010595,8.5010595 0 0 1 -8.501061,8.50106 8.5010595,8.5010595 0 0 1 -8.501059,-8.50106 8.5010595,8.5010595 0 0 1 8.501059,-8.50106 8.5010595,8.5010595 0 0 1 8.501061,8.50106 z m -18.960233,-18.42874 161.197013,0 c 4.27541,0 7.71735,3.44194 7.71735,7.71735 l 0,85.30963 c 0,4.27541 -3.44194,7.71735 -7.71735,7.71735 l -161.197013,0 c -4.275411,0 -7.717349,-3.44194 -7.717349,-7.71735 l 0,-85.30963 c 0,-4.27541 3.441938,-7.71735 7.717349,-7.71735 z" />
    <g
       id="g5205"
       transform="matrix(0.89012481,0,0,0.89012481,-194.2082,-224.36742)"
       style="opacity:1;fill:#f30000;fill-opacity:1">
      <path
         id="rect5127"
         d="m 318.99219,521.10938 c -5.09997,0 -9.20508,3.919 -9.20508,8.7871 l 0,67.93555 c 0,4.8681 4.10511,8.78711 9.20508,8.78711 l 164.14648,0 c 5.09997,0 9.20508,-3.91901 9.20508,-8.78711 l 0,-67.93555 c 0,-4.8681 -4.10511,-8.7871 -9.20508,-8.7871 l -164.14648,0 z m 9.54101,10.13476 145.0625,0 c 5.09997,0 9.20703,3.59575 9.20703,8.0625 l 0,49.11524 c 0,4.46675 -4.10706,8.0625 -9.20703,8.0625 l -145.0625,0 c -5.09996,0 -9.20508,-3.59575 -9.20508,-8.0625 l 0,-49.11524 c 0,-4.46675 4.10512,-8.0625 9.20508,-8.0625 z"
         style="opacity:1;fill:#f30000;fill-opacity:1;fill-rule:nonzero;stroke:none;stroke-width:1;stroke-linecap:round;stroke-linejoin:round;stroke-miterlimit:4;stroke-dasharray:none;stroke-dashoffset:0;stroke-opacity:1"
         inkscape:connector-curvature="0" />
      <path
         inkscape:connector-curvature="0"
         id="rect5137"
         d="m 338.33935,552.91697 c -1.06547,0 -1.92383,0.85837 -1.92383,1.92383 l 0,6.95313 -6.95313,0 c -1.06546,0 -1.92383,0.8564 -1.92383,1.92187 l 0,11.24414 c 10e-6,1.06547 0.85837,1.92383 1.92383,1.92383 l 6.95313,0 0,6.95313 c 0,1.06547 0.85836,1.92187 1.92383,1.92187 l 11.24218,0 c 1.06547,0 1.92383,-0.8564 1.92383,-1.92187 l 0,-6.95313 6.95313,0 c 1.06547,0 1.92383,-0.85836 1.92383,-1.92383 l 0,-11.24414 c 0,-1.06547 -0.85836,-1.92187 -1.92383,-1.92187 l -6.95313,0 0,-6.95313 c 0,-1.06546 -0.85836,-1.92383 -1.92383,-1.92383 l -11.24218,0 z m 0.85937,2.51563 9.52149,0 c 0.90229,0 1.6289,0.72662 1.6289,1.6289 l 0,5.88672 5.88867,0 c 0.90229,0 1.62891,0.72662 1.62891,1.62891 l 0,9.52148 c 0,0.90229 -0.72662,1.62891 -1.62891,1.62891 l -5.88867,0 0,5.88867 c 0,0.90229 -0.72661,1.62891 -1.6289,1.62891 l -9.52149,0 c -0.90229,0 -1.62695,-0.72662 -1.62695,-1.62891 l 0,-5.88867 -5.88867,0 c -0.90228,0 -1.62891,-0.72662 -1.62891,-1.62891 l 0,-9.52148 c 0,-0.90229 0.72663,-1.62891 1.62891,-1.62891 l 5.88867,0 0,-5.88672 c 0,-0.90228 0.72466,-1.6289 1.62695,-1.6289 z"
         style="opacity:1;fill:#f30000;fill-opacity:1;fill-rule:nonzero;stroke:none;stroke-width:1;stroke-linecap:round;stroke-linejoin:round;stroke-miterlimit:4;stroke-dasharray:none;stroke-dashoffset:0;stroke-opacity:1" />
      <g
         transform="translate(-9.2011931e-7,-0.2962115)"
         id="g5163"
         style="fill:#f30000;fill-opacity:1">
        <path
           sodipodi:type="star"
           style="opacity:1;fill:#f30000;fill-opacity:1;fill-rule:nonzero;stroke:none;stroke-width:1;stroke-linecap:round;stroke-linejoin:round;stroke-miterlimit:4;stroke-dasharray:none;stroke-dashoffset:0;stroke-opacity:1"
           id="path5151"
           sodipodi:sides="3"
           sodipodi:cx="343.5166"
           sodipodi:cy="562.23712"
           sodipodi:r1="4.0622921"
           sodipodi:r2="2.0729187"
           sodipodi:arg1="2.1486983"
           sodipodi:arg2="3.1958958"
           inkscape:flatsided="false"
           inkscape:rounded="0"
           inkscape:randomized="0"
           d="m 341.2975,565.63974 0.14924,-3.51513 0.23266,-3.51059 2.96957,1.8868 2.92394,1.95679 -3.11881,1.62832 z"
           inkscape:transform-center-x="-0.020529478"
           inkscape:transform-center-y="-0.99463724"
           transform="matrix(0.89641347,0.44321878,-0.44321878,0.89641347,285.20105,-95.936037)" />
        <path
           transform="matrix(0.89641347,-0.44321878,-0.44321878,-0.89641347,285.20105,1235.2042)"
           inkscape:transform-center-y="0.9945982"
           inkscape:transform-center-x="-0.020529478"
           d="m 341.2975,565.63974 0.14924,-3.51513 0.23266,-3.51059 2.96957,1.8868 2.92394,1.95679 -3.11881,1.62832 z"
           inkscape:randomized="0"
           inkscape:rounded="0"
           inkscape:flatsided="false"
           sodipodi:arg2="3.1958958"
           sodipodi:arg1="2.1486983"
           sodipodi:r2="2.0729187"
           sodipodi:r1="4.0622921"
           sodipodi:cy="562.23712"
           sodipodi:cx="343.5166"
           sodipodi:sides="3"
           id="path5153"
           style="opacity:1;fill:#f30000;fill-opacity:1;fill-rule:nonzero;stroke:none;stroke-width:1;stroke-linecap:round;stroke-linejoin:round;stroke-miterlimit:4;stroke-dasharray:none;stroke-dashoffset:0;stroke-opacity:1"
           sodipodi:type="star" />
      </g>
      <g
         transform="translate(-9.299665,-9.6369609)"
         id="g5159"
         style="fill:#f30000;fill-opacity:1">
        <path
           transform="matrix(-0.44321878,0.89641347,-0.89641347,-0.44321878,1018.8302,520.21544)"
           inkscape:transform-center-y="0.020531401"
           inkscape:transform-center-x="-0.99458928"
           d="m 341.2975,565.63974 0.14924,-3.51513 0.23266,-3.51059 2.96957,1.8868 2.92394,1.95679 -3.11881,1.62832 z"
           inkscape:randomized="0"
           inkscape:rounded="0"
           inkscape:flatsided="false"
           sodipodi:arg2="3.1958958"
           sodipodi:arg1="2.1486983"
           sodipodi:r2="2.0729187"
           sodipodi:r1="4.0622921"
           sodipodi:cy="562.23712"
           sodipodi:cx="343.5166"
           sodipodi:sides="3"
           id="path5155"
           style="opacity:1;fill:#f30000;fill-opacity:1;fill-rule:nonzero;stroke:none;stroke-width:1;stroke-linecap:round;stroke-linejoin:round;stroke-miterlimit:4;stroke-dasharray:none;stroke-dashoffset:0;stroke-opacity:1"
           sodipodi:type="star" />
        <path
           sodipodi:type="star"
           style="opacity:1;fill:#f30000;fill-opacity:1;fill-rule:nonzero;stroke:none;stroke-width:1;stroke-linecap:round;stroke-linejoin:round;stroke-miterlimit:4;stroke-dasharray:none;stroke-dashoffset:0;stroke-opacity:1"
           id="path5157"
           sodipodi:sides="3"
           sodipodi:cx="343.5166"
           sodipodi:cy="562.23712"
           sodipodi:r1="4.0622921"
           sodipodi:r2="2.0729187"
           sodipodi:arg1="2.1486983"
           sodipodi:arg2="3.1958958"
           inkscape:flatsided="false"
           inkscape:rounded="0"
           inkscape:randomized="0"
           d="m 341.2975,565.63974 0.14924,-3.51513 0.23266,-3.51059 2.96957,1.8868 2.92394,1.95679 -3.11881,1.62832 z"
           inkscape:transform-center-x="0.99459916"
           inkscape:transform-center-y="0.020531401"
           transform="matrix(0.44321878,0.89641347,0.89641347,-0.44321878,-312.30999,520.21544)" />
      </g>
      <rect
         ry="1.92322"
         y="527.17535"
         x="373.84448"
         height="15.533696"
         width="54.441906"
         id="rect5167"
         style="opacity:1;fill:#f30000;fill-opacity:1;fill-rule:nonzero;stroke:none;stroke-width:1;stroke-linecap:round;stroke-linejoin:round;stroke-miterlimit:4;stroke-dasharray:none;stroke-dashoffset:0;stroke-opacity:1" />
      <rect
         style="opacity:1;fill:#f30000;fill-opacity:1;fill-rule:nonzero;stroke:none;stroke-width:1;stroke-linecap:round;stroke-linejoin:round;stroke-miterlimit:4;stroke-dasharray:none;stroke-dashoffset:0;stroke-opacity:1"
         id="rect5171"
         width="54.441906"
         height="5.0299587"
         x="373.84448"
         y="547.73901"
         ry="0.62275696" />
      <rect
         ry="0.62275696"
         y="558.09479"
         x="373.84448"
         height="5.0299587"
         width="54.441906"
         id="rect5175"
         style="opacity:1;fill:#f30000;fill-opacity:1;fill-rule:nonzero;stroke:none;stroke-width:1;stroke-linecap:round;stroke-linejoin:round;stroke-miterlimit:4;stroke-dasharray:none;stroke-dashoffset:0;stroke-opacity:1" />
      <path
         id="rect5177"
         d="m 376.15234,568.45117 c -1.27855,0 -2.30859,1.02809 -2.30859,2.30664 l 0,14.02539 c 0,1.27856 1.03004,2.3086 2.30859,2.3086 l 49.82618,0 c 1.27855,0 2.30859,-1.03004 2.30859,-2.3086 l 0,-14.02539 c 0,-1.27855 -1.03004,-2.30664 -2.30859,-2.30664 l -49.82618,0 z m 4.12696,7.17383 15.23828,0 c 1.1884,0 2.14453,0.95808 2.14453,2.14648 0,1.1884 -0.95613,2.14454 -2.14453,2.14454 l -15.23828,0 c -1.1884,0 -2.14453,-0.95614 -2.14453,-2.14454 0,-1.1884 0.95613,-2.14648 2.14453,-2.14648 z m 26.33398,0 15.23828,0 c 1.1884,0 2.14453,0.95808 2.14453,2.14648 0,1.1884 -0.95613,2.14454 -2.14453,2.14454 l -15.23828,0 c -1.1884,0 -2.14453,-0.95614 -2.14453,-2.14454 0,-1.1884 0.95613,-2.14648 2.14453,-2.14648 z"
         style="opacity:1;fill:#f30000;fill-opacity:1;fill-rule:nonzero;stroke:none;stroke-width:1;stroke-linecap:round;stroke-linejoin:round;stroke-miterlimit:4;stroke-dasharray:none;stroke-dashoffset:0;stroke-opacity:1"
         inkscape:connector-curvature="0" />
      <rect
         style="opacity:1;fill:#f30000;fill-opacity:1;fill-rule:nonzero;stroke:none;stroke-width:1;stroke-linecap:round;stroke-linejoin:round;stroke-miterlimit:4;stroke-dasharray:none;stroke-dashoffset:0;stroke-opacity:1"
         id="rect5193"
         width="54.441906"
         height="14.202236"
         x="373.84448"
         y="592.12103"
         ry="1.7583727" />
      <path
         id="rect5195"
         d="m 435.37109,568.59766 c -0.97413,0 -1.75976,0.78562 -1.75976,1.75976 l 0,14.82813 c 0,0.97413 0.78563,1.75781 1.75976,1.75781 l 38.05274,0 c 0.97414,0 1.75976,-0.78368 1.75976,-1.75781 l 0,-14.82813 c 0,-0.97414 -0.78562,-1.75976 -1.75976,-1.75976 l -38.05274,0 z m 9.92774,3.10742 a 5.9175982,5.9175982 0 0 1 5.91797,5.91797 5.9175982,5.9175982 0 0 1 -5.91797,5.91797 5.9175982,5.9175982 0 0 1 -5.91797,-5.91797 5.9175982,5.9175982 0 0 1 5.91797,-5.91797 z m 18.04883,0.14844 a 5.9175982,5.9175982 0 0 1 5.91796,5.91601 5.9175982,5.9175982 0 0 1 -5.91796,5.91797 5.9175982,5.9175982 0 0 1 -5.91797,-5.91797 5.9175982,5.9175982 0 0 1 5.91797,-5.91601 z"
         style="opacity:1;fill:#f30000;fill-opacity:1;fill-rule:nonzero;stroke:none;stroke-width:1;stroke-linecap:round;stroke-linejoin:round;stroke-miterlimit:4;stroke-dasharray:none;stroke-dashoffset:0;stroke-opacity:1"
         inkscape:connector-curvature="0" />
    </g>
    <path
       d="m 288.73968,127.18095 a 8.5010595,8.5010595 0 0 1 -8.50106,8.50106 8.5010595,8.5010595 0 0 1 -8.50106,-8.50106 8.5010595,8.5010595 0 0 1 8.50106,-8.50106 8.5010595,8.5010595 0 0 1 8.50106,8.50106 z m -18.96023,-18.42875 161.19701,0 c 4.27541,0 7.71735,3.44194 7.71735,7.71735 l 0,90.33085 c 0,4.27542 -3.44194,7.71735 -7.71735,7.71735 l -161.19701,0 c -4.27541,0 -7.71735,-3.44193 -7.71735,-7.71735 l 0,-90.33085 c 0,-4.27541 3.44194,-7.71735 7.71735,-7.71735 z"
       style="opacity:1;fill:none;fill-opacity:1;fill-rule:nonzero;stroke:#000000;stroke-width:0.7144165;stroke-linecap:round;stroke-linejoin:round;stroke-miterlimit:4;stroke-dasharray:none;stroke-dashoffset:0;stroke-opacity:1"
       id="path4199"
       inkscape:connector-curvature="0" />
    <path
       style="opacity:1;fill:#f30000;fill-opacity:1;fill-rule:evenodd;stroke:none;stroke-width:1px;stroke-linecap:butt;stroke-linejoin:miter;stroke-opacity:1"
       d="m 350.37819,115.17941 c -24.03912,0.69044 -50.19789,6.10427 -72.4855,24.80976 -19.63333,23.78308 5.48621,68.74996 25.86535,68.09428 14.86577,-2.00861 7.00239,-13.00142 22.34638,-21.29033 14.04327,-5.53092 32.05318,-7.03773 48.54756,0 15.344,8.28891 7.48014,19.28172 22.34592,21.29033 20.3791,0.65568 45.49864,-44.3112 25.86534,-68.09428 -22.2876,-18.70549 -48.44592,-24.11932 -72.48505,-24.80976 z m 40.00036,17.5842 c 0.66741,-0.0164 1.30877,0.36107 1.6012,1.00989 0.38988,0.86511 0.008,1.87525 -0.85788,2.26514 l -11.42962,5.15093 c -0.86511,0.38989 -1.87526,0.008 -2.26514,-0.85784 -0.38987,-0.86511 -0.008,-1.87526 0.85785,-2.26514 l 11.42916,-5.15094 c 0.21628,-0.0975 0.44197,-0.14659 0.66443,-0.15204 z m -82.53335,4.76267 a 21.064073,21.064073 0 0 1 21.0637,21.06418 21.064073,21.064073 0 0 1 -21.0637,21.0642 21.064073,21.064073 0 0 1 -21.06419,-21.0642 21.064073,21.064073 0 0 1 21.06419,-21.06418 z m 104.96056,4.54808 c 1.93825,-0.0348 3.8123,1.02036 4.7444,2.87425 l 2.94832,5.86398 c 1.29682,2.57933 0.26417,5.69973 -2.31517,6.99652 l -40.81345,20.51957 c -2.57934,1.2968 -5.69973,0.26464 -6.99655,-2.31471 l -2.94833,-5.86444 c -1.29681,-2.57934 -0.26417,-5.69975 2.31518,-6.99654 l 40.81346,-20.51955 c 0.72545,-0.36474 1.49371,-0.54544 2.25214,-0.55908 z m -107.53024,3.01427 c -0.43675,0 -0.78857,0.35182 -0.78857,0.78856 l 0,4.61545 c -0.65506,0.88904 -1.31736,1.71551 -1.90719,2.31036 -0.62764,0.63299 -1.51059,1.34815 -2.45568,2.05248 l -4.61544,0 c -0.43673,0 -0.78807,0.35183 -0.78807,0.78857 l 0,5.56615 c 0,0.43674 0.35134,0.78808 0.78807,0.78808 l 4.61544,0 c 0.88907,0.65506 1.71554,1.31784 2.31039,1.90767 0.63302,0.62767 1.3481,1.51053 2.05248,2.45566 l 0,4.61498 c 0,0.43674 0.35182,0.78856 0.78857,0.78856 l 5.56615,0 c 0.43673,0 0.78808,-0.35182 0.78808,-0.78856 l 0,-4.61498 c 0.6551,-0.88913 1.31777,-1.71545 1.90765,-2.31036 0.62764,-0.63299 1.51059,-1.34863 2.45568,-2.05297 l 4.61543,0 c 0.43677,0 0.78809,-0.35134 0.78809,-0.78808 l 0,-5.56615 c 0,-0.43674 -0.35132,-0.78855 -0.78809,-0.78857 l -4.61543,0 c -0.88915,-0.6551 -1.71545,-1.3173 -2.31036,-1.90718 -0.633,-0.62764 -1.34864,-1.51058 -2.05297,-2.45566 l 0,-4.61545 c 0,-0.43674 -0.35135,-0.78856 -0.78808,-0.78856 l -5.56615,0 z m 106.87013,0.12893 a 6.2317583,6.2317583 0 0 0 -3.01184,0.66059 6.2317583,6.2317583 0 0 0 -2.7684,8.36679 6.2317583,6.2317583 0 0 0 8.36678,2.7684 6.2317583,6.2317583 0 0 0 2.7684,-8.36678 6.2317583,6.2317583 0 0 0 -5.35494,-3.429 z m -17.22383,8.6598 a 6.2317583,6.2317583 0 0 0 -3.01233,0.66059 6.2317583,6.2317583 0 0 0 -2.76841,8.36678 6.2317583,6.2317583 0 0 0 8.36728,2.76839 6.2317583,6.2317583 0 0 0 2.7684,-8.36678 6.2317583,6.2317583 0 0 0 -5.35494,-3.42898 z m -17.22433,8.65979 a 6.2317583,6.2317583 0 0 0 -3.01183,0.6601 6.2317583,6.2317583 0 0 0 -2.76841,8.36726 6.2317583,6.2317583 0 0 0 8.36677,2.76841 6.2317583,6.2317583 0 0 0 2.76842,-8.36727 6.2317583,6.2317583 0 0 0 -5.35495,-3.4285 z"
       id="path4207"
       inkscape:connector-curvature="0" />
    <path
       inkscape:connector-curvature="0"
       id="path4208"
       style="opacity:1;fill:none;fill-opacity:1;fill-rule:nonzero;stroke:#000000;stroke-width:0.7144165;stroke-linecap:round;stroke-linejoin:round;stroke-miterlimit:4;stroke-dasharray:none;stroke-dashoffset:0;stroke-opacity:1"
       d="m 288.73968,244.34342 a 8.5010595,8.5010595 0 0 1 -8.50106,8.50106 8.5010595,8.5010595 0 0 1 -8.50106,-8.50106 8.5010595,8.5010595 0 0 1 8.50106,-8.50106 8.5010595,8.5010595 0 0 1 8.50106,8.50106 z m -18.96023,-18.42875 161.19701,0 c 4.27541,0 7.71735,3.44194 7.71735,7.71735 l 0,90.33085 c 0,4.27542 -3.44194,7.71735 -7.71735,7.71735 l -161.19701,0 c -4.27541,0 -7.71735,-3.44193 -7.71735,-7.71735 l 0,-90.33085 c 0,-4.27541 3.44194,-7.71735 7.71735,-7.71735 z" />
    <path
       style="opacity:1;fill:#f30000;fill-opacity:1;fill-rule:nonzero;stroke:none;stroke-width:2;stroke-linecap:round;stroke-linejoin:round;stroke-miterlimit:4;stroke-dasharray:none;stroke-dashoffset:0;stroke-opacity:1"
       d="m 309.78487,236.35429 c -4.84261,-0.0492 -8.63801,2.04526 -12.4927,4.01892 l -3.20597,11.55889 c -7.30961,2.61995 -12.51177,9.592 -12.51177,17.82494 l 0,2.86885 0,6.13969 c 0,2.24164 0.387,4.38938 1.0958,6.38183 l 2.71998,31.08776 c 0.59604,9.94609 15.51193,11.56822 21.14416,8.81939 3.50017,-1.70827 7.19821,-12.3633 9.50342,-20.20102 a 16.716918,16.716918 0 0 0 14.41542,8.29269 16.716918,16.716918 0 0 0 16.65366,-15.44464 l 15.37976,0 a 16.716918,16.716918 0 0 0 16.66384,15.44464 16.716918,16.716918 0 0 0 14.46122,-8.36139 c 2.30373,7.84391 6.01338,18.55646 9.52378,20.26972 5.63221,2.74883 20.54812,1.1267 21.14415,-8.81939 l 2.90361,-33.18563 c 0.31583,-1.37578 0.48258,-2.80964 0.48258,-4.28396 l 0,-1.23024 0.42958,-4.90945 -0.42958,0.27648 0,-3.14533 c 0,-7.29296 -4.08217,-13.59614 -10.09498,-16.7618 L 413.8564,240.1917 c -11.44111,-6.80961 -17.76559,-3.14256 -24.25769,0.18151 l -2.8981,10.44824 -62.06692,0 -3.08384,-10.62975 c -4.64795,-2.7664 -8.45162,-3.80373 -11.76498,-3.83741 z m 94.14447,17.09429 a 5.6212314,5.6212314 0 0 1 5.62104,5.62104 5.6212314,5.6212314 0 0 1 -5.62104,5.62148 5.6212314,5.6212314 0 0 1 -5.6215,-5.62148 5.6212314,5.6212314 0 0 1 5.6215,-5.62104 z m -100.40079,4.69911 4.87469,0 c 0.76686,0 1.38417,0.61775 1.38417,1.3846 l 0,4.87426 c 0,0.0529 -0.004,0.10512 -0.009,0.15649 l 6.1e-4,0 c -6.1e-4,0.003 -10e-4,0.005 -0.002,0.008 -0.0157,0.13364 -0.0497,0.26135 -0.10051,0.38039 -0.28246,1.11549 -0.52701,2.23787 -2.72125,3.01599 l -2.03173,0 c -2.13707,-0.69949 -2.39526,-1.88349 -2.68436,-3.05925 -0.0404,-0.10445 -0.0686,-0.21479 -0.0827,-0.32992 -6.1e-4,-0.003 -0.001,-0.005 -0.002,-0.008 l 6e-4,0 c -0.006,-0.0538 -0.0106,-0.1085 -0.0106,-0.16411 l 0,-4.87427 c 0,-0.76685 0.61731,-1.38458 1.38417,-1.38458 z m 87.52006,8.18159 a 5.6212314,5.6212314 0 0 1 5.62149,5.62148 5.6212314,5.6212314 0 0 1 -5.62149,5.62105 5.6212314,5.6212314 0 0 1 -5.62148,-5.62105 5.6212314,5.6212314 0 0 1 5.62148,-5.62148 z m 25.76144,0 a 5.6212314,5.6212314 0 0 1 5.62062,5.62148 5.6212314,5.6212314 0 0 1 -5.62062,5.62105 5.6212314,5.6212314 0 0 1 -5.62149,-5.62105 5.6212314,5.6212314 0 0 1 5.62149,-5.62148 z m -122.63691,1.17426 4.87427,0 c 0.0555,0 0.11025,0.004 0.1641,0.0106 l 0,-5.6e-4 c 0.002,5.6e-4 0.004,0.001 0.007,0.002 0.11513,0.0141 0.22547,0.0423 0.32993,0.0827 1.17576,0.28911 2.35976,0.54772 3.05924,2.68479 l 4.4e-4,-4.4e-4 0,2.03173 c -0.77812,2.19424 -1.9005,2.43879 -3.01599,2.72126 -0.11903,0.0507 -0.24675,0.0848 -0.38039,0.10051 -0.002,5.5e-4 -0.005,0.001 -0.008,0.002 l 0,-5.6e-4 c -0.0514,0.005 -0.10353,0.009 -0.15648,0.009 l -4.87426,0 c -0.76686,0 -1.38459,-0.61731 -1.38459,-1.38416 l 0,-4.87469 c 0,-0.76685 0.61773,-1.38416 1.38459,-1.38416 z m 18.71168,4.3e-4 4.87385,0 c 0.76684,0 1.38458,0.61732 1.38458,1.38417 l 0,4.87469 c 0,0.76686 -0.61774,1.38416 -1.38458,1.38416 l -4.87429,0 c -0.0529,0 -0.1051,-0.004 -0.15647,-0.009 l 0,5.6e-4 c -0.002,-5.6e-4 -0.005,-0.001 -0.008,-0.002 -0.13364,-0.0157 -0.26135,-0.0497 -0.38038,-0.10052 -1.1155,-0.28246 -2.23787,-0.52701 -3.01599,-2.72125 l 0,-2.03172 c 0.69948,-2.13708 1.88347,-2.39526 3.05924,-2.68436 0.10446,-0.0405 0.2148,-0.0685 0.32992,-0.0827 0.002,-5.5e-4 0.005,-0.002 0.008,-0.003 l 0,5.5e-4 c 0.0539,-0.006 0.10852,-0.0102 0.16413,-0.0102 z m 53.58596,1.89518 3.99727,1.26542 3.98711,1.2756 -4.01,1.25398 -4.01977,1.24422 0.0124,-2.51982 0.0331,-2.5194 z m -29.11372,0.31974 5.9989,0 c 0.45227,0 0.81635,0.36407 0.81635,0.81634 l 0,2.72804 c 0,0.45227 -0.36408,0.81634 -0.81635,0.81634 l -5.9989,0 c -0.45226,0 -0.81631,-0.36407 -0.81631,-0.81634 l 0,-2.72804 c 0,-0.45227 0.36405,-0.81634 0.81631,-0.81634 z m -32.43374,4.96418 2.03172,0 c 2.19424,0.77811 2.4388,1.90049 2.72126,3.01598 0.0508,0.11903 0.0848,0.24675 0.10051,0.38039 6e-4,0.003 10e-4,0.005 0.002,0.008 l -6.1e-4,0 c 0.005,0.0514 0.009,0.10354 0.009,0.15648 l 0,4.87427 c 0,0.76685 -0.61731,1.38459 -1.38417,1.38459 l -4.87469,0 c -0.76685,0 -1.38416,-0.61774 -1.38416,-1.38459 l 0,-4.87427 c 0,-0.0556 0.004,-0.11026 0.0106,-0.16411 l -6.1e-4,0 c 6.1e-4,-0.003 10e-4,-0.005 0.002,-0.008 0.0141,-0.11512 0.0423,-0.22547 0.0827,-0.32992 0.28911,-1.17577 0.54729,-2.35976 2.68437,-3.05925 z m 99.00602,4.52652 a 5.6212314,5.6212314 0 0 1 5.62104,5.62148 5.6212314,5.6212314 0 0 1 -5.62104,5.62104 5.6212314,5.6212314 0 0 1 -5.6215,-5.62104 5.6212314,5.6212314 0 0 1 5.6215,-5.62148 z m -52.21749,5.22751 5.99847,0 c 0.45227,0 0.81675,0.36406 0.81675,0.81634 l 0,2.72804 c 0,0.45227 -0.36448,0.81634 -0.81675,0.81634 l -5.99847,0 c -0.45226,0 -0.81675,-0.36407 -0.81675,-0.81634 l 0,-2.72804 c 0,-0.45228 0.36449,-0.81634 0.81675,-0.81634 z m -21.65304,0.0907 a 12.23383,12.23383 0 0 1 12.2336,12.23359 12.23383,12.23383 0 0 1 -12.2336,12.23401 12.23383,12.23383 0 0 1 -12.23401,-12.23401 12.23383,12.23383 0 0 1 12.23401,-12.23359 z m 50.24131,0 a 12.23383,12.23383 0 0 1 12.23401,12.23359 12.23383,12.23383 0 0 1 -12.23401,12.23401 12.23383,12.23383 0 0 1 -12.23357,-12.23401 12.23383,12.23383 0 0 1 12.23357,-12.23359 z"
       id="rect4921"
       inkscape:connector-curvature="0" />
  </g>
</svg>
