<?xml version="1.0" encoding="UTF-8" standalone="no"?>
<!-- Created with Inkscape (http://www.inkscape.org/) -->

<svg
   xmlns:dc="http://purl.org/dc/elements/1.1/"
   xmlns:cc="http://creativecommons.org/ns#"
   xmlns:rdf="http://www.w3.org/1999/02/22-rdf-syntax-ns#"
   xmlns:svg="http://www.w3.org/2000/svg"
   xmlns="http://www.w3.org/2000/svg"
   xmlns:sodipodi="http://sodipodi.sourceforge.net/DTD/sodipodi-0.dtd"
   xmlns:inkscape="http://www.inkscape.org/namespaces/inkscape"
   width="1052.3622"
   height="744.09448"
   id="svg2"
   version="1.1"
   inkscape:version="0.91 r13725"
   sodipodi:docname="panel.svg">
  <defs
     id="defs4" />
  <sodipodi:namedview
     id="base"
     pagecolor="#ffffff"
     bordercolor="#666666"
     borderopacity="1.0"
     inkscape:pageopacity="0.0"
     inkscape:pageshadow="2"
     inkscape:zoom="0.59746094"
     inkscape:cx="759.11337"
     inkscape:cy="272.22778"
     inkscape:document-units="mm"
     inkscape:current-layer="layer2"
     showgrid="false"
     showguides="false"
     inkscape:guide-bbox="true"
     inkscape:snap-grids="true"
     inkscape:window-width="1920"
     inkscape:window-height="1009"
     inkscape:window-x="1280"
     inkscape:window-y="0"
     inkscape:window-maximized="1">
    <inkscape:grid
       type="xygrid"
       id="grid5288"
       empspacing="5"
       visible="true"
       enabled="true"
       snapvisiblegridlinesonly="true"
       units="mm"
       spacingx="1mm"
       spacingy="1mm" />
    <sodipodi:guide
       orientation="1,0"
       position="478.34646,322.44094"
       id="guide5420" />
    <sodipodi:guide
       orientation="1,0"
       position="265.74803,194.88189"
       id="guide5422" />
    <sodipodi:guide
       orientation="1,0"
       position="159.44882,177.16535"
       id="guide5424" />
    <sodipodi:guide
       orientation="0,1"
       position="609.44882,403.93701"
       id="guide5426" />
  </sodipodi:namedview>
  <metadata
     id="metadata7">
    <rdf:RDF>
      <cc:Work
         rdf:about="">
        <dc:format>image/svg+xml</dc:format>
        <dc:type
           rdf:resource="http://purl.org/dc/dcmitype/StillImage" />
        <dc:title />
      </cc:Work>
    </rdf:RDF>
  </metadata>
  <g
     inkscape:groupmode="layer"
     id="layer2"
     inkscape:label="fond"
     style="display:inline" />
  <g
     inkscape:label="Calque 1"
     inkscape:groupmode="layer"
     id="layer1"
     transform="translate(0,-308.2677)">
    <g
       id="g5768"
       transform="translate(0,5.9999965)">
      <g
         id="g5726">
        <g
           style="stroke:#000000;stroke-opacity:1"
           id="g5266"
           transform="translate(-73.056848,287.81504)">
          <path
             transform="matrix(0.96147341,0,0,0.96147341,65.448193,154.38915)"
             d="m 559.62451,320.33548 a 48.992397,48.992397 0 0 1 -48.9924,48.9924 48.992397,48.992397 0 0 1 -48.9924,-48.9924 48.992397,48.992397 0 0 1 48.9924,-48.9924 48.992397,48.992397 0 0 1 48.9924,48.9924 z"
             sodipodi:ry="48.992397"
             sodipodi:rx="48.992397"
             sodipodi:cy="320.33548"
             sodipodi:cx="510.63211"
             id="path4112"
             style="fill:none;stroke:#000000;stroke-width:1.04007041;stroke-linecap:round;stroke-linejoin:bevel;stroke-miterlimit:4;stroke-opacity:1;stroke-dasharray:12.48084437, 12.48084437;stroke-dashoffset:0;marker-mid:none"
             sodipodi:type="arc" />
          <path
             sodipodi:type="arc"
             style="fill:none;stroke:#000000;stroke-width:0.41186786;stroke-linecap:round;stroke-linejoin:bevel;stroke-miterlimit:4;stroke-opacity:1;stroke-dasharray:0.8237357, 2.4712071;stroke-dashoffset:0;marker-mid:none"
             id="path5062"
             sodipodi:cx="510.63211"
             sodipodi:cy="320.33548"
             sodipodi:rx="48.992397"
             sodipodi:ry="48.992397"
             d="m 559.62451,320.33548 a 48.992397,48.992397 0 0 1 -48.9924,48.9924 48.992397,48.992397 0 0 1 -48.9924,-48.9924 48.992397,48.992397 0 0 1 48.9924,-48.9924 48.992397,48.992397 0 0 1 48.9924,48.9924 z"
             transform="matrix(1.1751342,0,0,1.1751342,-43.653867,85.946022)" />
          <path
             inkscape:connector-curvature="0"
             id="path5076"
             d="m 523.72882,462.3832 65.35714,0"
             style="fill:none;stroke:#000000;stroke-width:1;stroke-linecap:square;stroke-linejoin:miter;stroke-miterlimit:4;stroke-opacity:1;stroke-dasharray:8, 2, 1, 2;stroke-dashoffset:0" />
          <path
             style="fill:none;stroke:#000000;stroke-width:1;stroke-linecap:square;stroke-linejoin:miter;stroke-miterlimit:4;stroke-opacity:1;stroke-dasharray:8, 2, 1, 2;stroke-dashoffset:0"
             d="m 556.40739,495.06177 0,-65.35714"
             id="path5078"
             inkscape:connector-curvature="0" />
        </g>
        <g
           style="stroke:#000000;stroke-opacity:1"
           id="g5272"
           transform="translate(47.415592,238.20874)">
          <path
             sodipodi:type="arc"
             style="fill:none;stroke:#000000;stroke-width:1.04007041;stroke-linecap:round;stroke-linejoin:bevel;stroke-miterlimit:4;stroke-opacity:1;stroke-dasharray:12.48084437, 12.48084437;stroke-dashoffset:0;marker-mid:none"
             id="path5274"
             sodipodi:cx="510.63211"
             sodipodi:cy="320.33548"
             sodipodi:rx="48.992397"
             sodipodi:ry="48.992397"
             d="m 559.62451,320.33548 a 48.992397,48.992397 0 0 1 -48.9924,48.9924 48.992397,48.992397 0 0 1 -48.9924,-48.9924 48.992397,48.992397 0 0 1 48.9924,-48.9924 48.992397,48.992397 0 0 1 48.9924,48.9924 z"
             transform="matrix(0.96147341,0,0,0.96147341,65.448193,154.38915)" />
          <path
             transform="matrix(1.1751342,0,0,1.1751342,-43.653867,85.946022)"
             d="m 559.62451,320.33548 a 48.992397,48.992397 0 0 1 -48.9924,48.9924 48.992397,48.992397 0 0 1 -48.9924,-48.9924 48.992397,48.992397 0 0 1 48.9924,-48.9924 48.992397,48.992397 0 0 1 48.9924,48.9924 z"
             sodipodi:ry="48.992397"
             sodipodi:rx="48.992397"
             sodipodi:cy="320.33548"
             sodipodi:cx="510.63211"
             id="path5276"
             style="fill:none;stroke:#000000;stroke-width:0.41186786;stroke-linecap:round;stroke-linejoin:bevel;stroke-miterlimit:4;stroke-opacity:1;stroke-dasharray:0.8237357, 2.4712071;stroke-dashoffset:0;marker-mid:none"
             sodipodi:type="arc" />
          <path
             style="fill:none;stroke:#000000;stroke-width:1;stroke-linecap:square;stroke-linejoin:miter;stroke-miterlimit:4;stroke-opacity:1;stroke-dasharray:8, 2, 1, 2;stroke-dashoffset:0"
             d="m 523.72882,462.3832 65.35714,0"
             id="path5278"
             inkscape:connector-curvature="0" />
          <path
             inkscape:connector-curvature="0"
             id="path5280"
             d="m 556.40739,495.06177 0,-65.35714"
             style="fill:none;stroke:#000000;stroke-width:1;stroke-linecap:square;stroke-linejoin:miter;stroke-miterlimit:4;stroke-opacity:1;stroke-dasharray:8, 2, 1, 2;stroke-dashoffset:0" />
        </g>
        <g
           style="stroke:#000000;stroke-opacity:1"
           transform="translate(174.97465,267.93962)"
           id="g5294">
          <path
             transform="matrix(0.96147341,0,0,0.96147341,65.448193,154.38915)"
             d="m 559.62451,320.33548 a 48.992397,48.992397 0 0 1 -48.9924,48.9924 48.992397,48.992397 0 0 1 -48.9924,-48.9924 48.992397,48.992397 0 0 1 48.9924,-48.9924 48.992397,48.992397 0 0 1 48.9924,48.9924 z"
             sodipodi:ry="48.992397"
             sodipodi:rx="48.992397"
             sodipodi:cy="320.33548"
             sodipodi:cx="510.63211"
             id="path5296"
             style="fill:none;stroke:#000000;stroke-width:1.04007041;stroke-linecap:round;stroke-linejoin:bevel;stroke-miterlimit:4;stroke-opacity:1;stroke-dasharray:12.48084437, 12.48084437;stroke-dashoffset:0;marker-mid:none"
             sodipodi:type="arc" />
          <path
             sodipodi:type="arc"
             style="fill:none;stroke:#000000;stroke-width:0.41186786;stroke-linecap:round;stroke-linejoin:bevel;stroke-miterlimit:4;stroke-opacity:1;stroke-dasharray:0.8237357, 2.4712071;stroke-dashoffset:0;marker-mid:none"
             id="path5298"
             sodipodi:cx="510.63211"
             sodipodi:cy="320.33548"
             sodipodi:rx="48.992397"
             sodipodi:ry="48.992397"
             d="m 559.62451,320.33548 a 48.992397,48.992397 0 0 1 -48.9924,48.9924 48.992397,48.992397 0 0 1 -48.9924,-48.9924 48.992397,48.992397 0 0 1 48.9924,-48.9924 48.992397,48.992397 0 0 1 48.9924,48.9924 z"
             transform="matrix(1.1751342,0,0,1.1751342,-43.653867,85.946022)" />
          <path
             inkscape:connector-curvature="0"
             id="path5300"
             d="m 523.72882,462.3832 65.35714,0"
             style="fill:none;stroke:#000000;stroke-width:1;stroke-linecap:square;stroke-linejoin:miter;stroke-miterlimit:4;stroke-opacity:1;stroke-dasharray:8, 2, 1, 2;stroke-dashoffset:0" />
          <path
             style="fill:none;stroke:#000000;stroke-width:1;stroke-linecap:square;stroke-linejoin:miter;stroke-miterlimit:4;stroke-opacity:1;stroke-dasharray:8, 2, 1, 2;stroke-dashoffset:0"
             d="m 556.40739,495.06177 0,-65.35714"
             id="path5302"
             inkscape:connector-curvature="0" />
        </g>
        <g
           style="stroke:#000000;stroke-opacity:1"
           id="g5304"
           transform="translate(295.44709,321.08923)">
          <path
             sodipodi:type="arc"
             style="fill:none;stroke:#000000;stroke-width:1.04007041;stroke-linecap:round;stroke-linejoin:bevel;stroke-miterlimit:4;stroke-opacity:1;stroke-dasharray:12.48084437, 12.48084437;stroke-dashoffset:0;marker-mid:none"
             id="path5306"
             sodipodi:cx="510.63211"
             sodipodi:cy="320.33548"
             sodipodi:rx="48.992397"
             sodipodi:ry="48.992397"
             d="m 559.62451,320.33548 a 48.992397,48.992397 0 0 1 -48.9924,48.9924 48.992397,48.992397 0 0 1 -48.9924,-48.9924 48.992397,48.992397 0 0 1 48.9924,-48.9924 48.992397,48.992397 0 0 1 48.9924,48.9924 z"
             transform="matrix(0.96147341,0,0,0.96147341,65.448193,154.38915)" />
          <path
             transform="matrix(1.1751342,0,0,1.1751342,-43.653867,85.946022)"
             d="m 559.62451,320.33548 a 48.992397,48.992397 0 0 1 -48.9924,48.9924 48.992397,48.992397 0 0 1 -48.9924,-48.9924 48.992397,48.992397 0 0 1 48.9924,-48.9924 48.992397,48.992397 0 0 1 48.9924,48.9924 z"
             sodipodi:ry="48.992397"
             sodipodi:rx="48.992397"
             sodipodi:cy="320.33548"
             sodipodi:cx="510.63211"
             id="path5308"
             style="fill:none;stroke:#000000;stroke-width:0.41186786;stroke-linecap:round;stroke-linejoin:bevel;stroke-miterlimit:4;stroke-opacity:1;stroke-dasharray:0.8237357, 2.4712071;stroke-dashoffset:0;marker-mid:none"
             sodipodi:type="arc" />
          <path
             style="fill:none;stroke:#000000;stroke-width:1;stroke-linecap:square;stroke-linejoin:miter;stroke-miterlimit:4;stroke-opacity:1;stroke-dasharray:8, 2, 1, 2;stroke-dashoffset:0"
             d="m 523.72882,462.3832 65.35714,0"
             id="path5310"
             inkscape:connector-curvature="0" />
          <path
             inkscape:connector-curvature="0"
             id="path5312"
             d="m 556.40739,495.06177 0,-65.35714"
             style="fill:none;stroke:#000000;stroke-width:1;stroke-linecap:square;stroke-linejoin:miter;stroke-miterlimit:4;stroke-opacity:1;stroke-dasharray:8, 2, 1, 2;stroke-dashoffset:0" />
        </g>
        <g
           style="stroke:#000000;stroke-opacity:1"
           transform="translate(-47.46489,152.38056)"
           id="g5338">
          <path
             sodipodi:type="arc"
             style="fill:none;stroke:#000000;stroke-width:1.04007041;stroke-linecap:round;stroke-linejoin:bevel;stroke-miterlimit:4;stroke-opacity:1;stroke-dasharray:12.48084437, 12.48084437;stroke-dashoffset:0;marker-mid:none"
             id="path5340"
             sodipodi:cx="510.63211"
             sodipodi:cy="320.33548"
             sodipodi:rx="48.992397"
             sodipodi:ry="48.992397"
             d="m 559.62451,320.33548 a 48.992397,48.992397 0 0 1 -48.9924,48.9924 48.992397,48.992397 0 0 1 -48.9924,-48.9924 48.992397,48.992397 0 0 1 48.9924,-48.9924 48.992397,48.992397 0 0 1 48.9924,48.9924 z"
             transform="matrix(0.96147341,0,0,0.96147341,65.448193,154.38915)" />
          <path
             transform="matrix(1.1751342,0,0,1.1751342,-43.653867,85.946022)"
             d="m 559.62451,320.33548 a 48.992397,48.992397 0 0 1 -48.9924,48.9924 48.992397,48.992397 0 0 1 -48.9924,-48.9924 48.992397,48.992397 0 0 1 48.9924,-48.9924 48.992397,48.992397 0 0 1 48.9924,48.9924 z"
             sodipodi:ry="48.992397"
             sodipodi:rx="48.992397"
             sodipodi:cy="320.33548"
             sodipodi:cx="510.63211"
             id="path5342"
             style="fill:none;stroke:#000000;stroke-width:0.41186786;stroke-linecap:round;stroke-linejoin:bevel;stroke-miterlimit:4;stroke-opacity:1;stroke-dasharray:0.8237357, 2.4712071;stroke-dashoffset:0;marker-mid:none"
             sodipodi:type="arc" />
          <path
             style="fill:none;stroke:#000000;stroke-width:1;stroke-linecap:square;stroke-linejoin:miter;stroke-miterlimit:4;stroke-opacity:1;stroke-dasharray:8, 2, 1, 2;stroke-dashoffset:0"
             d="m 523.72882,462.3832 65.35714,0"
             id="path5344"
             inkscape:connector-curvature="0" />
          <path
             inkscape:connector-curvature="0"
             id="path5346"
             d="m 556.40739,495.06177 0,-65.35714"
             style="fill:none;stroke:#000000;stroke-width:1;stroke-linecap:square;stroke-linejoin:miter;stroke-miterlimit:4;stroke-opacity:1;stroke-dasharray:8, 2, 1, 2;stroke-dashoffset:0" />
        </g>
        <g
           style="stroke:#000000;stroke-opacity:1"
           transform="translate(73.00755,102.77426)"
           id="g5348">
          <path
             transform="matrix(0.96147341,0,0,0.96147341,65.448193,154.38915)"
             d="m 559.62451,320.33548 a 48.992397,48.992397 0 0 1 -48.9924,48.9924 48.992397,48.992397 0 0 1 -48.9924,-48.9924 48.992397,48.992397 0 0 1 48.9924,-48.9924 48.992397,48.992397 0 0 1 48.9924,48.9924 z"
             sodipodi:ry="48.992397"
             sodipodi:rx="48.992397"
             sodipodi:cy="320.33548"
             sodipodi:cx="510.63211"
             id="path5350"
             style="fill:none;stroke:#000000;stroke-width:1.04007041;stroke-linecap:round;stroke-linejoin:bevel;stroke-miterlimit:4;stroke-opacity:1;stroke-dasharray:12.48084437, 12.48084437;stroke-dashoffset:0;marker-mid:none"
             sodipodi:type="arc" />
          <path
             sodipodi:type="arc"
             style="fill:none;stroke:#000000;stroke-width:0.41186786;stroke-linecap:round;stroke-linejoin:bevel;stroke-miterlimit:4;stroke-opacity:1;stroke-dasharray:0.8237357, 2.4712071;stroke-dashoffset:0;marker-mid:none"
             id="path5352"
             sodipodi:cx="510.63211"
             sodipodi:cy="320.33548"
             sodipodi:rx="48.992397"
             sodipodi:ry="48.992397"
             d="m 559.62451,320.33548 a 48.992397,48.992397 0 0 1 -48.9924,48.9924 48.992397,48.992397 0 0 1 -48.9924,-48.9924 48.992397,48.992397 0 0 1 48.9924,-48.9924 48.992397,48.992397 0 0 1 48.9924,48.9924 z"
             transform="matrix(1.1751342,0,0,1.1751342,-43.653867,85.946022)" />
          <path
             inkscape:connector-curvature="0"
             id="path5354"
             d="m 523.72882,462.3832 65.35714,0"
             style="fill:none;stroke:#000000;stroke-width:1;stroke-linecap:square;stroke-linejoin:miter;stroke-miterlimit:4;stroke-opacity:1;stroke-dasharray:8, 2, 1, 2;stroke-dashoffset:0" />
          <path
             style="fill:none;stroke:#000000;stroke-width:1;stroke-linecap:square;stroke-linejoin:miter;stroke-miterlimit:4;stroke-opacity:1;stroke-dasharray:8, 2, 1, 2;stroke-dashoffset:0"
             d="m 556.40739,495.06177 0,-65.35714"
             id="path5356"
             inkscape:connector-curvature="0" />
        </g>
        <g
           style="stroke:#000000;stroke-opacity:1"
           id="g5358"
           transform="translate(200.5666,132.50514)">
          <path
             sodipodi:type="arc"
             style="fill:none;stroke:#000000;stroke-width:1.04007041;stroke-linecap:round;stroke-linejoin:bevel;stroke-miterlimit:4;stroke-opacity:1;stroke-dasharray:12.48084437, 12.48084437;stroke-dashoffset:0;marker-mid:none"
             id="path5360"
             sodipodi:cx="510.63211"
             sodipodi:cy="320.33548"
             sodipodi:rx="48.992397"
             sodipodi:ry="48.992397"
             d="m 559.62451,320.33548 a 48.992397,48.992397 0 0 1 -48.9924,48.9924 48.992397,48.992397 0 0 1 -48.9924,-48.9924 48.992397,48.992397 0 0 1 48.9924,-48.9924 48.992397,48.992397 0 0 1 48.9924,48.9924 z"
             transform="matrix(0.96147341,0,0,0.96147341,65.448193,154.38915)" />
          <path
             transform="matrix(1.1751342,0,0,1.1751342,-43.653867,85.946022)"
             d="m 559.62451,320.33548 a 48.992397,48.992397 0 0 1 -48.9924,48.9924 48.992397,48.992397 0 0 1 -48.9924,-48.9924 48.992397,48.992397 0 0 1 48.9924,-48.9924 48.992397,48.992397 0 0 1 48.9924,48.9924 z"
             sodipodi:ry="48.992397"
             sodipodi:rx="48.992397"
             sodipodi:cy="320.33548"
             sodipodi:cx="510.63211"
             id="path5362"
             style="fill:none;stroke:#000000;stroke-width:0.41186786;stroke-linecap:round;stroke-linejoin:bevel;stroke-miterlimit:4;stroke-opacity:1;stroke-dasharray:0.8237357, 2.4712071;stroke-dashoffset:0;marker-mid:none"
             sodipodi:type="arc" />
          <path
             style="fill:none;stroke:#000000;stroke-width:1;stroke-linecap:square;stroke-linejoin:miter;stroke-miterlimit:4;stroke-opacity:1;stroke-dasharray:8, 2, 1, 2;stroke-dashoffset:0"
             d="m 523.72882,462.3832 65.35714,0"
             id="path5364"
             inkscape:connector-curvature="0" />
          <path
             inkscape:connector-curvature="0"
             id="path5366"
             d="m 556.40739,495.06177 0,-65.35714"
             style="fill:none;stroke:#000000;stroke-width:1;stroke-linecap:square;stroke-linejoin:miter;stroke-miterlimit:4;stroke-opacity:1;stroke-dasharray:8, 2, 1, 2;stroke-dashoffset:0" />
        </g>
        <g
           style="stroke:#000000;stroke-opacity:1"
           transform="translate(321.03904,185.65475)"
           id="g5368">
          <path
             transform="matrix(0.96147341,0,0,0.96147341,65.448193,154.38915)"
             d="m 559.62451,320.33548 a 48.992397,48.992397 0 0 1 -48.9924,48.9924 48.992397,48.992397 0 0 1 -48.9924,-48.9924 48.992397,48.992397 0 0 1 48.9924,-48.9924 48.992397,48.992397 0 0 1 48.9924,48.9924 z"
             sodipodi:ry="48.992397"
             sodipodi:rx="48.992397"
             sodipodi:cy="320.33548"
             sodipodi:cx="510.63211"
             id="path5370"
             style="fill:none;stroke:#000000;stroke-width:1.04007041;stroke-linecap:round;stroke-linejoin:bevel;stroke-miterlimit:4;stroke-opacity:1;stroke-dasharray:12.48084437, 12.48084437;stroke-dashoffset:0;marker-mid:none"
             sodipodi:type="arc" />
          <path
             sodipodi:type="arc"
             style="fill:none;stroke:#000000;stroke-width:0.41186786;stroke-linecap:round;stroke-linejoin:bevel;stroke-miterlimit:4;stroke-opacity:1;stroke-dasharray:0.8237357, 2.4712071;stroke-dashoffset:0;marker-mid:none"
             id="path5372"
             sodipodi:cx="510.63211"
             sodipodi:cy="320.33548"
             sodipodi:rx="48.992397"
             sodipodi:ry="48.992397"
             d="m 559.62451,320.33548 a 48.992397,48.992397 0 0 1 -48.9924,48.9924 48.992397,48.992397 0 0 1 -48.9924,-48.9924 48.992397,48.992397 0 0 1 48.9924,-48.9924 48.992397,48.992397 0 0 1 48.9924,48.9924 z"
             transform="matrix(1.1751342,0,0,1.1751342,-43.653867,85.946022)" />
          <path
             inkscape:connector-curvature="0"
             id="path5374"
             d="m 523.72882,462.3832 65.35714,0"
             style="fill:none;stroke:#000000;stroke-width:1;stroke-linecap:square;stroke-linejoin:miter;stroke-miterlimit:4;stroke-opacity:1;stroke-dasharray:8, 2, 1, 2;stroke-dashoffset:0" />
          <path
             style="fill:none;stroke:#000000;stroke-width:1;stroke-linecap:square;stroke-linejoin:miter;stroke-miterlimit:4;stroke-opacity:1;stroke-dasharray:8, 2, 1, 2;stroke-dashoffset:0"
             d="m 556.40739,495.06177 0,-65.35714"
             id="path5376"
             inkscape:connector-curvature="0" />
        </g>
      </g>
      <g
         style="stroke:#000000;stroke-opacity:1"
         transform="translate(4.2152791,52.166758)"
         id="g5438">
        <path
           sodipodi:type="arc"
           style="fill:none;stroke:#000000;stroke-width:1;stroke-linecap:square;stroke-linejoin:bevel;stroke-miterlimit:4;stroke-opacity:1;stroke-dasharray:12, 12;stroke-dashoffset:0"
           id="path5432"
           sodipodi:cx="159.44882"
           sodipodi:cy="340.15747"
           sodipodi:rx="46.062992"
           sodipodi:ry="46.062992"
           d="m 205.51181,340.15747 a 46.062992,46.062992 0 0 1 -46.06299,46.06299 46.062992,46.062992 0 0 1 -46.06299,-46.06299 46.062992,46.062992 0 0 1 46.06299,-46.06299 46.062992,46.062992 0 0 1 46.06299,46.06299 z"
           transform="translate(0,308.2677)" />
        <path
           style="fill:none;stroke:#000000;stroke-width:1;stroke-linecap:butt;stroke-linejoin:miter;stroke-miterlimit:4;stroke-opacity:1;stroke-dasharray:8, 2, 1, 2;stroke-dashoffset:0"
           d="m 159.44882,322.44094 0,35.43307"
           id="path5434"
           inkscape:connector-curvature="0"
           transform="translate(0,308.2677)"
           sodipodi:nodetypes="cc" />
        <path
           style="fill:none;stroke:#000000;stroke-width:1;stroke-linecap:butt;stroke-linejoin:miter;stroke-miterlimit:4;stroke-opacity:1;stroke-dasharray:8, 2, 1, 2;stroke-dashoffset:0"
           d="m 141.73228,340.15747 35.43307,0"
           id="path5436"
           inkscape:connector-curvature="0"
           transform="translate(0,308.2677)" />
      </g>
    </g>
    <g
       id="g5575"
       transform="translate(267.38731,-60.777552)"
       style="stroke:#000000;stroke-opacity:1">
      <path
         transform="matrix(0.96147341,0,0,0.96147341,65.448193,154.38915)"
         d="m 559.62451,320.33548 a 48.992397,48.992397 0 0 1 -48.9924,48.9924 48.992397,48.992397 0 0 1 -48.9924,-48.9924 48.992397,48.992397 0 0 1 48.9924,-48.9924 48.992397,48.992397 0 0 1 48.9924,48.9924 z"
         sodipodi:ry="48.992397"
         sodipodi:rx="48.992397"
         sodipodi:cy="320.33548"
         sodipodi:cx="510.63211"
         id="path5577"
         style="fill:none;stroke:#000000;stroke-width:1.04007041000000000;stroke-linecap:round;stroke-linejoin:bevel;stroke-miterlimit:4;stroke-opacity:1;stroke-dasharray:12.48084436999999980, 12.48084436999999980;stroke-dashoffset:0;marker-mid:none"
         sodipodi:type="arc" />
      <path
         sodipodi:type="arc"
         style="fill:none;stroke:#000000;stroke-width:0.41186785999999997;stroke-linecap:round;stroke-linejoin:bevel;stroke-miterlimit:4;stroke-opacity:1;stroke-dasharray:0.82373569999999996, 2.47120709999999999;stroke-dashoffset:0;marker-mid:none"
         id="path5579"
         sodipodi:cx="510.63211"
         sodipodi:cy="320.33548"
         sodipodi:rx="48.992397"
         sodipodi:ry="48.992397"
         d="m 559.62451,320.33548 a 48.992397,48.992397 0 0 1 -48.9924,48.9924 48.992397,48.992397 0 0 1 -48.9924,-48.9924 48.992397,48.992397 0 0 1 48.9924,-48.9924 48.992397,48.992397 0 0 1 48.9924,48.9924 z"
         transform="matrix(1.1751342,0,0,1.1751342,-43.653867,85.946022)" />
      <path
         inkscape:connector-curvature="0"
         id="path5581"
         d="m 523.72882,462.3832 65.35714,0"
         style="fill:none;stroke:#000000;stroke-width:1;stroke-linecap:square;stroke-linejoin:miter;stroke-miterlimit:4;stroke-opacity:1;stroke-dasharray:8, 2, 1, 2;stroke-dashoffset:0" />
      <path
         style="fill:none;stroke:#000000;stroke-width:1;stroke-linecap:square;stroke-linejoin:miter;stroke-miterlimit:4;stroke-opacity:1;stroke-dasharray:8, 2, 1, 2;stroke-dashoffset:0"
         d="m 556.40739,495.06177 0,-65.35714"
         id="path5583"
         inkscape:connector-curvature="0" />
    </g>
    <g
       transform="translate(400.72745,-60.777552)"
       id="g5627"
       style="stroke:#000000;stroke-opacity:1">
      <path
         sodipodi:type="arc"
         style="fill:none;stroke:#000000;stroke-width:1.04007041000000000;stroke-linecap:round;stroke-linejoin:bevel;stroke-miterlimit:4;stroke-opacity:1;stroke-dasharray:12.48084436999999980, 12.48084436999999980;stroke-dashoffset:0;marker-mid:none"
         id="path5629"
         sodipodi:cx="510.63211"
         sodipodi:cy="320.33548"
         sodipodi:rx="48.992397"
         sodipodi:ry="48.992397"
         d="m 559.62451,320.33548 a 48.992397,48.992397 0 0 1 -48.9924,48.9924 48.992397,48.992397 0 0 1 -48.9924,-48.9924 48.992397,48.992397 0 0 1 48.9924,-48.9924 48.992397,48.992397 0 0 1 48.9924,48.9924 z"
         transform="matrix(0.96147341,0,0,0.96147341,65.448193,154.38915)" />
      <path
         transform="matrix(1.1751342,0,0,1.1751342,-43.653867,85.946022)"
         d="m 559.62451,320.33548 a 48.992397,48.992397 0 0 1 -48.9924,48.9924 48.992397,48.992397 0 0 1 -48.9924,-48.9924 48.992397,48.992397 0 0 1 48.9924,-48.9924 48.992397,48.992397 0 0 1 48.9924,48.9924 z"
         sodipodi:ry="48.992397"
         sodipodi:rx="48.992397"
         sodipodi:cy="320.33548"
         sodipodi:cx="510.63211"
         id="path5631"
         style="fill:none;stroke:#000000;stroke-width:0.41186785999999997;stroke-linecap:round;stroke-linejoin:bevel;stroke-miterlimit:4;stroke-opacity:1;stroke-dasharray:0.82373569999999996, 2.47120709999999999;stroke-dashoffset:0;marker-mid:none"
         sodipodi:type="arc" />
      <path
         style="fill:none;stroke:#000000;stroke-width:1;stroke-linecap:square;stroke-linejoin:miter;stroke-miterlimit:4;stroke-opacity:1;stroke-dasharray:8, 2, 1, 2;stroke-dashoffset:0"
         d="m 523.72882,462.3832 65.35714,0"
         id="path5633"
         inkscape:connector-curvature="0" />
      <path
         inkscape:connector-curvature="0"
         id="path5635"
         d="m 556.40739,495.06177 0,-65.35714"
         style="fill:none;stroke:#000000;stroke-width:1;stroke-linecap:square;stroke-linejoin:miter;stroke-miterlimit:4;stroke-opacity:1;stroke-dasharray:8, 2, 1, 2;stroke-dashoffset:0" />
    </g>
  </g>
</svg>
