<?xml version="1.0" encoding="UTF-8" standalone="no"?>
<!-- Created with Inkscape (http://www.inkscape.org/) -->

<svg
   xmlns:dc="http://purl.org/dc/elements/1.1/"
   xmlns:cc="http://creativecommons.org/ns#"
   xmlns:rdf="http://www.w3.org/1999/02/22-rdf-syntax-ns#"
   xmlns:svg="http://www.w3.org/2000/svg"
   xmlns="http://www.w3.org/2000/svg"
   xmlns:sodipodi="http://sodipodi.sourceforge.net/DTD/sodipodi-0.dtd"
   xmlns:inkscape="http://www.inkscape.org/namespaces/inkscape"
   width="1280mm"
   height="880mm"
   viewBox="0 0 4535.4331 3118.1103"
   id="svg4240"
   version="1.1"
   inkscape:version="0.91 r13725"
   sodipodi:docname="plan2.svg">
  <title
     id="title6267">BorneArcade Blueprints</title>
  <defs
     id="defs4242">
    <marker
       inkscape:stockid="Arrow1Lstart"
       orient="auto"
       refY="0"
       refX="0"
       id="marker12211"
       style="overflow:visible"
       inkscape:isstock="true">
      <path
         id="path12213"
         d="M 0,0 5,-5 -12.5,0 5,5 0,0 Z"
         style="fill:#000000;fill-opacity:1;fill-rule:evenodd;stroke:#000000;stroke-width:1pt;stroke-opacity:1"
         transform="matrix(0.8,0,0,0.8,10,0)"
         inkscape:connector-curvature="0" />
    </marker>
    <marker
       inkscape:stockid="Arrow1Lend"
       orient="auto"
       refY="0"
       refX="0"
       id="marker12221"
       style="overflow:visible"
       inkscape:isstock="true">
      <path
         id="path12223"
         d="M 0,0 5,-5 -12.5,0 5,5 0,0 Z"
         style="fill:#000000;fill-opacity:1;fill-rule:evenodd;stroke:#000000;stroke-width:1pt;stroke-opacity:1"
         transform="matrix(-0.8,0,0,-0.8,-10,0)"
         inkscape:connector-curvature="0" />
    </marker>
  </defs>
  <sodipodi:namedview
     id="base"
     pagecolor="#ffffff"
     bordercolor="#666666"
     borderopacity="1.0"
     inkscape:pageopacity="0.0"
     inkscape:pageshadow="2"
     inkscape:zoom="0.14667366"
     inkscape:cx="1930.4553"
     inkscape:cy="1560.833"
     inkscape:document-units="mm"
     inkscape:current-layer="layer4"
     showgrid="false"
     inkscape:window-width="1920"
     inkscape:window-height="1009"
     inkscape:window-x="1280"
     inkscape:window-y="0"
     inkscape:window-maximized="1" />
  <metadata
     id="metadata4245">
    <rdf:RDF>
      <cc:Work
         rdf:about="">
        <dc:format>image/svg+xml</dc:format>
        <dc:type
           rdf:resource="http://purl.org/dc/dcmitype/StillImage" />
        <dc:title>BorneArcade Blueprints</dc:title>
        <dc:creator>
          <cc:Agent>
            <dc:title>Jérôme Labidurie</dc:title>
          </cc:Agent>
        </dc:creator>
        <dc:publisher>
          <cc:Agent>
            <dc:title>Fablab Lannion</dc:title>
          </cc:Agent>
        </dc:publisher>
        <dc:source>http://u.dinask.eu/arcade</dc:source>
        <dc:contributor>
          <cc:Agent>
            <dc:title>JJL</dc:title>
          </cc:Agent>
        </dc:contributor>
        <cc:license
           rdf:resource="http://creativecommons.org/licenses/by-sa/3.0/" />
      </cc:Work>
      <cc:License
         rdf:about="http://creativecommons.org/licenses/by-sa/3.0/">
        <cc:permits
           rdf:resource="http://creativecommons.org/ns#Reproduction" />
        <cc:permits
           rdf:resource="http://creativecommons.org/ns#Distribution" />
        <cc:requires
           rdf:resource="http://creativecommons.org/ns#Notice" />
        <cc:requires
           rdf:resource="http://creativecommons.org/ns#Attribution" />
        <cc:permits
           rdf:resource="http://creativecommons.org/ns#DerivativeWorks" />
        <cc:requires
           rdf:resource="http://creativecommons.org/ns#ShareAlike" />
      </cc:License>
    </rdf:RDF>
  </metadata>
  <g
     inkscape:label="Composants"
     inkscape:groupmode="layer"
     id="layer1"
     transform="translate(0,2065.7481)"
     style="display:inline" />
  <g
     inkscape:groupmode="layer"
     id="layer2"
     inkscape:label="Plan"
     style="display:inline">
    <path
       d="m 2845.3756,487.20875 17.4473,-3.0764 -9.9061,-56.1806 -17.4474,3.0765 z m -19.6893,-111.6631 17.4474,-3.0765 -9.8754,-56.006 -17.4474,3.0764 z m 39.3477,223.152 17.4474,-3.0766 -9.8754,-56.0061 -17.4474,3.0765 z m -227.6816,745.91345 -106.122,0 0,17.7165 -106.6536,0 0,-17.7165 -106.122,0 0,-76.942 -17.7165,0 0,-77.4734 17.7165,0 0,-76.7647 -17.7165,0 0,-77.4732 17.7165,0 0,-76.76465 -17.7165,0 0,-77.4734 17.7165,0 0,-76.7647 -17.7165,0 0,-77.4733 17.7165,0 0,-76.7647 -17.7165,0 0,-77.4735 17.7165,0 0,-76.7647 -17.7165,0 0,-77.4733 17.7165,0 0,-76.7646 -17.7165,0 0,-77.47338 17.7165,0 0,-76.7648 -17.7165,0 0,-77.4733 17.7165,0 0,-76.941803 141.5552,0 0,-17.7166 142.0866,0 0,17.7166 141.378,0 0,-17.7166 142.0866,0 0,17.7166 141.3779,0 0,-17.7166 142.0867,0 0,17.7166 141.3779,0 0,-17.7166 142.0866,0 0,17.7166 141.378,0 0,-17.7166 142.0865,0 0,17.7166 141.3779,0 0,-17.7166 142.0867,0 0,17.7166 141.378,0 0,-17.7166 142.0866,0 0,17.7166 141.5551,0 8.2121,78.132503 17.6195,-1.8519 8.2677,78.6612 -17.6196,1.8519 8.1936,77.9565 17.6195,-1.8519 8.2677,78.66118 -17.6196,1.8519 8.1936,77.9563 17.6195,-1.8519 8.2676,78.6612 -17.6195,1.8519 8.1935,77.9565 17.6196,-1.8519 8.2676,78.6613 -17.6195,1.8519 8.212,78.1326 -70.3018,7.389 1.8519,17.6194 -70.8303,7.4445 -1.8519,-17.6194 -70.1255,7.3705 1.8519,17.6194 -70.8303,7.4446 -1.8519,-17.6195 -70.3017,7.389 -21.8441,-67.2291 -16.8495,5.4747 -22.0083,-67.7347 16.8494,-5.4747 -21.7893,-67.0608 -16.8494,5.4747 -22.0084,-67.7347 16.8494,-5.4747 -21.844,-67.2292 c -12.0957,-26.6449 -20.9242,-69.6854 -71.3357,-66.2866 l -76.076,16.1705 3.6834,17.3293 -76.5959,16.2809 -3.6834,-17.3293 -75.9027,16.1336 3.6834,17.3294 -76.5958,16.2809 -3.6834,-17.3294 -75.9027,16.1337 3.6834,17.3293 -76.5959,16.281 -3.6834,-17.3294 -75.9028,16.1336 3.6835,17.3294 -76.5959,16.281 -3.6834,-17.3294 -75.9028,16.1336 3.6835,17.3294 -76.5959,16.281 -3.6834,-17.3294 -75.9028,16.1336 3.6835,17.3294 -76.5959,16.2809 -3.6834,-17.3294 -75.9028,16.1337 3.6835,17.3295 -76.5959,16.2809 -3.6834,-17.3294 -76.076,16.1705 c -14.1335,3.1499 -34.5294,9.4618 -38.2965,19.4263 L 2655.92,1327.8404 c -2.1608,8.6115 -7.393,14.9194 -18.5676,16.7707 z"
       style="display:inline;fill:none;stroke:#000000;stroke-opacity:1"
       id="path5465"
       inkscape:connector-curvature="0" />
    <g
       style="display:inline;fill:none;stroke:#000000;stroke-opacity:1"
       transform="matrix(0,-1,1,0,3683.7511,623.05197)"
       id="g6873">
      <g
         id="g6963"
         style="fill:none;stroke:#000000;stroke-opacity:1">
        <path
           style="fill:none;stroke:#000000;stroke-width:0.99212599;stroke-miterlimit:4;stroke-dasharray:none;stroke-opacity:1"
           d="m -1445.99,385.08436 -17.7166,0 0,-78.12993 17.7166,10e-6 0,-77.59843 -17.7166,0 0,-78.30709 17.7166,0 0,-77.598422 -17.7166,10e-7 0,-78.3070907 17.7166,-1e-7 0,-77.5984192 -17.7166,-10e-7 0,-78.307098 17.7166,1e-5 0,-77.59843 -17.7166,0 0,-78.30708 17.7166,0 0,-77.59843 -17.7166,0 0,-78.30708 17.7166,-10e-6 0,-77.59842 -17.7166,0 0,-78.3071 17.7166,10e-6 0,-77.59843 -17.7166,1e-5 0,-78.12992 17.7166,0 1417.322804,0 17.71654,0 1e-6,78.12992 -17.716541,-1e-5 0,77.59843 17.71654,-10e-6 0,78.3071 -17.71654,0 0,77.59842 17.716541,10e-6 -1e-6,78.30708 -17.71654,0 0,77.59843 17.71654,0 0,78.30708 -17.71654,0 0,77.59843 17.71654,-1e-5 0,78.307098 -17.71654,10e-7 1e-6,77.5984192 17.716539,1e-7 1e-6,78.3070907 -17.716541,-10e-7 0,77.598422 17.71654,0 0,78.30709 -17.716541,0 1e-6,77.59843 17.71654,-10e-6 0,78.12993 -17.71654,0 z"
           id="path6959"
           inkscape:connector-curvature="0"
           sodipodi:nodetypes="ccccccccccccccccccccccccccccccccccccccccccccccccccccccccccccccccc" />
        <rect
           y="-624.32043"
           x="-1286.1035"
           height="849.51825"
           width="1097.5498"
           id="rect6871"
           style="opacity:1;fill:none;fill-opacity:0;fill-rule:nonzero;stroke:#000000;stroke-width:0.87540191;stroke-linecap:round;stroke-linejoin:round;stroke-miterlimit:4;stroke-dasharray:none;stroke-dashoffset:0;stroke-opacity:1" />
      </g>
    </g>
  </g>
  <g
     inkscape:groupmode="layer"
     id="layer3"
     inkscape:label="Description"
     style="display:inline">
    <text
       xml:space="preserve"
       style="font-style:normal;font-variant:normal;font-weight:normal;font-stretch:normal;font-size:102.10284424px;line-height:125%;font-family:'DejaVu Sans';-inkscape-font-specification:'DejaVu Sans';letter-spacing:0px;word-spacing:0px;display:inline;fill:#000000;fill-opacity:1;stroke:none;stroke-width:1px;stroke-linecap:butt;stroke-linejoin:miter;stroke-opacity:1"
       x="37.186352"
       y="-439.62524"
       id="text7337"
       sodipodi:linespacing="125%"><tspan
         sodipodi:role="line"
         id="tspan7339"
         x="37.186352"
         y="-439.62524">Jérôme Labidurie</tspan><tspan
         sodipodi:role="line"
         x="37.186352"
         y="-311.9967"
         id="tspan7347">v 1.0</tspan><tspan
         sodipodi:role="line"
         x="37.186352"
         y="-184.36813"
         id="tspan7343">http://u.dinask.eu/arcade</tspan><tspan
         sodipodi:role="line"
         x="37.186352"
         y="-56.739578"
         id="tspan7341">CC:BY-SA</tspan></text>
  </g>
  <g
     inkscape:groupmode="layer"
     id="layer4"
     inkscape:label="Decoration"
     style="display:inline">
    <path
       style="display:inline;fill:#ff0000;fill-opacity:1;stroke:#ff0000;stroke-opacity:1"
       d="m 3785.6075,120.8218 9,0 0,9 0,9 9,0 9,0 0,9 0,9 9,0 9,0 0,-18 0,-18 26.461,0 26.4611,0 0.2889,8.75 0.289,8.75 8.75,0.2889 8.75,0.2889 0,17.9611 0,17.9611 9,0 9,0 0,17.961 0,17.9611 -8.75,0.2889 -8.75,0.289 -0.2724,18.2114 -0.2724,18.2114 -8.7276,0.2886 -8.7276,0.2886 0,8.7515 0,8.7515 -26.75,0 -26.75,0 0,-18 0,-18 -9,0 -9,0 0,9 0,9 -9,0 -9,0 0,9 0,9 -9,0 -9,0 0,-9 0,-9 9,0 9,0 0,-9 0,-9 9,0 9,0 0,-9.5 0,-9.5 -9,0 -9,0 0,-18 0,-18 9,0 9,0 0,-9 0,-9 -9,0 -9,0 0,-9 0,-9 -9,0 -9,0 0,-9 0,-9 9,0 z m 72,54 9,0 0,-9 0,-9 -9,0 -9,0 0,9 0,9 z m -0.25,54.7889 8.75,-0.2889 0,-9 0,-9 -8.75,-0.289 -8.75,-0.2889 0,9.5779 0,9.5778 z"
       id="path4217"
       inkscape:connector-curvature="0"
       sodipodi:nodetypes="cccccccccccccccccccccccccccccccccccccccccccccccccccccccccccccccccccccccccccccccccccccccccccc" />
    <path
       style="display:inline;fill:#ff0000;fill-opacity:1;stroke:#ff0000;stroke-opacity:1"
       d="m 4171.4512,324.5256 15.8254,0 0,31.6506 0,31.6507 -15.8254,0 -15.8253,0 0,-31.6507 0,-31.6506 z m 0.041,94.9519 15.866,0 -0.4802,31.2111 -0.4802,31.211 -15.3857,0.508 -15.3857,0.5082 0,-31.7192 0,-31.7191 z m 62.3815,-191.6622 46.5968,0 0,15.8253 0,15.8253 15.8254,0 15.8253,0 0,15.8254 0,15.8253 15.8254,0 15.8252,0 0,16.7045 0,16.7045 15.8254,0 15.8252,0 0,-16.7729 0,-16.7731 15.3858,0.5082 15.3857,0.508 0.5071,15.3162 0.5069,15.3163 -15.4531,0.5091 -15.4532,0.509 -0.5056,16.2649 -0.5054,16.2649 -15.7594,0 -15.7594,0 0,47.476 0,47.476 15.8254,0 15.8252,0 0,15.8253 0,15.8253 15.8254,0 15.8253,0 0,15.8253 0,15.8254 -15.8253,0 -15.8254,0 0,-15.8254 0,-15.8253 -15.8252,0 -15.8254,0 0,15.8253 0,15.8254 -15.8252,0 -15.8254,0 0,15.8253 0,15.8253 -15.8253,0 -15.8254,0 0,15.8253 0,15.8254 -46.5968,0 -46.5967,0 0,-15.8254 0,-15.8253 30.7714,0 30.7715,0 0,-15.8253 0,-15.8253 -30.7715,0 -30.7714,0 0,-15.757 0,-15.7567 15.3857,-0.5082 15.3857,-0.508 0.4884,-75.6098 c 0.2687,-41.5855 0.056,-77.3903 -0.4731,-79.5662 -0.9031,-3.7164 -1.8663,-3.9564 -15.8741,-3.9564 l -14.9126,0 0,-15.8253 0,-15.8253 30.7714,0 30.7715,0 0,-15.8253 0,-15.8254 -30.7715,0 -30.7714,0 0,-15.8253 0,-15.8253 z m 62.4222,128.3609 15.8253,0 0,-16.4917 0,-16.4917 -14.1628,-0.2573 c -7.7895,-0.1424 -14.9109,0.2049 -15.8253,0.77 -0.9144,0.5653 -1.6626,8.1024 -1.6626,16.7492 l 0,15.7215 z m 0,126.6026 15.8253,0 0,-15.8253 0,-15.8253 -15.8253,0 -15.8254,0 0,15.8253 0,15.8253 z"
       id="path4217-4"
       inkscape:connector-curvature="0"
       sodipodi:nodetypes="ccccccccccccccccccccccccccccccccccccccccccccccccccccccccccccccccccccccccccccccccccccsssccccccccccccccccsssccccccccccc" />
    <path
       inkscape:connector-curvature="0"
       id="path4234"
       d="m 3558.6454,274.0236 9,0 0,9 0,9 8.75,0 8.75,0 -0.321,9.0022 -0.321,9.0023 -8.429,0 -8.429,0 0,8.9611 0,8.9611 8.5503,0.2889 8.5504,0.2889 0.1996,17.7501 0.1997,17.7501 -8.75,-10e-5 -8.75,0 0,-18 0,-18.0001 -9,0 -9,0 0,-9 0,-9 9,0 9,0 0,-9 0,-9 -9,0 -9,0 0,-9 0,-9 9,0 z m -1.61,90.829 c 11.3231,-0.5041 10.7303,-1.0174 10.3977,9.0016 l -0.2877,8.6694 -8.75,0.2889 -8.75,0.2889 0,-8.9599 0,-8.9599 z m 1.61,36.171 9,0 0,-9 0,-9 8.5,0 8.5,0 0,9 0,9 -8.5,0 -8.5,0 0,9 0,9 -9,0 -9,0 0,-9 0,-9 z m 35.5,-91 8.5,0 0,-18 0,-18 18,0 18,0 0,9 0,9 9,0 9,0 0,9 0,9 9,0 8.9999,0 0,9 0,9 9,0 9,0 0,18 0,18 -9,0 -9,0 0,9.5 0,9.5 -8.9999,0 -9,0 0,9 0,9 -9,0 -9,0 0,9 0,9 -18,0 -18,0 0,-18 0,-18 -8.5,0 -8.5,0 0,-9 0,-9 8.5,0 8.5,0 0,-18.5 0,-18.5 -8.5,0 -8.5,0 0,-9 0,-9 z m 35.5,18 9,0 0,-9 0,-9 -9,0 -9,0 0,9 0,9 z m 0,55 9,0 0,-9.5 0,-9.5 -8.3334,0 c -4.5833,0 -8.6333,0.3 -9,0.6666 -0.3666,0.3667 -0.6666,4.6417 -0.6666,9.5 l 0,8.8334 z"
       style="display:inline;fill:#ff0000;fill-opacity:1;stroke:#ff0000;stroke-opacity:1"
       sodipodi:nodetypes="ccccccccccccccccccccccccccccccccccsscccccscccccccccccccccccccccccccccccccccccccccccccccccccccccccccccccccccccccccccccccccscscc" />
    <path
       style="display:inline;fill:#ff0000;fill-opacity:1;stroke:#ff0000;stroke-opacity:1"
       d="m 3121.3455,364.4569 9,0 0,9 0,9 9,0 9,0 0,9 0,9 9,0 9,0 0,-18 0,-18 26.4611,0 26.461,0 0.289,8.75 0.2889,8.75 8.75,0.289 8.75,0.2889 0,17.9611 0,17.961 9,0 9,0 0,17.9611 0,17.9611 -8.75,0.2889 -8.75,0.2889 -0.2724,18.2114 -0.2724,18.2114 -8.7276,0.2886 -8.7276,0.2886 0,8.7516 0,8.7515 -26.75,0 -26.75,0 0,-18 0,-18 -9,0 -9,0 0,9 0,9 -9,0 -9,0 0,9 0,9 -9,0 -9,0 0,-9 0,-9 9,0 9,0 0,-9 0,-9 9,0 9,0 0,-9.5 0,-9.5 -9,0 -9,0 0,-18 0,-18 9,0 9,0 0,-9 0,-9 -9,0 -9,0 0,-9 0,-9 -9,0 -9,0 0,-9 0,-9 9,0 z m 72,54 9,0 0,-9 0,-9 -9,0 -9,0 0,9 0,9 z m -0.25,54.789 8.75,-0.289 0,-9 0,-9 -8.75,-0.2889 -8.75,-0.2889 0,9.5778 0,9.5779 z"
       id="path4217-6"
       inkscape:connector-curvature="0"
       sodipodi:nodetypes="cccccccccccccccccccccccccccccccccccccccccccccccccccccccccccccccccccccccccccccccccccccccccccc" />
    <path
       style="display:inline;fill:#ff0000;fill-opacity:1;stroke:#ff0000;stroke-opacity:1"
       d="m 3317.758,148.8233 9,0 0,18 0,18 -9,0 -9,0 0,-18 0,-18 z m 0.023,54 9.0231,0 -0.2731,17.75 -0.273,17.75 -8.75,0.2889 -8.75,0.2889 0,-18.0389 0,-18.0389 z m 35.477,-109 26.5,0 0,9 0,9 9,0 9,0 0,9 0,9 9,0 9,0 0,9.5 0,9.5 9,0 9,0 0,-9.539 0,-9.5389 8.75,0.2889 8.75,0.289 0.2884,8.7105 0.2883,8.7105 -8.7883,0.2895 -8.7884,0.2895 -0.2875,9.25 -0.2875,9.25 -8.9625,0 -8.9625,0 0,27 0,27 9,0 9,0 0,9 0,9 9,0 9,0 0,9 0,9 -9,0 -9,0 0,-9 0,-9 -9,0 -9,0 0,9 0,9 -9,0 -9,0 0,9 0,9 -9,0 -9,0 0,9 0,9 -26.5,0 -26.5,0 0,-9 0,-9 17.5,0 17.5,0 0,-9 0,-9 -17.5,0 -17.5,0 0,-8.9611 0,-8.9611 8.75,-0.2889 8.75,-0.2889 0.2778,-43 c 0.1528,-23.65 0.032,-44.0125 -0.269,-45.25 -0.5137,-2.1135 -1.0614,-2.25 -9.0278,-2.25 l -8.481,0 0,-9 0,-9 17.5,0 17.5,0 0,-9 0,-9 -17.5,0 -17.5,0 0,-9 0,-9 z m 35.5,73 9,0 0,-9.379 0,-9.379 -8.0544,-0.1464 c -4.43,-0.081 -8.48,0.1166 -9,0.438 -0.5201,0.3214 -0.9456,4.6078 -0.9456,9.5254 l 0,8.941 z m 0,72 9,0 0,-9 0,-9 -9,0 -9,0 0,9 0,9 z"
       id="path4217-4-7"
       inkscape:connector-curvature="0"
       sodipodi:nodetypes="ccccccccccccccccccccccccccccccccccccccccccccccccccccccccccccccccccccccccccccccccccccsssccccccccccccccccsssccccccccccc" />
    <path
       inkscape:connector-curvature="0"
       id="path4234-8"
       d="m 2642.9694,224.7183 9,0 0,9 0,9 8.75,0 8.75,0 -0.3209,9.0023 -0.321,9.0023 -8.429,0 -8.4291,0 0,8.9611 0,8.9611 8.5504,0.2889 8.5503,0.2889 0.1997,17.7501 0.1996,17.7501 -8.75,-10e-5 -8.75,-1e-4 0,-18 0,-18 -9,0 -9,0 0,-9 0,-9 9,0 9,0 0,-9 0,-9 -9,0 -9,0 0,-9 0,-9 9,0 z m -1.6099,90.829 c 11.3231,-0.5041 10.7303,-1.0173 10.3977,9.0016 l -0.2878,8.6694 -8.75,0.289 -8.75,0.2889 0,-8.9599 0,-8.96 z m 1.6099,36.171 9,0 0,-9 0,-9 8.5,0 8.5,0 0,9 0,9 -8.5,0 -8.5,0 0,9 0,9 -9,0 -9,0 0,-9 0,-9 z m 35.5,-91 8.5,0 0,-18 0,-18 18,0 18,0 0,9 0,9 9,0 9,0 0,9 0,9 9,0 9,0 0,9 0,9 9,0 9,0 0,18 0,18 -9,0 -9,0 0,9.5 0,9.5 -9,0 -9,0 0,9 0,9 -9,0 -9,0 0,9 0,9 -18,0 -18,0 0,-18 0,-18 -8.5,0 -8.5,0 0,-9 0,-9 8.5,0 8.5,0 0,-18.5 0,-18.5 -8.5,0 -8.5,0 0,-9 0,-9 z m 35.5,18 9,0 0,-9 0,-9 -9,0 -9,0 0,9 0,9 z m 0,55 9,0 0,-9.5 0,-9.5 -8.3333,0 c -4.5833,0 -8.6333,0.3 -9,0.6667 -0.3667,0.3667 -0.6667,4.6417 -0.6667,9.5 l 0,8.8333 z"
       style="display:inline;fill:#ff0000;fill-opacity:1;stroke:#ff0000;stroke-opacity:1"
       sodipodi:nodetypes="ccccccccccccccccccccccccccccccccccsscccccscccccccccccccccccccccccccccccccccccccccccccccccccccccccccccccccccccccccccccccccscscc" />
    <path
       sodipodi:nodetypes="ccccccccccccccccccccccccccccccccccccccccccccccccccccccccccccccccccccccccccccccccccccsssccccccccccccccccsssccccccccccc"
       inkscape:connector-curvature="0"
       id="path5011"
       d="m 2915.4958,148.8233 9,0 0,18 0,18 -9,0 -9,0 0,-18 0,-18 z m 0.023,54 9.0231,0 -0.2731,17.75 -0.2731,17.75 -8.75,0.2889 -8.75,0.2889 0,-18.0389 0,-18.0389 z m 35.4769,-109 26.5,0 0,9 0,9 9,0 9,0 0,9 0,9 9,0 9,0 0,9.5 0,9.5 9,0 9,0 0,-9.539 0,-9.5389 8.75,0.2889 8.75,0.289 0.2883,8.7105 0.2884,8.7105 -8.7884,0.2895 -8.7883,0.2895 -0.2876,9.25 -0.2875,9.25 -8.9625,0 -8.9624,0 0,27 0,27 9,0 9,0 0,9 0,9 9,0 9,0 0,9 0,9 -9,0 -9,0 0,-9 0,-9 -9,0 -9,0 0,9 0,9 -9,0 -9,0 0,9 0,9 -9,0 -9,0 0,9 0,9 -26.5,0 -26.5,0 0,-9 0,-9 17.5,0 17.5,0 0,-9 0,-9 -17.5,0 -17.5,0 0,-8.9611 0,-8.9611 8.75,-0.2889 8.75,-0.2889 0.2777,-43 c 0.1528,-23.65 0.032,-44.0125 -0.269,-45.25 -0.5137,-2.1135 -1.0614,-2.25 -9.0278,-2.25 l -8.4809,0 0,-9 0,-9 17.5,0 17.5,0 0,-9 0,-9 -17.5,0 -17.5,0 0,-9 0,-9 z m 35.5,73 9,0 0,-9.379 0,-9.379 -8.0545,-0.1464 c -4.4299,-0.081 -8.4799,0.1166 -9,0.438 -0.52,0.3214 -0.9455,4.6078 -0.9455,9.5254 l 0,8.941 z m 0,72 9,0 0,-9 0,-9 -9,0 -9,0 0,9 0,9 z"
       style="display:inline;fill:#ff0000;fill-opacity:1;stroke:#ff0000;stroke-opacity:1" />
    <path
       inkscape:connector-curvature="0"
       d="m 2486.7451,512.3196 0,13.0991 c 0,1e-4 -1e-4,1e-4 -1e-4,1e-4 l -19.6488,0 c -10e-5,0 -10e-5,0 -10e-5,-1e-4 l 0,-13.0991 c 0,0 0,-1e-4 10e-5,-1e-4 l 19.6488,0 c 0,0 1e-4,1e-4 1e-4,1e-4 z m -9.649,-14.0349 0,41.1691 c 0,0 0,10e-5 -1e-4,10e-5 l -57.9644,0 c -1e-4,0 -1e-4,-10e-5 -1e-4,-10e-5 l 0,-41.1691 c 0,-10e-5 0,-10e-5 1e-4,-10e-5 l 57.9644,0 c 1e-4,0 1e-4,0 1e-4,10e-5 z m -57.9646,-86.1692 0,213.5074 c 0,0 0,1e-4 -10e-5,1e-4 l -50.8156,0 c 0,0 -10e-5,-1e-4 -10e-5,-1e-4 l 0,-213.5074 c 0,0 10e-5,-10e-5 10e-5,-10e-5 l 50.8156,0 c 10e-5,0 10e-5,10e-5 10e-5,10e-5 z m 31.2245,29.5636 0,154.3801 c 0,16.6154 -18.2949,29.9917 -41.0201,29.9917 -22.7252,0 -41.0202,-13.3763 -41.0202,-29.9917 l 0,-154.3801 c 0,-16.6154 18.295,-29.9917 41.0202,-29.9917 22.7252,0 41.0201,13.3763 41.0201,29.9917 z"
       style="display:inline;opacity:1;fill:#ff0000;fill-opacity:1;fill-rule:nonzero;stroke:#ff0000;stroke-width:1;stroke-linecap:round;stroke-linejoin:round;stroke-miterlimit:4;stroke-dasharray:none;stroke-dashoffset:0;stroke-opacity:1"
       id="rect5019" />
  </g>
</svg>
